<?xml version="1.0" encoding="UTF-8" standalone="no" ?>
<!DOCTYPE svg PUBLIC "-//W3C//DTD SVG 1.1//EN" "http://www.w3.org/Graphics/SVG/1.1/DTD/svg11.dtd">
<svg xmlns="http://www.w3.org/2000/svg" xmlns:xlink="http://www.w3.org/1999/xlink" version="1.1" width="640" height="640" viewBox="0 0 640 640" xml:space="preserve">
<desc>Created with Fabric.js 5.3.0</desc>
<defs>
</defs>
<g transform="matrix(1 0 0 1 320 320)" id="O_EbNV6PFDzAYIk4hqmkV"  >
<path style="stroke: none; stroke-width: 1; stroke-dasharray: none; stroke-linecap: butt; stroke-dashoffset: 0; stroke-linejoin: miter; stroke-miterlimit: 4; fill: rgb(77,77,77); fill-rule: nonzero; opacity: 1;" vector-effect="non-scaling-stroke"  transform=" translate(-256.0005, -256)" d="M 406.871 121.397 C 374.775 121.40400000000001 348.78 147.399 348.77299999999997 179.495 L 348.77299999999997 244.5 L 343.56399999999996 244.5 L 343.56399999999996 83.739 C 343.556 37.482 306.082 0.007 259.825 0 C 213.56799999999998 0.007 176.093 37.482 176.08599999999998 83.739 L 176.08599999999998 270.947 C 175.83899999999997 270.862 175.59099999999998 270.791 175.37199999999999 270.727 C 174.261 270.423 173.37599999999998 270.239 172.414 270.041 C 169.60399999999998 269.475 166.22899999999998 268.902 163.22799999999998 268.314 L 163.22799999999998 237.30100000000002 C 163.22199999999998 205.21300000000002 137.22599999999997 179.211 105.12999999999998 179.20300000000003 C 73.04199999999997 179.21000000000004 47.04699999999998 205.21200000000005 47.03999999999998 237.30100000000004 L 47.03999999999998 271.47100000000006 C 47.03999999999998 287.40200000000004 50.287999999999975 302.78800000000007 56.19799999999998 316.7370000000001 C 65.05799999999998 337.6650000000001 79.74399999999997 355.3230000000001 98.24399999999997 367.8280000000001 C 116.28399999999996 380.0580000000001 138.19599999999997 387.27600000000007 161.402 387.65100000000007 L 161.72699999999998 387.7220000000001 L 176.087 387.7220000000001 L 176.087 512 L 343.565 512 L 343.565 497.506 L 343.565 360.687 L 350.169 360.687 L 350.21799999999996 360.687 L 350.95399999999995 360.666 L 350.95399999999995 360.652 C 366.39599999999996 360.546 381.31499999999994 357.368 394.86099999999993 351.642 C 415.53399999999993 342.895 432.96599999999995 328.4 445.32199999999995 310.12 C 457.59399999999994 291.988 464.81999999999994 269.914 464.9409999999999 246.523 L 464.9469999999999 246.523 L 464.9609999999999 246.20499999999998 L 464.9609999999999 245.98499999999999 L 464.9609999999999 245.97799999999998 L 464.9609999999999 179.49399999999997 C 464.954 147.399 438.959 121.404 406.871 121.397 z M 435.972 245.886 L 435.972 245.986 C 435.979 263.572 430.51599999999996 280.28999999999996 421.308 293.878 C 412.043 307.58 399.028 318.394 383.565 324.947 C 373.317 329.279 361.937 331.699 350.217 331.699 L 350.168 331.699 L 314.576 331.699 L 314.576 483.011 L 205.07600000000002 483.011 L 205.07600000000002 358.734 L 163.53200000000004 358.734 L 163.29100000000003 358.734 L 163.22100000000003 358.734 C 145.31500000000003 358.734 128.30800000000005 353.193 114.49300000000002 343.822 C 100.56500000000003 334.402 89.54500000000002 321.154 82.89300000000003 305.442 C 78.47700000000003 295.017 76.02800000000003 283.452 76.02800000000003 271.471 L 76.02800000000003 237.301 C 76.03500000000004 229.219 79.26200000000003 222.028 84.55600000000004 216.721 C 89.86400000000003 211.427 97.04700000000004 208.2 105.12900000000005 208.193 C 113.21200000000005 208.20000000000002 120.40200000000004 211.42700000000002 125.71000000000005 216.721 C 131.00300000000004 222.029 134.23100000000005 229.219 134.23800000000006 237.301 L 134.23800000000006 271.57 C 134.18900000000005 277.316 136.15600000000006 283.276 139.09400000000005 287.572 L 139.15000000000006 287.649 L 139.16400000000007 287.677 C 140.84200000000007 290.09000000000003 142.34900000000007 291.18 143.50900000000007 292.00100000000003 C 145.70400000000006 293.45200000000006 147.11900000000009 293.93300000000005 148.47800000000007 294.45000000000005 C 149.76600000000008 294.903 150.96200000000007 295.24300000000005 152.14400000000006 295.547 C 153.05000000000007 296.58000000000004 153.91400000000007 297.273 154.57200000000006 297.776 C 157.02800000000005 299.45300000000003 158.07600000000005 299.594 158.88200000000006 299.899 C 160.29800000000006 300.303 160.74400000000006 300.317 161.17500000000007 300.395 C 161.84000000000006 300.47299999999996 162.08100000000007 300.47999999999996 162.30800000000008 300.501 L 163.29100000000008 300.52299999999997 L 205.07500000000007 300.52299999999997 L 205.07500000000007 83.739 C 205.08200000000008 68.572 211.18300000000008 54.977000000000004 221.11200000000008 45.026 C 231.06300000000007 35.089000000000006 244.65800000000007 28.996000000000002 259.8250000000001 28.989000000000004 C 274.9920000000001 28.996000000000006 288.5870000000001 35.089000000000006 298.5380000000001 45.026 C 308.4670000000001 54.976 314.5680000000001 68.572 314.5750000000001 83.739 L 314.5750000000001 273.488 L 350.1670000000001 273.488 L 350.2370000000001 273.488 C 352.9620000000001 273.481 355.7720000000001 273.078 358.3970000000001 272.25 C 361.0300000000001 271.436 363.4220000000001 270.218 365.4390000000001 268.882 L 365.53100000000006 268.825 L 365.68700000000007 268.719 L 365.5520000000001 268.811 C 370.09600000000006 265.71099999999996 373.45700000000005 261.628 375.6160000000001 256.596 C 376.9530000000001 253.50300000000001 377.7960000000001 249.611 377.7600000000001 245.888 L 377.7600000000001 179.496 C 377.7670000000001 171.406 380.9940000000001 164.223 386.2880000000001 158.91500000000002 C 391.5960000000001 153.621 398.78000000000014 150.394 406.86900000000014 150.38700000000003 C 414.95100000000014 150.39400000000003 422.1340000000001 153.62100000000004 427.4490000000001 158.90800000000002 C 432.7360000000001 164.223 435.96300000000014 171.406 435.97000000000014 179.496 L 435.97000000000014 245.886 z" stroke-linecap="round" />
</g>
<g transform="matrix(1 0 0 1 320 320)" id="ad3qIKOuLdye52hGi7Ib9"  >
<g style="" vector-effect="non-scaling-stroke"   >
		<g transform="matrix(1 0 0 1 0.0005 230.6815)" id="Ss8ffRKtxTmy_QOJy1Lxk"  >
<path style="stroke: none; stroke-width: 1; stroke-dasharray: none; stroke-linecap: butt; stroke-dashoffset: 0; stroke-linejoin: miter; stroke-miterlimit: 4; fill: rgb(77,77,77); fill-rule: nonzero; opacity: 1;" vector-effect="non-scaling-stroke"  transform=" translate(-256.0005, -486.6815)" d="M 204.997 485.585 C 220.19400000000002 497.43899999999996 237.67000000000002 506.508 256 512 C 274.33 506.508 291.807 497.44 307.004 485.585 C 288.935 480.084 271.807 471.964 256 461.363 C 240.194 471.964 223.065 480.084 204.997 485.585 z" stroke-linecap="round" />
</g>
		<g transform="matrix(1 0 0 1 -162.34 162.3405)" id="lY7dEJClNpke-iiHyAtYp"  >
<path style="stroke: none; stroke-width: 1; stroke-dasharray: none; stroke-linecap: butt; stroke-dashoffset: 0; stroke-linejoin: miter; stroke-miterlimit: 4; fill: rgb(77,77,77); fill-rule: nonzero; opacity: 1;" vector-effect="non-scaling-stroke"  transform=" translate(-93.66, -418.3405)" d="M 57.592 382.273 C 59.951 401.41200000000003 65.896 420.168 74.982 437.01000000000005 C 91.832 446.1050000000001 110.588 452.05000000000007 129.728 454.4080000000001 C 120.80600000000001 437.7150000000001 114.453 419.8810000000001 110.77100000000002 401.22900000000004 C 92.119 397.547 74.286 391.194 57.592 382.273 z" stroke-linecap="round" />
</g>
		<g transform="matrix(1 0 0 1 162.34 162.3405)" id="XWfnys_OG39Q5_a3kJ6ct"  >
<path style="stroke: none; stroke-width: 1; stroke-dasharray: none; stroke-linecap: butt; stroke-dashoffset: 0; stroke-linejoin: miter; stroke-miterlimit: 4; fill: rgb(77,77,77); fill-rule: nonzero; opacity: 1;" vector-effect="non-scaling-stroke"  transform=" translate(-418.34, -418.3405)" d="M 382.272 454.408 C 401.412 452.05 420.168 446.105 437.018 437.01 C 446.104 420.168 452.049 401.412 454.40799999999996 382.27299999999997 C 437.71399999999994 391.19399999999996 419.87999999999994 397.54699999999997 401.2289999999999 401.229 C 397.547 419.881 391.194 437.715 382.272 454.408 z" stroke-linecap="round" />
</g>
		<g transform="matrix(1 0 0 1 -67.9965 170.0995)" id="_FME0UOkwNsdiaB3SAXun"  >
<path style="stroke: none; stroke-width: 1; stroke-dasharray: none; stroke-linecap: butt; stroke-dashoffset: 0; stroke-linejoin: miter; stroke-miterlimit: 4; fill: rgb(77,77,77); fill-rule: nonzero; opacity: 1;" vector-effect="non-scaling-stroke"  transform=" translate(-188.0035, -426.0995)" d="M 196.859 398.809 C 181.949 402.64700000000005 166.58800000000002 404.69300000000004 151.122 404.91 C 155.92600000000002 422.161 163.85500000000002 438.785 174.23000000000002 453.39000000000004 C 191.89900000000003 450.422 209.27100000000002 444.26800000000003 224.88500000000002 435.45200000000006 C 214.118 424.397 204.701 412.091 196.859 398.809 z" stroke-linecap="round" />
</g>
		<g transform="matrix(1 0 0 1 68.0015 170.0995)" id="CzPBoOuFtig9dmek13MDS"  >
<path style="stroke: none; stroke-width: 1; stroke-dasharray: none; stroke-linecap: butt; stroke-dashoffset: 0; stroke-linejoin: miter; stroke-miterlimit: 4; fill: rgb(77,77,77); fill-rule: nonzero; opacity: 1;" vector-effect="non-scaling-stroke"  transform=" translate(-324.0015, -426.0995)" d="M 287.115 435.452 C 302.73 444.268 320.093 450.422 337.77 453.39 C 348.145 438.78499999999997 356.075 422.162 360.888 404.90999999999997 C 345.41299999999995 404.693 330.06 402.647 315.142 398.80899999999997 C 307.299 412.091 297.89 424.397 287.115 435.452 z" stroke-linecap="round" />
</g>
		<g transform="matrix(1 0 0 1 0.0045 136.2775)" id="aOHJn91m1rHHZac34lUco"  >
<path style="stroke: none; stroke-width: 1; stroke-dasharray: none; stroke-linecap: butt; stroke-dashoffset: 0; stroke-linejoin: miter; stroke-miterlimit: 4; fill: rgb(77,77,77); fill-rule: nonzero; opacity: 1;" vector-effect="non-scaling-stroke"  transform=" translate(-256.0045, -392.2775)" d="M 233.64 385.215 C 239.50699999999998 394.22299999999996 246.30399999999997 402.587 253.85899999999998 410.159 C 254.55499999999998 410.855 255.26899999999998 411.534 255.99999999999997 412.248 C 256.73199999999997 411.534 257.445 410.855 258.142 410.159 C 265.69599999999997 402.587 272.49399999999997 394.223 278.36899999999997 385.215 C 270.65799999999996 381.41999999999996 263.14599999999996 377.10299999999995 255.99999999999997 372.30699999999996 C 248.854 377.102 241.343 381.42 233.64 385.215 z" stroke-linecap="round" />
</g>
		<g transform="matrix(1 0 0 1 -93.0365 93.0375)" id="bEsbEbQZHv4NTHcP-43Pn"  >
<path style="stroke: none; stroke-width: 1; stroke-dasharray: none; stroke-linecap: butt; stroke-dashoffset: 0; stroke-linejoin: miter; stroke-miterlimit: 4; fill: rgb(77,77,77); fill-rule: nonzero; opacity: 1;" vector-effect="non-scaling-stroke"  transform=" translate(-162.9635, -349.0375)" d="M 173.742 338.258 C 165.309 336.587 156.95399999999998 334.33299999999997 148.82399999999998 331.556 C 146.605 342.062 145.48199999999997 352.78499999999997 145.48199999999997 363.498 C 145.48199999999997 364.473 145.49999999999997 365.465 145.50899999999996 366.47499999999997 C 146.53599999999994 366.501 147.52799999999996 366.51899999999995 148.50299999999996 366.51899999999995 C 159.21799999999996 366.51899999999995 169.93999999999997 365.39599999999996 180.44499999999996 363.1859999999999 C 177.668 355.047 175.413 346.692 173.742 338.258 z" stroke-linecap="round" />
</g>
		<g transform="matrix(1 0 0 1 93.038 93.0365)" id="GtwqX0zQo-Y5aCJ_LERN9"  >
<path style="stroke: none; stroke-width: 1; stroke-dasharray: none; stroke-linecap: butt; stroke-dashoffset: 0; stroke-linejoin: miter; stroke-miterlimit: 4; fill: rgb(77,77,77); fill-rule: nonzero; opacity: 1;" vector-effect="non-scaling-stroke"  transform=" translate(-349.038, -349.0365)" d="M 338.258 338.258 C 336.587 346.692 334.33299999999997 355.04699999999997 331.55699999999996 363.185 C 342.06199999999995 365.395 352.78499999999997 366.51800000000003 363.49899999999997 366.51800000000003 C 364.47299999999996 366.51800000000003 365.46599999999995 366.50000000000006 366.47499999999997 366.47400000000005 C 366.50199999999995 365.46400000000006 366.51899999999995 364.47200000000004 366.51899999999995 363.49700000000007 C 366.51899999999995 352.7830000000001 365.39699999999993 342.0610000000001 363.17699999999996 331.55500000000006 C 355.047 334.333 346.692 336.587 338.258 338.258 z" stroke-linecap="round" />
</g>
		<g transform="matrix(1 0 0 1 170.0995 67.9925)" id="MonsZHoOEgk2Uh7-J9fPt"  >
<path style="stroke: none; stroke-width: 1; stroke-dasharray: none; stroke-linecap: butt; stroke-dashoffset: 0; stroke-linejoin: miter; stroke-miterlimit: 4; fill: rgb(77,77,77); fill-rule: nonzero; opacity: 1;" vector-effect="non-scaling-stroke"  transform=" translate(-426.0995, -323.9925)" d="M 398.809 315.142 C 402.64700000000005 330.051 404.692 345.412 404.91 360.87 C 422.161 356.074 438.785 348.146 453.39000000000004 337.77 C 450.422 320.102 444.26000000000005 302.72999999999996 435.45200000000006 287.115 C 424.398 297.882 412.091 307.299 398.809 315.142 z" stroke-linecap="round" />
</g>
		<g transform="matrix(1 0 0 1 -170.099 67.993)" id="dmLXQRgOnffFw9mhw9qOt"  >
<path style="stroke: none; stroke-width: 1; stroke-dasharray: none; stroke-linecap: butt; stroke-dashoffset: 0; stroke-linejoin: miter; stroke-miterlimit: 4; fill: rgb(77,77,77); fill-rule: nonzero; opacity: 1;" vector-effect="non-scaling-stroke"  transform=" translate(-85.901, -323.993)" d="M 107.107 360.87 C 107.307 345.412 109.352 330.05 113.191 315.142 C 99.909 307.3 87.602 297.882 76.549 287.116 C 67.74100000000001 302.731 61.57900000000001 320.103 58.611000000000004 337.77099999999996 C 73.215 348.146 89.839 356.074 107.107 360.87 z" stroke-linecap="round" />
</g>
		<g transform="matrix(1 0 0 1 -36.52 90.2125)" id="zvvvZ_wMKjwdWnGrBVLpJ"  >
<path style="stroke: none; stroke-width: 1; stroke-dasharray: none; stroke-linecap: butt; stroke-dashoffset: 0; stroke-linejoin: miter; stroke-miterlimit: 4; fill: rgb(77,77,77); fill-rule: nonzero; opacity: 1;" vector-effect="non-scaling-stroke"  transform=" translate(-219.48, -346.2125)" d="M 213.831 355.508 C 219.566 352.73199999999997 225.172 349.74699999999996 230.69 346.639 C 227.609 343.479 224.545 340.25100000000003 221.56 336.91700000000003 C 217.095 337.12500000000006 212.647 337.26500000000004 208.27 337.35200000000003 C 209.941 343.48 211.811 349.538 213.831 355.508 z" stroke-linecap="round" />
</g>
		<g transform="matrix(1 0 0 1 36.5205 90.2125)" id="WeJU9DEtAQ8vKgrZQ0iCc"  >
<path style="stroke: none; stroke-width: 1; stroke-dasharray: none; stroke-linecap: butt; stroke-dashoffset: 0; stroke-linejoin: miter; stroke-miterlimit: 4; fill: rgb(77,77,77); fill-rule: nonzero; opacity: 1;" vector-effect="non-scaling-stroke"  transform=" translate(-292.5205, -346.2125)" d="M 281.31 346.639 C 286.819 349.747 292.46 352.732 298.169 355.50800000000004 C 300.188 349.538 302.05899999999997 343.48 303.731 337.35200000000003 C 299.353 337.266 294.906 337.12600000000003 290.466 336.91700000000003 C 287.454 340.251 284.391 343.48 281.31 346.639 z" stroke-linecap="round" />
</g>
		<g transform="matrix(1 0 0 1 -230.681 0.0005)" id="r5U0e2s0w7YAZhC7OCw6I"  >
<path style="stroke: none; stroke-width: 1; stroke-dasharray: none; stroke-linecap: butt; stroke-dashoffset: 0; stroke-linejoin: miter; stroke-miterlimit: 4; fill: rgb(77,77,77); fill-rule: nonzero; opacity: 1;" vector-effect="non-scaling-stroke"  transform=" translate(-25.319, -256.0005)" d="M 0 256 C 5.492 274.33 14.552 291.807 26.416 307.004 C 31.917 288.92600000000004 40.037 271.814 50.638000000000005 256 C 40.037000000000006 240.186 31.917000000000005 223.074 26.416000000000004 204.997 C 14.552 220.193 5.492 237.671 0 256 z" stroke-linecap="round" />
</g>
		<g transform="matrix(1 0 0 1 230.681 0.0005)" id="PilP1-RV8LyRwfQYj68Vg"  >
<path style="stroke: none; stroke-width: 1; stroke-dasharray: none; stroke-linecap: butt; stroke-dashoffset: 0; stroke-linejoin: miter; stroke-miterlimit: 4; fill: rgb(77,77,77); fill-rule: nonzero; opacity: 1;" vector-effect="non-scaling-stroke"  transform=" translate(-486.681, -256.0005)" d="M 485.584 204.997 C 480.083 223.074 471.954 240.19400000000002 461.362 256 C 471.954 271.805 480.084 288.925 485.584 307.004 C 497.448 291.807 506.508 274.33 512 256 C 506.508 237.671 497.448 220.193 485.584 204.997 z" stroke-linecap="round" />
</g>
		<g transform="matrix(1 0 0 1 -90.2135 36.521)" id="5vVcZSMR7DmAFW6MxduIN"  >
<path style="stroke: none; stroke-width: 1; stroke-dasharray: none; stroke-linecap: butt; stroke-dashoffset: 0; stroke-linejoin: miter; stroke-miterlimit: 4; fill: rgb(77,77,77); fill-rule: nonzero; opacity: 1;" vector-effect="non-scaling-stroke"  transform=" translate(-165.7865, -292.521)" d="M 156.491 298.169 C 162.453 300.188 168.519 302.05899999999997 174.64700000000002 303.731 C 174.734 299.353 174.87300000000002 294.905 175.08200000000002 290.441 C 171.80100000000002 287.464 168.55400000000003 284.41799999999995 165.36 281.311 C 162.253 286.819 159.268 292.459 156.491 298.169 z" stroke-linecap="round" />
</g>
		<g transform="matrix(1 0 0 1 90.222 36.5205)" id="fmGCQO6QkFaG9F2-NZ9oj"  >
<path style="stroke: none; stroke-width: 1; stroke-dasharray: none; stroke-linecap: butt; stroke-dashoffset: 0; stroke-linejoin: miter; stroke-miterlimit: 4; fill: rgb(77,77,77); fill-rule: nonzero; opacity: 1;" vector-effect="non-scaling-stroke"  transform=" translate(-346.222, -292.5205)" d="M 337.344 303.731 C 343.454 302.06 349.529 300.188 355.5 298.169 C 352.715 292.459 349.738 286.81899999999996 346.605 281.31 C 343.445 284.391 340.199 287.454 336.944 290.44 C 337.178 294.905 337.284 299.353 337.344 303.731 z" stroke-linecap="round" />
</g>
		<g transform="matrix(1 0 0 1 0.0005 0)" id="f_FuR4mdTmfV1BABqNDn5"  >
<path style="stroke: none; stroke-width: 1; stroke-dasharray: none; stroke-linecap: butt; stroke-dashoffset: 0; stroke-linejoin: miter; stroke-miterlimit: 4; fill: rgb(77,77,77); fill-rule: nonzero; opacity: 1;" vector-effect="non-scaling-stroke"  transform=" translate(-256.0005, -256)" d="M 300.754 211.246 C 286.53200000000004 203.578 271.483 197.347 256 192.699 C 240.516 197.347 225.468 203.578 211.247 211.246 C 203.579 225.46800000000002 197.33800000000002 240.51600000000002 192.699 256 C 197.33800000000002 271.484 203.579 286.532 211.247 300.754 C 225.46900000000002 308.422 240.51700000000002 314.654 256 319.30100000000004 C 271.484 314.65400000000005 286.532 308.422 300.754 300.754 C 308.422 286.53200000000004 314.654 271.48400000000004 319.302 256 C 314.654 240.516 308.422 225.467 300.754 211.246 z" stroke-linecap="round" />
</g>
		<g transform="matrix(1 0 0 1 136.2765 -0.0005)" id="Z74cW-ukKbSK6qKY7orjS"  >
<path style="stroke: none; stroke-width: 1; stroke-dasharray: none; stroke-linecap: butt; stroke-dashoffset: 0; stroke-linejoin: miter; stroke-miterlimit: 4; fill: rgb(77,77,77); fill-rule: nonzero; opacity: 1;" vector-effect="non-scaling-stroke"  transform=" translate(-392.2765, -255.9995)" d="M 372.306 256 C 377.102 263.146 381.419 270.648 385.214 278.368 C 394.222 272.493 402.604 265.695 410.158 258.14 C 410.85400000000004 257.44399999999996 411.533 256.72999999999996 412.247 256 C 411.533 255.269 410.85400000000004 254.555 410.158 253.859 C 402.60400000000004 246.304 394.22200000000004 239.506 385.214 233.631 C 381.419 241.352 377.102 248.855 372.306 256 z" stroke-linecap="round" />
</g>
		<g transform="matrix(1 0 0 1 -136.277 -0.0005)" id="JGFpbYumoz9K970HyqKCb"  >
<path style="stroke: none; stroke-width: 1; stroke-dasharray: none; stroke-linecap: butt; stroke-dashoffset: 0; stroke-linejoin: miter; stroke-miterlimit: 4; fill: rgb(77,77,77); fill-rule: nonzero; opacity: 1;" vector-effect="non-scaling-stroke"  transform=" translate(-119.723, -255.9995)" d="M 101.842 253.859 C 101.163 254.555 100.467 255.269 99.753 256 C 100.467 256.731 101.145 257.444 101.842 258.14 C 109.396 265.695 117.77799999999999 272.493 126.786 278.368 C 130.581 270.64799999999997 134.897 263.146 139.693 256 C 134.89700000000002 248.855 130.58100000000002 241.352 126.78600000000002 233.631 C 117.777 239.507 109.396 246.304 101.842 253.859 z" stroke-linecap="round" />
</g>
		<g transform="matrix(1 0 0 1 90.222 -36.5205)" id="tC58_AAmtuBgfCAtTpGMm"  >
<path style="stroke: none; stroke-width: 1; stroke-dasharray: none; stroke-linecap: butt; stroke-dashoffset: 0; stroke-linejoin: miter; stroke-miterlimit: 4; fill: rgb(77,77,77); fill-rule: nonzero; opacity: 1;" vector-effect="non-scaling-stroke"  transform=" translate(-346.222, -219.4795)" d="M 355.5 213.831 C 349.529 211.81099999999998 343.454 209.94 337.344 208.26899999999998 C 337.284 212.64799999999997 337.178 217.09499999999997 336.944 221.55999999999997 C 340.199 224.545 343.446 227.60899999999998 346.605 230.68999999999997 C 349.738 225.181 352.715 219.541 355.5 213.831 z" stroke-linecap="round" />
</g>
		<g transform="matrix(1 0 0 1 -90.2135 -36.5205)" id="Cj3YGzI-Hv6s8HO-ApYOK"  >
<path style="stroke: none; stroke-width: 1; stroke-dasharray: none; stroke-linecap: butt; stroke-dashoffset: 0; stroke-linejoin: miter; stroke-miterlimit: 4; fill: rgb(77,77,77); fill-rule: nonzero; opacity: 1;" vector-effect="non-scaling-stroke"  transform=" translate(-165.7865, -219.4795)" d="M 174.647 208.269 C 168.519 209.94 162.453 211.812 156.49099999999999 213.83100000000002 C 159.267 219.54000000000002 162.253 225.18 165.35999999999999 230.69000000000003 C 168.55399999999997 227.58200000000002 171.801 224.53600000000003 175.082 221.56000000000003 C 174.874 217.095 174.734 212.648 174.647 208.269 z" stroke-linecap="round" />
</g>
		<g transform="matrix(1 0 0 1 170.099 -67.9925)" id="IO-kE19wJqzXrsINLbzPc"  >
<path style="stroke: none; stroke-width: 1; stroke-dasharray: none; stroke-linecap: butt; stroke-dashoffset: 0; stroke-linejoin: miter; stroke-miterlimit: 4; fill: rgb(77,77,77); fill-rule: nonzero; opacity: 1;" vector-effect="non-scaling-stroke"  transform=" translate(-426.099, -188.0075)" d="M 404.91 151.13 C 404.692 166.588 402.64700000000005 181.95 398.809 196.85999999999999 C 412.091 204.702 424.398 214.11899999999997 435.451 224.885 C 444.259 209.26999999999998 450.42100000000005 191.898 453.389 174.23 C 438.785 163.854 422.161 155.926 404.91 151.13 z" stroke-linecap="round" />
</g>
		<g transform="matrix(1 0 0 1 -170.1 -67.9925)" id="po7vCwIslFTpEX_6TNFHk"  >
<path style="stroke: none; stroke-width: 1; stroke-dasharray: none; stroke-linecap: butt; stroke-dashoffset: 0; stroke-linejoin: miter; stroke-miterlimit: 4; fill: rgb(77,77,77); fill-rule: nonzero; opacity: 1;" vector-effect="non-scaling-stroke"  transform=" translate(-85.9, -188.0075)" d="M 107.107 151.13 C 89.839 155.926 73.215 163.85399999999998 58.61 174.23 C 61.578 191.898 67.74 209.26999999999998 76.548 224.885 C 87.601 214.10999999999999 99.908 204.702 113.19 196.85999999999999 C 109.352 181.949 107.307 166.588 107.107 151.13 z" stroke-linecap="round" />
</g>
		<g transform="matrix(1 0 0 1 93.0375 -93.038)" id="fT7aX5F_mSljDltJCCZxS"  >
<path style="stroke: none; stroke-width: 1; stroke-dasharray: none; stroke-linecap: butt; stroke-dashoffset: 0; stroke-linejoin: miter; stroke-miterlimit: 4; fill: rgb(77,77,77); fill-rule: nonzero; opacity: 1;" vector-effect="non-scaling-stroke"  transform=" translate(-349.0375, -162.962)" d="M 363.499 145.481 C 352.785 145.481 342.062 146.60399999999998 331.557 148.814 C 334.333 156.952 336.587 165.308 338.25800000000004 173.74099999999999 C 346.69200000000006 175.41199999999998 355.04800000000006 177.666 363.17600000000004 180.44299999999998 C 365.3960000000001 169.938 366.51800000000003 159.214 366.51800000000003 148.50099999999998 C 366.51800000000003 147.52599999999998 366.50100000000003 146.53399999999996 366.47400000000005 145.52399999999997 C 365.466 145.499 364.473 145.481 363.499 145.481 z" stroke-linecap="round" />
</g>
		<g transform="matrix(1 0 0 1 -93.0375 -93.0365)" id="Yev-_FF6eiT3iOTypL3a9"  >
<path style="stroke: none; stroke-width: 1; stroke-dasharray: none; stroke-linecap: butt; stroke-dashoffset: 0; stroke-linejoin: miter; stroke-miterlimit: 4; fill: rgb(77,77,77); fill-rule: nonzero; opacity: 1;" vector-effect="non-scaling-stroke"  transform=" translate(-162.9625, -162.9635)" d="M 173.742 173.742 C 175.41299999999998 165.308 177.66799999999998 156.95299999999997 180.444 148.815 C 169.939 146.605 159.21599999999998 145.482 148.50199999999998 145.482 C 147.527 145.482 146.53499999999997 145.5 145.50799999999998 145.526 C 145.499 146.536 145.481 147.52800000000002 145.481 148.50300000000001 C 145.481 159.217 146.60399999999998 169.94000000000003 148.823 180.44500000000002 C 156.953 177.667 165.308 175.413 173.742 173.742 z" stroke-linecap="round" />
</g>
		<g transform="matrix(1 0 0 1 36.5205 -90.2125)" id="VuQvoMdJWYdDC-oOzFwm4"  >
<path style="stroke: none; stroke-width: 1; stroke-dasharray: none; stroke-linecap: butt; stroke-dashoffset: 0; stroke-linejoin: miter; stroke-miterlimit: 4; fill: rgb(77,77,77); fill-rule: nonzero; opacity: 1;" vector-effect="non-scaling-stroke"  transform=" translate(-292.5205, -165.7875)" d="M 298.169 156.492 C 292.46 159.268 286.81899999999996 162.254 281.31 165.361 C 284.391 168.521 287.454 171.749 290.466 175.083 C 294.906 174.875 299.353 174.73499999999999 303.731 174.648 C 302.06 168.52 300.188 162.462 298.169 156.492 z" stroke-linecap="round" />
</g>
		<g transform="matrix(1 0 0 1 -36.52 -90.2125)" id="FgEpVc-P6nzu2Cz5iqouR"  >
<path style="stroke: none; stroke-width: 1; stroke-dasharray: none; stroke-linecap: butt; stroke-dashoffset: 0; stroke-linejoin: miter; stroke-miterlimit: 4; fill: rgb(77,77,77); fill-rule: nonzero; opacity: 1;" vector-effect="non-scaling-stroke"  transform=" translate(-219.48, -165.7875)" d="M 230.69 165.361 C 225.172 162.254 219.566 159.26899999999998 213.831 156.492 C 211.81099999999998 162.462 209.941 168.51999999999998 208.26999999999998 174.648 C 212.64799999999997 174.734 217.09499999999997 174.874 221.55999999999997 175.083 C 224.545 171.749 227.609 168.52 230.69 165.361 z" stroke-linecap="round" />
</g>
		<g transform="matrix(1 0 0 1 0.0035 -136.277)" id="-B_cRDACRfx0stxUqxIl9"  >
<path style="stroke: none; stroke-width: 1; stroke-dasharray: none; stroke-linecap: butt; stroke-dashoffset: 0; stroke-linejoin: miter; stroke-miterlimit: 4; fill: rgb(77,77,77); fill-rule: nonzero; opacity: 1;" vector-effect="non-scaling-stroke"  transform=" translate(-256.0035, -119.723)" d="M 278.368 126.786 C 272.493 117.777 265.695 109.413 258.141 101.84100000000001 C 257.444 101.14500000000001 256.731 100.44900000000001 255.99900000000002 99.75300000000001 C 255.26800000000003 100.44900000000001 254.55400000000003 101.14500000000001 253.85800000000003 101.84100000000001 C 246.30300000000003 109.41300000000001 239.50600000000003 117.77700000000002 233.63900000000004 126.786 C 241.34200000000004 130.58 248.85300000000004 134.898 255.99900000000002 139.693 C 263.146 134.898 270.657 130.581 278.368 126.786 z" stroke-linecap="round" />
</g>
		<g transform="matrix(1 0 0 1 -162.34 -162.3405)" id="UcLpcH4NGuT8TSG4fnlXm"  >
<path style="stroke: none; stroke-width: 1; stroke-dasharray: none; stroke-linecap: butt; stroke-dashoffset: 0; stroke-linejoin: miter; stroke-miterlimit: 4; fill: rgb(77,77,77); fill-rule: nonzero; opacity: 1;" vector-effect="non-scaling-stroke"  transform=" translate(-93.66, -93.6595)" d="M 129.728 57.592 C 110.58800000000001 59.949999999999996 91.83200000000001 65.895 74.982 74.99 C 65.896 91.832 59.951 110.588 57.592 129.727 C 74.286 120.807 92.119 114.453 110.771 110.771 C 114.453 92.137 120.806 74.285 129.728 57.592 z" stroke-linecap="round" />
</g>
		<g transform="matrix(1 0 0 1 162.34 -162.3405)" id="G6TDdNlTuuyE0l8xVSFTR"  >
<path style="stroke: none; stroke-width: 1; stroke-dasharray: none; stroke-linecap: butt; stroke-dashoffset: 0; stroke-linejoin: miter; stroke-miterlimit: 4; fill: rgb(77,77,77); fill-rule: nonzero; opacity: 1;" vector-effect="non-scaling-stroke"  transform=" translate(-418.34, -93.6595)" d="M 382.272 57.592 C 391.194 74.285 397.54699999999997 92.119 401.229 110.771 C 419.88 114.453 437.714 120.807 454.408 129.727 C 452.04900000000004 110.58800000000001 446.10400000000004 91.832 437.01800000000003 74.99000000000001 C 420.168 65.895 401.412 59.951 382.272 57.592 z" stroke-linecap="round" />
</g>
		<g transform="matrix(1 0 0 1 68.0005 -170.0995)" id="S1AKUms5ozKUievcrkBaK"  >
<path style="stroke: none; stroke-width: 1; stroke-dasharray: none; stroke-linecap: butt; stroke-dashoffset: 0; stroke-linejoin: miter; stroke-miterlimit: 4; fill: rgb(77,77,77); fill-rule: nonzero; opacity: 1;" vector-effect="non-scaling-stroke"  transform=" translate(-324.0005, -85.9005)" d="M 315.141 113.191 C 330.05 109.35300000000001 345.413 107.307 360.887 107.107 C 356.074 89.839 348.145 73.215 337.769 58.61 C 320.092 61.579 302.729 67.732 287.11400000000003 76.548 C 297.882 87.603 307.299 99.909 315.141 113.191 z" stroke-linecap="round" />
</g>
		<g transform="matrix(1 0 0 1 -67.9975 -170.0995)" id="-7AD9NaXdDQbsAFqgX-sq"  >
<path style="stroke: none; stroke-width: 1; stroke-dasharray: none; stroke-linecap: butt; stroke-dashoffset: 0; stroke-linejoin: miter; stroke-miterlimit: 4; fill: rgb(77,77,77); fill-rule: nonzero; opacity: 1;" vector-effect="non-scaling-stroke"  transform=" translate(-188.0025, -85.9005)" d="M 224.884 76.548 C 209.26999999999998 67.732 191.898 61.579 174.22899999999998 58.61 C 163.855 73.215 155.92499999999998 89.839 151.12099999999998 107.09 C 166.587 107.307 181.94899999999998 109.35300000000001 196.85799999999998 113.191 C 204.701 99.909 214.118 87.603 224.884 76.548 z" stroke-linecap="round" />
</g>
		<g transform="matrix(1 0 0 1 0 -230.6805)" id="RQKRlTNoHvvfCJYi5SGdV"  >
<path style="stroke: none; stroke-width: 1; stroke-dasharray: none; stroke-linecap: butt; stroke-dashoffset: 0; stroke-linejoin: miter; stroke-miterlimit: 4; fill: rgb(77,77,77); fill-rule: nonzero; opacity: 1;" vector-effect="non-scaling-stroke"  transform=" translate(-256, -25.3195)" d="M 307.003 26.415 C 291.806 14.562 274.33 5.492 256 0.001 C 237.67000000000002 5.493 220.19400000000002 14.562 204.997 26.416 C 223.06500000000003 31.917 240.19400000000002 40.038 256 50.638000000000005 C 271.806 40.037 288.934 31.916 307.003 26.415 z" stroke-linecap="round" />
</g>
</g>
</g>
</svg>