<?xml version="1.0" encoding="UTF-8"?><svg xmlns="http://www.w3.org/2000/svg" viewBox="0 0 1000 1000"><defs><style>.cls-1{fill:#b0d1be;}.cls-2{fill:#426148;}.cls-3{fill:#00182b;}.cls-4{fill:#37523c;}.cls-5{fill:#6d7740;}.cls-6{fill:#001429;}.cls-7{fill:#0a212b;}.cls-8{fill:#504237;}.cls-9{opacity:.2;}.cls-10{fill:#a6b281;}.cls-11{fill:#324818;}.cls-12{fill:#1d2c2e;}.cls-13{fill:#516374;}.cls-14{fill:#4b6643;}.cls-15{fill:#7ca28c;}.cls-16{fill:#6c886a;}</style></defs><g id="_レイヤー_1"><path class="cls-9" d="m763.58,681.27c6.64,19.31,6.45,40.28,5.89,60.46-.5,10.36-2.2,20.82-4.32,30.96-2.48,11.88-5.93,23.86-12.3,34.28-8.53,13.36-21.69,23.28-35.43,30.85-9.28,4.91-19.43,8.07-29.46,11.06-16.79,4.89-33.89,8.87-51.08,12.06-6.5,1.17-13.1,2.15-19.7,2.46-9.4.5-18.83.25-28.24.36-8.75-.03-17.57.55-26.28-.5-9.95-1.3-19.68-3.91-29.44-6.19-4.47-1-8.95-2.07-13.3-3.51-3.13-1.01-6.21-2.23-9.4-3.06-5.51-1.57-11.07-2.95-16.52-4.72-11.04-3.83-22-8.04-32.23-13.72-9.97-5.92-18.78-13.65-26.62-22.15-2.13-2.25-4.28-4.52-6.28-6.89-2.04-2.43-3.99-4.95-6.05-7.37-2.91-3.49-5.51-7.22-8.35-10.77-2.64-3.17-5.56-6.11-7.97-9.47-2.6-3.51-4.78-7.32-6.9-11.13-2.92-5.23-5.78-10.57-8.09-16.1-5.27-13.12-8.55-26.98-12.37-40.57,6.98-4.76,31.5-24.38,39.13-26.51,22.07-9.68,44.12-19.86,66.26-29.39,19.23-8.42,38.78-17.09,59.02-22.84,19.66-5.64,40.26-8.82,60.49-11.63,29.06-4.18,59.44-5.98,88.09,1.69,17.14,5.1,33.94,13.26,47.2,25.4,10.66,10.23,19.05,23.13,24.25,36.95Z"/></g><g id="_レイヤー_5"><path class="cls-8" d="m818.2,382.34c2.01,6.25,4.02,12.49,6.16,18.7,1.6,4.87,3.47,9.67,4.75,14.64,1.66,7.66,2.14,15.53,3.47,23.25,1.67,12.16,2.66,24.42,2.48,36.7.05,5.96.23,11.92.19,17.88-.04,2.77,0,5.57-.3,8.33-.52,3.46-1.94,6.76-3.64,9.8,1.62,7.7.68,15.63-.79,23.27-.92,4.68-1.93,9.39-3.57,13.88-1.44,3.92-3.41,7.6-5.35,11.28-1.88,3.67-4.05,7.2-5.88,10.9-1.37,2.89-2.66,5.81-4.15,8.64-2.41,4.59-5.04,9.07-7.77,13.47-4.13,6.34-8.5,12.54-13.07,18.58-3.09,4.15-5.94,8.48-9,12.66-2.66,3.49-5.47,6.86-8.28,10.24-2.41,2.85-5.05,5.51-7.59,8.24-8.94,9.75-18.62,18.86-29.15,26.86-5.14,3.81-10.44,7.42-15.98,10.63-1.97,1.16-3.94,2.33-5.97,3.38-1.57.82-3.19,1.53-4.74,2.38-3.32,1.83-6.48,3.94-9.89,5.62-2.62,1.32-5.41,2.24-8.07,3.46-3.08,1.33-6.05,2.91-9.18,4.1-3.08,1.17-6.28,1.98-9.43,2.93-5.89,1.82-11.87,3.43-17.58,5.79-3.83,1.44-7.51,3.28-11.36,4.65-3.07.99-6.22,1.68-9.41,2.15-1.84.29-3.68.59-5.47,1.13-2.76.82-5.43,1.95-8.11,3.01-4.47,1.82-9.04,3.43-13.7,4.7-3.78,1.05-7.63,1.83-11.45,2.72-2.5.62-4.95,1.44-7.48,1.93-2.44.53-4.94.7-7.4,1.11-2.39.4-4.73,1.07-7.09,1.61-6.07,1.32-12.32,1.55-18.51,1.75-1.87.09-3.73.37-5.6.34-3.59-.04-7.15-.62-10.74-.59-3.64.22-7.21,1.09-10.84,1.42-1.67.18-3.36.24-5.02.46-1.97.29-3.92.7-5.91.84-2.46.2-4.93-.21-7.4.07-6.94.77-11.83-1.28-17.72-4.87-3.69.02-7.44-.14-11.13,0-3.87.15-7.82.18-11.59-.81-2.49-.6-4.8-1.77-7.2-2.64-2.83-1.07-5.71-2.04-8.59-2.97-1.36-.4-2.76-.68-4.12-1.04-2.3-.58-4.6-1.18-6.85-1.92-.26.01-.56-.3-.81-.18-.88.09-2.12.31-3,.36-5.31.46-10.78.17-15.95-1.2-3.02-.84-5.95-2.02-8.95-2.9-2.32-.81-4.7-1.47-7.01-2.32-1.72-.65-3.38-1.49-4.99-2.37-2.87-1.62-5.8-3.14-8.71-4.69-2.78-1.58-5.6-3.22-7.79-5.59-2.26-2.57-3.98-5.83-4.14-9.3-.04-1.61.35-3.2.73-4.75.54-2.24,1.24-4.45,1.87-6.67,1.02-3.5,1.7-7.11,2.94-10.54,1.16-3.26,2.6-6.45,3.98-9.62,1.46-3.25,2.83-6.59,4.58-9.7,2.2-3.82,5.12-7.18,7.84-10.62,4.88-6.31,10.45-12.06,16.12-17.66,4.13-4.26,8.35-8.57,13.06-12.2,2.56-2.03,5.4-4.02,8.06-5.91.48-.77,1.39-2.17,1.89-2.93,4.82-7.19,9.91-14.49,16.28-20.41,3.75-3.29,8.06-6,12.27-8.65,6.15-3.78,12.65-7.3,19.25-10.24,6.46-2.91,13.52-5.08,20.68-4.67.44.15,1.73,0,2.18.15.88-.49,2.63-1.52,3.5-2.03,3.02-1.78,6.34-3.88,9.23-5.86,6.29-4.28,12.25-9.3,18.72-13.32,5.31-3.39,11.1-6.21,16.32-9.73,7.47-4.78,13.06-11.78,19.04-18.19,6.57-6.84,13.47-13.48,19.18-21.08,4.05-5.41,7.28-11.42,10.41-17.39,4.05-7.77,8.41-15.44,11.66-23.59,3.32-8.05,5.38-16.59,7.62-24.99,1.89-7.57,4.3-15.06,6.58-22.52,1.81-6.09,3.42-12.34,5.28-18.41,3.69-11.12,6.23-22.6,9.37-33.89,1.89-6.95,5.14-13.47,9-19.53,5.47-9.16,12.51-17.28,19.31-25.46l8.24,6.42c4.18-5.99,9.24-11.39,14.79-16.13,3.07-2.61,6.36-5.07,10.15-6.51,2.57-1.02,5.35-1.65,8.12-1.3,6.23.91,12.31,3.21,17.53,6.73,3.46,2.41,6.31,5.59,9.91,7.81,3.2,1.97,6,4.48,8.95,6.77,2.58,1.95,5,4.11,7.45,6.21,1.73,1.47,3.61,2.76,5.27,4.31,2.42,2.14,4.54,4.61,6.31,7.3,1.91,2.83,3.57,5.82,5.53,8.61,1.67,2.35,3.6,4.5,5.48,6.68,1.38,1.61,2.76,3.23,4.28,4.71,2,1.93,4.12,3.76,6.02,5.8,2.96,3.14,5.31,6.8,8.33,9.89,2.25,2.45,4.69,4.76,6.54,7.54,1.48,2.24,2.51,4.74,3.53,7.21,1.08,2.61,2.1,5.25,3.02,7.92Z"/><path class="cls-13" d="m645.26,726.79c-9.94,3.44-19.99,6.58-30.14,9.36-5.1,1.36-10.22,2.83-15.47,3.5-4.3.56-8.67.46-12.95-.22-.88-.12-1.79-.26-2.67-.41-1.03.29-2.1.59-3.13.88-2.49.69-5.01,1.3-7.52,1.91-7.88,2.06-15.83,4.04-23.97,4.7-4.66.54-9.35.04-14.02.36-4.88.06-9.71.87-14.56,1.29-4.26.44-8.55.32-12.81.09-6.44-.34-12.92.04-19.34-.7-4.24-.49-8.42-1.49-12.61-2.25-4.87-.96-9.77-1.77-14.64-2.73-4.12-.76-8.23-1.64-12.27-2.76-3.62-.94-7.31-1.67-11.01-2.29-4.93-.78-9.87-1.53-14.74-2.62-4.27-1.01-8.47-2.35-12.7-3.52-3.62-1.04-7.31-1.9-10.92-3.01-4.53-1.38-8.98-3.05-13.35-4.87-3.51-1.51-7.14-2.73-10.84-3.69-2.68-.71-5.43-1.22-8.04-2.17-3.94-1.39-7.73-3.22-11.39-5.25-2.69-1.52-5.3-3.19-8.03-4.64-3.88-2.04-7.93-3.78-11.95-5.52-3.61-1.54-7.3-2.93-10.78-4.74-7.66-4.08-14.39-9.72-21.99-13.95-8.11-4.48-16.33-8.81-23.94-14.12-2.98-1.97-5.99-3.98-9.03-5.86-4.46-2.25-6.37-7.31-9.07-11.28-6.78-.53-11.18-7.96-16.98-11.11-5.78-4.62-11.98-8.84-17.31-13.98-2.58-2.46-5.26-4.85-7.76-7.39-9.03-8.75-14.32-20.52-20.81-31.15-.73-.28-1.46-.58-2.17-.91-1.47-3.14-3.04-6.26-4.11-9.57-1.87-6-2.68-12.28-3.23-18.52,1.06.47,12.45,7.45,13.29,6.99,4.53,1.33,8.8,3.61,13.01,5.73,10.14,5.65,19.74,12.43,29.04,19.37,7.51,5.73,13.89,12.89,19.79,20.21,8.38,10.53,18.7,19.41,28.93,28.08,8.29,7.03,16.49,14.35,25.32,20.7,7.9,5.66,16.76,10.04,25.64,13.93,12.42,5.45,25.43,9.92,38.49,13.56-.46,1.87-.89,3.82-.56,5.76.53,3.31,2.31,6.39,4.67,8.74,3.52,3.34,8.02,5.33,12.23,7.62,2.51,1.37,4.98,2.84,7.6,3.97,2.47,1.03,5.09,1.69,7.61,2.59,2.97.89,5.88,1.99,8.84,2.9,6.37,1.77,13.16,1.91,19.67.96,4.03,1.41,8.24,2.19,12.32,3.4,4.15,1.34,8.24,2.83,12.27,4.49,4.55,1.82,9.55,1.91,14.38,1.7,3.69-.13,7.44.03,11.13,0,6,3.64,10.79,5.66,17.89,4.86,2.53-.27,5.08.18,7.61-.09,1.98-.17,3.93-.6,5.9-.86,2.15-.24,4.32-.33,6.46-.63,2.83-.31,5.62-.96,8.47-1.17,2.06-.14,4.13.14,6.19.26,2.05.15,4.11.37,6.16.29,2.03-.06,4.04-.37,6.07-.37,6.27-.21,12.6-.55,18.7-2.11,1.99-.51,3.99-1,6.02-1.31,2.19-.32,4.41-.51,6.58-.97,2.21-.43,4.37-1.07,6.53-1.68,1.71-.44,3.45-.82,5.17-1.2,5.3-1.16,10.56-2.57,15.66-4.42,4.42-1.56,8.68-3.56,13.15-4.99,3.61-1.15,7.43-1.31,11.09-2.24,2-.49,4.01-1.03,5.92-1.79,4.78-1.09,9.55-2.33,14.24-3.77,4.54-1.44,9.02-3.09,13.41-4.96,2.53-1.05,5.07-2.11,7.47-3.46,4.56-1.57,8.78-3.97,13.26-5.75,1.98-.81,4-1.55,5.89-2.56,3.02-1.52,5.87-3.35,8.79-5.03,2.51-1.4,5.17-2.51,7.65-3.96,3.05-1.73,6.06-3.55,9.05-5.38,3.31-2.12,6.52-4.41,9.71-6.71,8.91-6.59,17.09-14.12,24.89-21.98,4.07-4.37,8.23-8.66,12.21-13.11,1.02-1.11,1.86-2.42,3.1-3.3,2.21-1.81,4.36-3.69,6.42-5.66,2.52-2.47,4.94-5.07,7.03-7.92,1.77-2.38,3.22-4.98,4.76-7.51,3.4-5.64,7.46-10.85,10.94-16.43,3.86-5.86,6.66-12.34,9.26-18.84l3.24-1.26c1.94-2.85,4.06-5.62,6.09-8.4,1.71-2.19,3.29-4.49,4.37-7.05,2.15-4.58,3.48-9.47,5.09-14.25,2.1-6.23,4.54-12.38,6.45-18.68,2.98-9.29,4.81-18.88,6.56-28.46,1.28-6.52,3.13-12.94,3.94-19.54.93-6.78,1.55-13.63,1.49-20.47-.09-4.67-.18-9.36-.51-14.03-.49-6.11-1.13-12.22-1.86-18.3-.99-6.96-1.8-13.95-2.91-20.89-1.15-6.62-2.66-13.18-4.25-19.7-2.4-9.77-4.21-19.69-7.08-29.34-4.36-13.98-10.44-27.47-18.13-39.94-4.13-6.68-7.94-13.55-11.83-20.38-4.73-8.51-9.42-17.08-15.33-24.84-3.26-4.25-7.1-8.03-10.99-11.7-4.02-3.59-8.1-7.14-12.15-10.7-3.3-2.83-6.7-5.55-9.95-8.44-5.07-4.48-9.57-9.57-14.71-13.97-5.24-4.46-10.75-8.6-16.33-12.63-5.3-3.6-10.68-7.09-15.95-10.73-8.58-6.09-18.08-10.62-27.47-15.28-5.51-2.76-10.63-6.25-16.14-9.01-5.62-2.89-11.77-4.53-17.56-7.04-4.44-1.94-8.76-4.14-12.99-6.48-2.22-1.23-4.48-2.39-6.62-3.76-7.97-5.05-17.09-7.74-21.98-16.54,5.11,1.79,10.17,3.55,15.09,5.93,1.61-1.3,3.61-.67,5.43-.29,9.35-.17,17.91,2.97,26.01,7.61,25.04,8.75,48.6,21.4,70.16,37.01,7.83,6.33,15.21,13.08,24.26,17.67,10.1,7.72,19.13,15.86,28.76,23.86,21.01,21.81,38.14,46.89,54.89,71.95,16.36,36.51,31.18,74.84,34.3,115,1.29,11.88-2.08,23.52-2.81,35.28-.2,12.68,1.33,24.96-.76,37.49-2.54,18.3-11.24,35.05-16.6,52.58-13.54,30.01-32.31,56.97-49.92,84.57l-.33.02c-4.94,5.2-10.47,9.83-15.67,14.77-6.98,6.71-14.14,13.27-21.93,19.03-5.54,4.11-11.31,7.91-17.17,11.54-5.54,3.59-11.2,7-16.68,10.66-6.15,4.05-12.76,7.33-19.23,10.83-5.17,2.94-10.25,6.07-15.52,8.83-3.52,1.94-7.2,3.61-10.84,5.32-4.17,1.92-8.35,3.86-12.6,5.6-3.67,1.55-7.45,2.89-11.19,4.25-3.07,1.14-6.11,2.38-9.21,3.45Z"/><path class="cls-6" d="m833.81,351.69c3.67,11.07,5.61,22.59,8.44,33.88,1.47,6.1,2.88,12.23,3.96,18.42.88,5.12,1.43,10.29,2.17,15.43,1.06,7.2,1.8,14.46,2.46,21.71.5,5.59.61,11.22.7,16.83,0,11.55-1.54,23.08-4.3,34.29-1.56,6.65-2.51,13.43-4.05,20.08-2.45,11.93-7.03,23.26-10.9,34.78-1.54,4.95-3.14,9.94-5.62,14.51-2.72,4.39-6.26,8.45-9.13,12.79l-3.24,1.26c-1.76,4.29-3.52,8.63-5.68,12.74-1.78,3.34-3.83,6.55-5.92,9.7-.35-.43-.84-1.18-1.12-1.65,3.8-5.67,7.24-11.6,10.4-17.65,1.82-3.49,3.26-7.16,5.18-10.6,1.87-3.39,3.76-6.77,5.53-10.21,1.97-3.7,3.8-7.5,5.05-11.5,1.31-4.21,2.22-8.53,3.03-12.86,1.32-7.24,2.09-14.73.55-22,1.7-3.04,3.13-6.34,3.64-9.8.31-2.76.26-5.56.3-8.33.03-5.96-.14-11.92-.19-17.88.17-12.09-.79-24.16-2.4-36.13-.72-4.48-1.29-8.99-1.87-13.49-.47-3.52-.89-7.06-1.72-10.52-.76-3.01-1.81-5.95-2.81-8.89-1.17-3.41-2.33-6.83-3.49-10.25-2-5.74-3.63-11.61-5.76-17.3-1.83-4.52-3.34-9.31-6.35-13.22-2.02-2.62-4.45-4.89-6.65-7.35-2.65-2.95-4.85-6.28-7.63-9.12-1.98-2.08-4.19-3.94-6.22-5.97-2.12-2.18-4.04-4.56-6.05-6.85-3.61-3.99-6.08-8.81-9.11-13.23-1.58-2.31-3.43-4.45-5.52-6.32-2.03-1.93-4.37-3.5-6.47-5.35-1.53-1.31-3.03-2.67-4.61-3.92-1.65-1.32-3.35-2.58-4.96-3.96-1.33-1.09-2.71-2.14-4.11-3.14-1.48-1.02-3.03-1.95-4.46-3.05-2.78-2.2-5.29-4.74-8.29-6.66-3.57-2.18-7.42-3.91-11.47-4.98-2.09-.55-4.22-1.1-6.39-1.15-3.74-.05-7.36,1.41-10.57,3.24-2.12-3.38-4.6-6.52-7.19-9.55-2.4-2.81-4.71-5.74-7.06-8.6-11.54-13.74-22.44-28.06-31.96-43.29-4.67-7.27-9.48-14.53-14.98-21.2-4.42-5.42-8.84-11.03-11.45-17.59-3.2-8.5-5.85-17.43-5.41-26.61,5.88,3.34,11.83,6.59,18.02,9.31,5.11,2.28,10.55,3.76,15.63,6.12,5.28,2.34,10.07,5.61,15.14,8.35,6.08,3.34,12.45,6.13,18.53,9.49,5.39,2.9,10.47,6.31,15.49,9.79,4.26,2.93,8.63,5.71,12.89,8.65,6.08,4.41,12.11,8.93,17.74,13.9,5.22,4.78,9.99,10.05,15.43,14.59,4.74,3.94,9.44,7.93,14.03,12.05,6.36,5.49,12.66,11.2,17.64,18.01,4.75,6.47,8.76,13.44,12.63,20.46,2.63,4.74,5.34,9.44,8.02,14.15,3.53,6.26,7.54,12.25,10.88,18.62,4.63,8.66,8.44,17.75,11.64,27.02Z"/><path class="cls-3" d="m768.35,657.7c-2.31,10.33-7.77,15.83-13.5,24.16-1.82,2.63-3.72,5.21-5.67,7.74-1.88,2.55-3.81,5.08-6,7.36-2.28,2.4-4.69,4.67-6.87,7.17-2.65,2.98-4.92,6.29-7.46,9.36-1.97,2.45-3.93,4.94-5.92,7.38-1.47,1.81-2.98,3.62-4.22,5.6-1.29,1.99-2.31,4.14-3.38,6.26-1.16,2.27-2.39,4.51-3.6,6.75-2.22,4.01-4.41,8.04-6.88,11.9-3.01,4.66-6.35,9.13-10.06,13.27-4.16,4.52-9.05,8.29-13.6,12.41-3.05,2.71-5.92,5.64-9.21,8.07-4.48,3.4-9.51,5.98-14.38,8.77-5.53,2.98-10.99,6.09-16.35,9.35-4.76,2.79-9.34,5.89-14.22,8.48-4.6,2.22-9.55,3.66-14.35,5.4-2.7.91-5.34,2-8.08,2.77-2.55.68-5.18,1.03-7.76,1.62-3.15.64-6.34,1.18-9.56,1.27-.97.02-1.97,0-2.94-.1-.68-.07-1.42-.12-2-.51-1.89-1.44,5.17-5.41,6.2-6.19,2.96-1.93,5.73-4.19,8.6-6.25,2.98-2.12,6.11-4.11,9.03-6.31,6.39-4.81,11.29-11.28,16.96-16.87,3.74-3.85,7.64-7.6,11.18-11.63,2.35-2.68,4.38-5.64,6.71-8.34,4.84-5.48,9.94-10.8,13.85-17.02,4.58-6.88,8.16-14.36,12.04-21.64,1.88-3.44,3.96-6.79,6.25-9.98.57-.79,1.18-1.59,1.79-2.36.3-.29.52-.8.9-.97.8-.37,1.61-.74,2.41-1.11,4.8-2.2,9.55-4.52,14.15-7.13,4.03-2.17,7.91-4.6,11.89-6.85,5.24-2.85,10.59-5.54,15.72-8.6,3.38-2.02,6.61-4.3,9.96-6.39,5.81-3.57,11.51-7.32,17.29-10.93,7.35-4.85,14.47-10.07,21.08-15.89Z"/><path class="cls-12" d="m474.83,775.52c1.36,3.91,2.32,8,3.34,12.01,1.18,4.3,1.99,8.72,2.88,13.09.82,4.12,2.51,8.33,1.79,12.57-.33,1.44-.99,2.85-2.71,2.76-1.76.06-3.47-.44-5.16-.84-2.52-.61-5.04-1.28-7.52-2.02-3.65-1.15-7.33-2.23-10.9-3.6-2.6-1.02-5.11-2.27-7.58-3.57-1.88-.97-3.74-2.05-5.72-2.81-1.82-.71-3.7-1.22-5.56-1.8-2.32-.7-4.59-1.62-6.88-2.4-2.93-.99-5.92-1.88-8.74-3.16-3.36-1.51-6.65-3.24-9.72-5.28-3.73-2.64-7.45-5.33-11.31-7.78-2.53-1.76-4.97-3.66-7.46-5.49-2.55-1.98-4.92-4.2-7.24-6.44-3.6-3.47-7.35-6.83-10.62-10.62-4.31-5.02-8.12-10.46-12.5-15.43-5.34-5.92-9.78-12.57-14.62-18.89-1.74-2.28-3.48-4.6-5.47-6.68-1.65-1.72-3.49-3.26-5.23-4.88-2.33-2.19-4.96-4.05-7.24-6.29-3.86-3.84-7.2-8.26-9.8-13.04,4.43,2.87,9.33,4.88,14.2,6.88,3.22,1.31,6.38,2.79,9.55,4.22,4.01,1.83,7.74,4.21,11.55,6.4,3.57,1.99,7.27,3.77,11.11,5.15,2.28.84,4.67,1.37,7.03,1.94,2.23.55,4.44,1.19,6.62,1.9,3.79,1.27,7.42,2.98,11.17,4.36,4.9,1.84,9.92,3.36,14.99,4.63,6.53,1.69,12.94,3.94,19.58,5.2,4.7.94,9.47,1.56,14.18,2.42,4.19.74,8.32,1.81,12.43,2.88,4.26,5.64,8.65,11.3,12.65,17.13,3.57,5.47,6.66,11.36,8.9,17.5Z"/><path class="cls-7" d="m675.69,714.67c-9.03,10.84-13.56,24.52-21.58,36.03-3.85,5.94-8.86,11-13.48,16.33-2.16,2.57-4.1,5.35-6.32,7.88-3.54,4.04-7.44,7.78-11.18,11.63-4.59,4.58-8.77,9.64-13.53,14.04-3.62,3.29-7.84,5.88-11.82,8.68-2.94,2.05-5.74,4.37-8.72,6.35-1.25.98-9.22,5.36-6.45,6.7.95.41,2.04.37,3.06.44,2.14.09,4.29-.13,6.41-.42,2.41-.33,4.81-.85,7.19-1.35,1.63-.32,3.27-.58,4.88-1,3.69-1.02,7.23-2.51,10.87-3.7,3.99-1.44,8.09-2.68,11.91-4.53,2.88-1.47,5.6-3.24,8.36-4.92,4.58-2.79,9.17-5.56,13.81-8.25-1.47,1.7-3.05,3.36-4.84,4.73-1.81,1.41-3.82,2.58-5.78,3.77-2.82,1.76-5.75,3.37-8.67,4.95-1.61.92-3.18,1.94-4.82,2.8-3.1,1.62-6.62,2.1-9.95,3.04-2.93.77-5.82,1.75-8.74,2.54-2.16.6-4.36,1.06-6.53,1.64-1.57.39-3.17.7-4.72,1.18-2.52.77-4.97,1.77-7.4,2.78-4.44,1.83-8.85,3.96-13.62,4.75-3.21.62-6.49.6-9.74.75-3.33.2-6.69.46-10-.09-4.78-.74-9.38-2.32-14.12-3.23-2.61-.42-5.27-.42-7.89-.73-4.31-.38-8.63-.5-12.95-.82-2.63-.22-5.3-.22-7.92-.58-3.25-.53-6.39-1.57-9.57-2.4-2.75-.76-5.55-1.52-8.43-1.57-4.91,0-9.99-.53-14.28-3.09-1.71-.97-3.07-2.44-4.35-3.92,2,.46,4.04,1.12,6.11.8,1.94-.51,2.13-3.28,2.14-4.95-.22-4.27-1.71-8.37-2.45-12.55-.76-4.43-1.88-8.82-3-13.17-1.29-5.23-2.75-10.49-5.1-15.35-4.76-10.64-12.26-19.69-19.21-28.94,6.92,1.61,13.95,2.71,20.92,4.07,5.5.97,10.96,2.37,16.55,2.81,4.76.41,9.55.21,14.31.4,3.32.07,6.65.33,9.98.31,3.9-.06,7.8-.45,11.66-.95,4.33-.57,8.72-.7,13.09-.8,2.29,0,4.58.12,6.87-.01,6.12-.36,12.19-1.38,18.17-2.76,4.51-1.1,9-2.29,13.51-3.39,1.8-.47,3.62-.97,5.41-1.48.25-.13.61-.02.87.02.55.09,1.18.19,1.73.26,5.08.83,10.28.85,15.35-.03,7.41-1.33,14.64-3.57,21.87-5.61,10.44-3.03,20.78-6.46,30.91-10.4,7.21-2.53,14.3-5.43,21.22-8.67Z"/></g><g id="_レイヤー_4"><path class="cls-16" d="m725.91,267.72c1.94,8.76-1.28,17.28-1.62,26.02-.01,12.37,5.86,23.63,2.7,36.09,8.7,20.53,13.04,42.81,13.75,65.08.22,8.62,2.68,29.94-2.44,36.33,11.41,19.93,13.75,47.48,8.76,69.7,12.3,12.65,12.38,33.34,8.91,49.69-1.43,6.47-4.82,12.37-5.76,18.97-.27,10.51-9.52,16.27-16.01,23.11-18.27,24.73-39.36,50.97-70.31,59.42-16.84,3.31-36.3,9.67-52.17.24-15.2,25.86-46.12,33.75-69.4,49.9-1.56,3.01-.3,8.32-3.98,9.58-2.28.86-4.3-.65-6.24-1.65-11.37-5.94-23.06,7.2-35.26,2.88-17.77,2.29-34.69-2.25-51.54-7.22-12.1-1.84-21.06-9.65-29.03-18.44-6.67,8.79-16.96,13.1-27.42,15.4.92.48,1.83.97,2.75,1.47-1.95.56-3.76,1.45-5.4,2.61-7.16-1.31-14.3-1.6-21.56-1.29.35,0,.69,0,1.04-.02-8.77-1.16-17.27-4.76-26.35-2.88-6.54-4.68-15.58-7.3-23.11-3.64-.25-.34-.49-.69-.71-1.04-4-.18-8.63,4.55-12.04.9-1.61-2.02-.17-4.85-1.44-7.03-4.88-11.36-18.99-13.43-27.2-21.46-11.45-10.26-11.98-27.64-22.74-38.36.04-9.8-8.63-17.87-18.23-17.75-4.75-2.21-7.8-6.06-12.13-8.89.93-11.77-12.35-21.55-23.26-16.78-11.23-4.78-19.94-14-29.19-21.67-9.01-8.53-10.4-21.85-15.94-32.22-3.65-3.22-9.95-5.75-8.24-11.81,7.05-6.34,2.46-12.49.23-20.06-2.44-8.4-4.98-16.79-6.07-25.47-3.9-29.65-2.09-64.9,22.95-85.12-7.45-11.79-5.27-28.56,4.24-38.42-16.76-31.25-15.95-45.97-13.63-79.56-1.61-5.13-4.21-9.75,2.77-11.91,8.12-1.34,9.72-.88,14.74-8.07,5.24-8.12,12.8-15.29,19.68-21.87,16.36-14.36,41.74-28.97,64.1-24.79,4.46-13.77,11.49-26.84,20.11-38.43,5.01-8.05,14.67-12.52,18.39-21.33,1.36-6.77,1.95-14.9,9.23-18,.38-3.6,5.7-4.09,6.73-.6.17,1.78,2.1,2.5,3.67,2.66,11.79-10.54,27.87-16.68,42.68-22,13.94-2.5,27.6-2.27,42.09-3.96,17.14-2.59,35.93-4.04,50.68,6.52,10.87-3.39,22.36-4.1,33.7-3.1,6.93.69,13.96,4.71,20.9,2.29,9.01-13.5,13.49-12.45,18.89,2.59,19.96-2.3,36.54,11.47,54.18,18.57,15.58,5.4,31.46,10.05,46.51,16.87.9-.75,2.07-.89,3.16-.73,2.06,4.84,5.44,9.14,8.97,13.08-.03-.03-.06-.06-.09-.1,2.24,3.46,4.23,7.06,6.66,10.39-.24-.34-.48-.69-.72-1.03,1.5,2.27,3.17,4.58,4.22,7.13-.11-.29-.22-.59-.33-.88.54,1.37,1.07,2.76,1.6,4.13-.26-.69-.51-1.38-.77-2.07.84,2.26,1.72,4.29,2.77,6.36-.06-.12-.13-.24-.19-.36,5.13,13.45,20.46,14.26,31.29,20.87,7.56,7.42,17.14,12.95,22.65,22.36,9.37,12.12,19.18,24.41,24.8,38.8Z"/><path class="cls-11" d="m466.67,340.44v.02s-11.8-.49-11.8-.49c-.21-.08-.49-.18-.7-.25-2.64-.91-5.14-2.26-7.28-4.06-1.79-1.49-3.61-2.98-5.15-4.73-2.21-2.83-3.88-6.05-6.16-8.84-1.42-1.74-3.42-3.74-5.87-3.15-2.1.52-3.89,1.86-5.68,3.03-1.76,1.21-3.51,2.44-5.24,3.7-1.17.86-2.29,1.83-3.53,2.6-2.23,1.41-4.95.48-7.3-.1-4.4-1.09-9.02-2.2-13.55-1.25-1.93.51-3.78,1.37-5.63,2.1-2.27.95-4.63,1.84-6.78,3.02-2.37,1.28-4.44,3.11-6.87,4.27l6.26,3.46c.61,1.03,1.24,2.11,1.62,3.25.32.97.58,1.98.92,2.95,1.11,3.09,2.25,6.2,3.79,9.11,1.01,1.86,2.08,3.85,3.87,5.06,2.5,1.65,5.47.47,7.45-1.43,2.27-1.96,4.25-4.28,5.65-6.94,2.64-4.46,3.42-9.84,6.66-13.95,1.79-2.61,8.87-7.68,8.8-1.34-.06,1.62-.39,3.38-1.53,4.6-.96.99-1.98,2.03-2.34,3.4-.24.86-.4,1.83-.08,2.69.74,1.66,2.21,2.85,3.24,4.31,1.12,1.6,2,3.62,1.5,5.6-.49,2.04-1.89,1.79-3.13.52-1.44-1.19-3.24-3.38-5.28-3.07-1.24.4-2.12,1.47-3.05,2.32-2.64,2.54-5.42,5.27-6.71,8.78-.68,2.18.74,3.78,2.38,4.99,2.59,1.99,5.86,2.9,9.05,3.36,5,.46,10.24.69,13.94-3.31.71-.74,1.39-1.52,2.09-2.27.59-.56,1.19-1.42,2.08-1.41,1.04.28.93,1.73,1.04,2.59.06,1,.12,2.03.19,3.03.16,3.71.84,7.4,1.06,11.11-.03,1.41.2,3.57-1.3,4.28-.83.28-1.73.1-2.57-.03-3.57-.8-7.06-1.92-10.58-2.92-3.42-1.04-6.82-2.16-10.31-2.93-2.85-.58-5.67-1.39-8.55-1.83-2.12-.32-4.31-.25-6.39-.79-2.28-.69-3.01-2.6-3.92-4.58-.9-1.96-1.85-3.92-3.16-5.64-2.32-2.94-4.93-5.75-8.12-7.77-1.64-1.04-3.36-2-5.17-2.71-1.73-.64-3.56-1-5.39-1.21-3.13-.31-6.3-.14-9.44-.04-3.03,0-6.49.6-9.14-1.2-1.91-1.48-1.86-4.26-1.18-6.37.99-3.61,3.81-6.25,6.45-8.73,3.66-3.25,7.65-6.16,11.39-9.32l6.78,3.74c1.67-3.48,4.01-6.68,6.67-9.48,1.85-1.92,3.81-3.83,6.16-5.11,1.81-.87,3.74-1.46,5.59-2.27,2.32-.93,4.61-2.02,7.06-2.55,1.52-.29,3.09-.39,4.63-.21,1.42.18,2.81.61,4.19.97,5.18,1.47,8.41,1.96,13.67.42,2.79-.65,5.46-1.84,8.31-2.22,1.92-.26,3.59.27,5.07,1.51,3.4,2.53,5.03,6.76,8.44,9.29,1.73,1.38,3.99,1.9,6.17,1.83,2.28.06,4.64-.66,6.86.12,4.22,1.77,7.73,8.48,9.85,12.43Z"/><path class="cls-2" d="m513.13,496.36l8.54,8.1h0s0,0,0,0h-.01s0,.01,0,.01h-.02s0,.01,0,.01h-.01s0,.01,0,.01c-1.39,0-2.77-.35-4.16-.48-2.36-.25-4.79-.12-7.1.44-2.41.64-4.38,2.52-5.45,4.74-.8,1.71-1.04,3.63-1.23,5.5-.34,3.12-.48,6.28-.52,9.42-.1,7.24-1.09,10.3-4.48,16.61-1.18,2.44-2.73,4.67-4.22,6.92-.73,1.1-1.22,2.33-1.85,3.48-.94,1.64-2.68,2.57-4.24,3.52-3.26,2.11-6.78,3.76-10.25,5.47-6.07,3.23-12.62,5.4-19.09,7.67-6.3,2.14-12.55,4.47-18.97,6.23-4.05,1.05-8.12,2.05-12.17,3.12-1.59.37-3.25.45-4.87.52-2.36.13-4.75,0-7.06-.57-1.5-.32-2.95-.85-4.36-1.46-1.3-.54-2.64-1.08-3.79-1.92-5.01-3.96-8.49-9.79-10.17-15.91-.27-1.13-.6-2.36-.29-3.51.51-1.32,1.52-2.46,2.69-3.24,2.29-1.42,5.07-1.63,7.58-2.5,1.75-.52,3.48-1.14,5.23-1.64,2.49-.62,5-1.18,7.44-1.97,3.82-1.36,7.52-3.06,11.12-4.91,2.65-1.51,5.12-3.34,7.56-5.17,3.93-2.96,7.41-6.48,10.73-10.11,1.72-1.98,3.36-4.04,5.2-5.93,1.73-1.87,3.53-3.69,5.22-5.61,1.08-1.27,2.05-2.65,3.11-3.93,1.59-1.96,3.29-3.9,4.37-6.2.85-1.77,1.15-3.73,1.36-5.67.3-2.58.5-5.17.76-7.75.23-2.55.58-5.11.45-7.67-.08-1.55-.3-3.24-1.54-4.31-4.6-4.25-10.68-1.53-15.65.49-4.86,1.8-9.68,4.04-14.88,4.57-2.13.18-4.38.23-6.38-.65-1.58-.66-3.28-1.56-4.01-3.19-.45-1.48-.32-3.34.98-4.36,1.34-1.09,3.17-1.18,4.82-1.33,2.04-.18,4.07-.55,6.04-1.07,5.22-1.38,10.32-3.19,15.34-5.17,3.65-1.3,7.31-2.61,10.68-4.54,3.34-1.71,6.42-3.94,9.89-5.37,2.53-1,5.2-1.56,7.81-2.33,1.94-.56,3.77-1.44,5.67-2.14.53-.22,1.12-.26,1.68-.36.86-.14,1.74-.32,2.59-.49.69-.13,1.41-.28,2.11-.18.19.04.39.08.54.22.15.17.25.4.32.61.48,2.26.54,4.6.78,6.89.17,2.31.48,4.6.82,6.89.42,3.19.91,6.38,1.8,9.48,1.42,4.84,3.58,9.5,6.54,13.6,2.04,2.64,4.47,4.96,7.01,7.11Z"/><path class="cls-2" d="m579.52,310.95l7.87,8.58c1.55,8.39-1.95,16.48-5.09,24.08-1.65,4.2-3.12,8.5-4,12.93-1.38,6.98-4.41,13.78-9.43,18.91-1.71,1.74-3.54,3.42-5.34,5.07-1.67,1.47-3.39,3.02-5.41,3.99-3.95,1.77-8.41,2.05-12.44,3.59-1.43.57-2.18,2.01-2.81,3.33-1.18,2.33-1.35,5-1.07,7.55.59,6.09,1.88,12.1,2.58,18.18.55,5.56.64,11.23-.02,16.79-.72,5.13-1.96,10.2-3.5,15.14-1.18,3.72-2.43,7.52-4.66,10.76-2.15,3.13-5.36,5.84-9.41,5.18-3.01-.36-6.03-.99-8.8-2.26-1.79-.8-3.66-1.59-5.26-2.74-1.12-.89-2.06-1.98-3.03-3.02-.49-.55-.92-1.16-1.39-1.73-.8-.96-1.55-2-1.92-3.21-.58-1.88-.6-3.87-1.03-5.79-.61-2.92-1.39-5.81-1.73-8.77-.79-6.8-.78-13.71.06-20.51,1.23-7.93,3.31-15.72,4.41-23.68.48-3.22.7-6.48,1.05-9.72.13-1.25.29-2.51.52-3.75.21-.96.41-2,1.03-2.79.93-1.25,2.08-.38,3.05.29.97.65,1.98,1.27,3.02,1.81,2.58,1.38,5.43,2.23,8.29,2.77,1.79.28,3.62.36,5.43.35,1.6-.06,3.25-.18,4.76-.76,2.44-.97,4.66-2.39,6.9-3.74,1.8-1.13,3.69-2.12,5.52-3.19,3.44-2.04,6.6-4.55,9.31-7.49,1.25-1.28,2.24-2.79,3.4-4.16,1.31-1.59,2.78-3.07,4.01-4.73,2.22-3.15,4.01-6.59,5.62-10.08,1.32-2.91,2.4-5.94,3.24-9.02.89-3.34,1.46-6.76,2.16-10.14,1.12-6.06,2.84-12.01,4.12-18.04Z"/><path class="cls-2" d="m523.59,342.11c1.91,5.58,2.95,12.59,1.29,18.33-.78,2.32-2.47,4.18-3.44,6.42-.68,1.42-1.1,2.99-1.1,4.57-.03,1.2.19,2.43-.08,3.62-.52,2.09-3.7,3.06-5.53,2.23-2.99-1.34-3.89-4.82-4.48-7.76-.58-2.92-.93-5.9-1.46-8.83-1.02-6.01-1.18-12.27-3.56-17.96-1.2-2.67-2.56-5.41-4.75-7.41-1.04-.91-2.15-1.79-3.43-2.32-.56-.25-1.19-.46-1.78-.64-.56.22-6.4-4.65-6.88-4.93-.12,1.36-.23,2.75-.69,4.05-.3.86-.52,1.77-.98,2.56-2.67,3.69-7.02,5.6-10.94,7.65-2.94,1.48-4.96,4.25-6.1,7.29-1.63,4.24-2.52,8.88-5.16,12.66-.89,1.15-1.93,2.34-3.31,2.88-1.74.53-3-.99-3.24-2.59-.52-3.63.91-7.28,2.28-10.58,1.29-2.68,3.34-4.89,5.09-7.26,2.92-3.87,5.93-7.71,8.38-11.89,1.64-2.89,2.74-6.03,3.44-9.27.44-1.86.84-3.76.9-5.68.1-1.9-.11-3.81-.42-5.68-.44-2.39-1.09-4.75-1.76-7.08-.8-2.8-1.76-5.64-3.47-8.03-1.42-1.89-3.13-3.59-4.87-5.18-.71-.4-8.53-8.74-9.32-9.52-.29-.66-.58-1.47-.84-2.13-1.53-4.37-3.48-9.23-1.84-13.83.63-1.6,1.46-3.22,2.67-4.46,1.02-.9,2.51-.92,3.79-.75,7.41,1.47,14.63,24.43,19.25,30.77,1.35,1.95,3.13,3.61,5.31,4.59,1.04.48,2.13.86,3.22,1.2,1.2.33,2.44.83,3.17,1.9,1.21,1.82,1.03,4.42.52,6.46-1.1,3.1-3.48,5.63-4.36,8.84-.95,3.01-.61,6.24-.61,9.35,2.82-.84,5.79-1.57,8.75-1.59,4.14.03,8.39.86,12.11,2.73,6.7,3.69,11.67,10.15,14.23,17.29Z"/><path class="cls-10" d="m464.51,293.12s.02.04.02.06h0c-2.48-2.07-5.11-4.01-7.95-5.59-1.53-.87-3.01-1.84-4.62-2.57-6.58-3.01-13.6-4.85-20.62-6.53-4-.87-7.9-2.14-11.87-3.14-2.73-.62-5.54-.82-8.25-1.53-.83-.18-1.69-.48-2.55-.34-.74.15-1.39.57-2.03.94-.82.48-1.65.98-2.47,1.46-2.07,1.3-4.31,2.34-6.45,3.52-3.5,2.1-7.01,4.27-10.73,5.97-2.57,1.25-5.19,2.48-7.58,4.06-3.59,2.47-7.14,5.06-10.39,7.97-3.45,3.29-7.28,6.33-9.89,10.37-2.52,3.93-2.56,9.98-1.85,14.47.24.58.88,12.46.92,13.44-6.75-3.02-13.51-7.03-13.43-15.35.42-4.59,2.01-9.04,3.89-13.23,1-2.05,2.7-3.7,4.54-5.01,1.32-.88,2.74-1.64,4.06-2.52,2.54-1.68,4.99-3.49,7.5-5.21,2.26-1.54,4.6-2.98,6.9-4.47,2.49-1.77,5.01-3.52,7.54-5.23-1.57-2.01-2.16-4.66-3.33-6.92-2.15-4.68-4.68-9.32-8.53-12.82-1.87-1.77-4.07-3.14-6.1-4.71-2.38-1.74-4.69-3.63-7.23-5.13-2.67-1.44-5.65-2.18-8.58-2.93-3.63-1.03-7.34-1.74-11.08-2.26-2.29-.27-4.53-.94-6.84-1.03-7.21-.09-14.04,2.57-20.77,4.86-2.6.91-5.08,2.16-7.59,3.28-2.99,1.32-6.07,2.54-8.83,4.31-4.35,2.75-8.74,5.51-12.58,8.97-2.74,2.29-5.73,4.34-8.2,6.94-1.7,1.82-3.13,3.91-4.63,5.89-1.54,2.07-3.19,4.11-4.67,6.23-1.35,1.96-2.47,4.1-3.77,6.09-1.55,2.38-3.35,4.63-5.08,6.88-1.46,1.82-2.66,3.87-4.22,5.62-1.41,1.38-3.06,2.56-4.86,3.37,1.78,1.92,3.64,3.79,5.13,5.96,1.02,1.4,1.9,2.89,2.77,4.38,1.26,2.04,2.48,4.12,3.55,6.26,1.99,3.93,3.94,7.9,5.6,11.99,1.66,4.05,2.91,8.26,4.59,12.31,2,4.64,3.83,9.36,5.72,14.04,1.81,4.39,3.86,8.67,5.99,12.91,1.94,3.97,4.49,7.61,6.92,11.29,2.39,3.45,5.07,6.71,7.48,10.14,2.13,2.96,4.54,5.73,6.89,8.51,1.05,1.19,2.09,2.4,3.3,3.43.5.39,1,.79,1.53,1.13.28.22.64.34.87.62v.02c-2.66-.68-4.8-2.65-7.29-3.74-3.65-1.63-7.62-2.55-11.13-4.5-2.35-1.47-4.34-3.51-6.19-5.56-1.89-2.31-3.36-4.93-4.92-7.47-2.31-3.68-3.94-7.7-5.79-11.61-4.68-9.41-9.08-18.99-12.58-28.91-.86-2.59-1.64-5.24-2.83-7.7-.94-1.83-1.99-3.61-2.93-5.45-.74-1.44-1.38-2.93-2.13-4.37-.65-1.27-1.35-2.53-2.09-3.75-.48-.77-.96-1.55-1.59-2.2-.85-.77-1.6-1.63-2.41-2.44-1.04-1.04-2.28-1.87-3.52-2.65-1.97-1.32-4.17-2.26-6.36-3.14-.81-.34-1.66-.65-2.41-1.1-.75-.49-1.43-1.12-1.99-1.82-.49-.66-1.14-1.32-1.23-2.17-.07-1.1.74-2.01,1.39-2.82,1.16-1.34,2.59-2.47,4.24-3.14,1.1-.44,2.18-.97,3.12-1.69,1.45-1.16,2.62-2.64,3.92-3.94,1.34-1.34,2.56-2.82,3.49-4.47,1.15-2.02,1.99-4.22,3.22-6.2,2.1-3.43,4.05-6.95,6.5-10.15,1.55-2.07,3.23-4.08,5.01-5.96,1.33-1.42,2.84-2.7,4.12-4.17,1.37-1.53,2.5-3.29,3.86-4.83,1.67-1.85,3.47-3.61,5.29-5.31,2.31-2.01,4.54-4.18,7.18-5.77,1.39-.83,2.88-1.53,4.29-2.32,1.57-.9,3.17-1.79,4.85-2.47,2.66-1.29,5.38-2.47,8.11-3.59,2.52-1.18,5.05-2.36,7.73-3.15,2.06-.69,4.2-1.13,6.31-1.62,2.17-.49,4.33-1.07,6.5-1.61,2.02-.46,4-1.14,6.04-1.49,2.29-.34,4.62-.26,6.92-.39,2.93-.2,5.89-.35,8.82-.04,1.02.07,2.01.33,3.02.5,1.62.25,3.24.5,4.86.79,1.51.27,3.04.5,4.51.93,1.65.53,3.28,1.18,4.95,1.67,3.45,1.18,6.96,2.27,10.16,4.03,2.27,1.11,4.03,2.92,5.36,5.05,1.69,2.53,2.95,5.3,4.29,8.02.89,1.73,1.72,3.5,2.62,5.23,1.37,2.49,2.54,5.1,3.53,7.76,1.04,2.73,1.83,5.65,1.75,8.59,1.56-1.24,3.29-2.26,4.91-3.41,1.89-1.41,3.67-3,5.33-4.66,2.05-2.17,3.67-4.7,5.33-7.17,2.44-3.56,4.45-7.4,6.15-11.37.23-.54.44-1.11.61-1.68.14-.4.21-.86.49-1.19.84-.84,2.38.55,3.08,1.09,3.01,2.6,5.21,5.99,8.04,8.76,2.12,2.35,4.66,4.48,7.83,5.18,2.82.71,5.72,1,8.56,1.6,2.49.48,4.91,1.28,7.29,2.14,1.68.62,3.34,1.31,4.92,2.15,1.48.79,2.88,1.73,4.36,2.52,3.02,1.74,5.9,3.8,8.49,6.14,3.06,2.91,5.74,6.26,7.87,9.91Z"/><path class="cls-10" d="m409.96,404.61c.42.81-1.33.45-1.7.44-.66-.07-1.32-.14-1.98-.2-3.06-.16-6.13-.33-9.17-.73-4.25-.5-8.45-1.41-12.56-2.58-2.87-.83-5.69-2.05-8.71-2.22-1.99-.14-3.98.06-5.97.12-1.61.05-3.19.33-4.79.45-1.55.13-3.11.12-4.65.31-1.34.12-2.64.49-3.97.64-1.02.14-1.32-.62-1.36-1.51-.04-.64-.05-1.28-.14-1.92-.28-1.69-.88-3.32-1.51-4.9-.57-1.4-1.14-2.82-1.85-4.15-1.32-2.47-2.8-4.88-3.75-7.53-3.06-8.77-3.6-18.17-4.29-27.36l2.54,4.82c.68,2.21,1.88,7.3,2.79,9.31,1.49,4.19,3.16,8.34,4.96,12.41,2,4.07,3.89,9.61,8,11.98,2.79,1.27,5.96.89,8.91,1.42,4.5.74,8.89,2.06,13.3,3.2,2.73.74,5.52,1.2,8.3,1.69,1.8.36,3.57.91,5.36,1.33,3.1.67,6.22,1.43,9.05,2.93,1.09.61,2.39,1.08,3.2,2.06Z"/><path class="cls-10" d="m459.49,465.2l.05.06c-1.71.67-3.45,1.27-5.17,1.9-1.95.76-3.9,1.55-5.88,2.22-4.17,1.38-8.37,2.85-12.72,3.56-1.89.31-3.84.29-5.68.8-1.46.06-2.94.03-4.4.05-2.66.1-5.33.17-7.99.16-2.67-.04-5.37-.25-7.89-1.21-1.44-.5-2.9-.95-4.25-1.67-4.13-2.25-7.43-5.84-9.86-9.82-1.72-2.93-2.49-6.3-3.4-9.54-1.94-8.1-1.95-16.66-.07-24.77.38-1.44,1.55-6.71,3.21-6.58.21,1.8,1.34,12.52,1.85,13.97.73,3.08,1.67,6.14,2.84,9.09,1.9,4.92,4.39,9.89,8.81,13,4.47,3.25,9.7,5.32,15.03,6.68,3.24.9,6.41,2.05,9.61,3.05,1.71.5,3.52.79,5.3.75,1.83-.05,3.64-.42,5.43-.78,3.53-.58,12.45-3.31,15.17-.91Z"/><path class="cls-10" d="m505.9,344.5c1.42,4.24,1.84,8.73,2.43,13.15.42,3.7,1.46,7.36,1.51,11.09-.03,3.51-.13,7.04-.2,10.56-.03,1.31-.37,2.61-.47,3.92-.48,4.78-.88,9.58-1.76,14.31-1.1,6.17-2.52,12.28-3.6,18.45-.53,3.71-.76,7.48-.79,11.23.07,3.74.17,7.51.72,11.22.36,2.66,1.07,5.25,1.61,7.87.56,2.45.4,5.14,1.74,7.35-.55.08-1.12,0-1.68.06-.95.05-1.91.17-2.86.11-2.1-.11-4.15-.61-6.25-.78-.16-1.22-.53-1.6-1.76-1.49-1.33.12-2.62.51-3.94.69-.6.15-1.21-.04-1.82-.07-.99-.1-1.99-.08-2.97.02-2.23.14-4.36.85-6.54,1.24-3.91.56-.02-2.39,1.25-3.05,3.69-1.94,7.42-3.83,10.8-6.3,2.27-1.62,4.8-3.49,5.34-6.4.4-2.19.02-4.43-.05-6.63-.31-3.78-.54-7.49-.34-11.28.24-4.27.4-8.57,1.15-12.78.53-2.84,1.04-5.72,1.67-8.54.67-2.86,1.36-5.75,1.82-8.66.54-3.19,1.28-6.36,1.49-9.59.42-4.42.31-8.87.18-13.31-.09-7.01-.96-14.02-2.5-20.86-1.09-4.61-2.76-9.08-4.37-13.53,1.33.15,4.17,2.5,5.24,3.25.28.29.56.61.82.92,1.82,2.34,3.16,5.05,4.14,7.84Z"/><path class="cls-10" d="m257.4,209.43c-9.15,2.77-20.52,5.54-28.7,10.43-3.62,2.2-7.19,4.53-10.68,6.92-2.59,1.85-5.06,3.93-7.53,5.93-2.5,1.98-4.73,4.29-7,6.53-2.15,2.11-4.45,4.14-6.65,6.2-5.65,5.32-10.81,11.13-16.17,16.73-3.43,3.78-7.64,7.05-10.03,11.64-.71,1.34-1.38,2.73-1.78,4.2-.51,2.17-.8,4.4-1.12,6.61-.45,3.72-1.27,7.4-1.59,11.14-.4,3.72-.43,7.48-.44,11.22,0,3.58-.15,7.22.38,10.78.89,5.61,2.98,10.95,4.91,16.27,3.65,9.92,8.69,19.24,13.34,28.71,1.83,3.86,4.12,7.52,5.86,11.43.27.73.69,1.5.61,2.3-.03.08-.11.25-.23.22-.1,0-.21-.07-.3-.11-.28-.17-.55-.38-.8-.59-1.04-.87-2-1.83-2.95-2.78-3.28-3.41-6.58-6.84-9.54-10.54-5.95-7.61-10.05-16.38-14.31-24.98-2.17-4.34-4.33-8.73-5.7-13.41-1.4-4.31-2.63-8.7-3.14-13.21-.62-4.62.33-9.22,1.24-13.74.51-2.34,1.27-4.62,1.75-6.97.32-1.61.45-3.25.45-4.88.07-2.37-.22-4.73-.76-7.03-.64-2.95-1.73-8.66.95-10.8,1.34-.75,2.87-1.12,4.27-1.78,1.24-.53,2.48-1.12,3.53-1.97,1.82-1.56,3.34-3.42,4.96-5.18,4.2-4.91,8.9-9.34,13.52-13.85,2.51-2.5,4.83-5.2,7.51-7.52,2.7-2.43,5.78-4.37,8.76-6.44,4.24-2.84,7.76-6.61,12.01-9.43,3.34-2.19,7.11-3.58,10.89-4.8,3.56-1.21,7.12-2.46,10.76-3.41,3.88-1,7.88-1.48,11.84-2.03,3.97-.49,7.95-1.14,11.9-1.79Z"/><path class="cls-10" d="m650.01,347.11c2.73,8.11,5.39,16.33,6.47,24.85.54,3.68.7,7.4.82,11.11.13,2.83.42,5.66.79,8.47.64,4.39,2.02,8.65,3.9,12.67,2,4.47,4.58,8.7,6.26,13.31.89,3.05,2.26,7.09.77,10.1-.89,1.46-2.48,2.32-3.87,3.23-2.32,1.33-4.57,2.81-6.59,4.58-1.89,1.88-3.69,3.85-5.6,5.72-2.44,2.35-4.63,4.97-6.7,7.65-1.36,1.85-2.82,3.64-4.16,5.5-1.66,2.25-3.3,4.52-5.2,6.58-.86.95-1.82,1.86-2.93,2.51-.3.17-.64.36-.98.44-.22.06-.48.09-.7,0-.21-.12-.24-.35-.17-.56.2-.64.65-1.17.99-1.74.63-1.01,1.24-2.04,1.79-3.09,1.19-2.26,2.14-4.64,3.14-6.99,1.32-2.95,2.6-5.92,4.06-8.8,1.5-2.67,3.22-5.22,5.08-7.65,2.21-2.84,5.03-5.39,6.11-8.94.44-1.46.14-3.05-.4-4.43-1.28-3.27-2.57-6.57-3.31-10.01-.97-3.87-1.27-7.85-1.68-11.8-.88-8.63-2.65-17.13-4.56-25.58-.78-3.28-1.52-6.6-2.49-9.83-1.4-4.47-3.02-8.9-4.78-13.24-1.49-3.65-3.27-7.18-5.09-10.67-1.18-2.13-2.49-4.2-3.7-6.31-3.68-6.61-7.22-13.88-13.95-17.89-4.03-2.64-8.89-3.34-13.43-4.71-2.3-.62-4.56-1.52-6.93-1.85-4.79-.66-8.02.26-12.24,2.56l-1.23-1.33c-1.11,5.01-2.35,10.03-3.58,15.01-1.13,3.31-2.28,6.64-3.13,10.04-.99,3.67-1.7,7.42-2.81,11.07-.59,2-1.25,4-2.33,5.8-1.02,1.83-2.06,3.66-3.29,5.37-.92,1.26-1.99,2.4-3.01,3.57-1.6,1.75-2.89,3.77-4.54,5.48-1.38,1.45-2.85,2.84-4.42,4.08-.2.18-.51.19-.77.26-.41.1-.82.22-1.23.31-.66.16-1.34.28-2.03.27-.45-.01-.94-.08-1.29-.4-1.24-1.32.95-3.81,1.75-4.94.95-1.27,1.88-2.57,2.68-3.94,2.12-3.58,3.81-7.41,5.65-11.13.9-1.83,1.98-3.59,2.95-5.39,1.27-2.39,2.44-4.85,3.57-7.31,2.85-6.71,4.01-14.05,4.7-21.27.49-5.46.64-10.94.47-16.41.05-3.99.12-7.99-.33-11.96-.31-3.19-.46-6.43-1.04-9.59-1.03-5.57-2.61-11.02-4.08-16.48-.95-3.76-1.54-7.6-2.25-11.41-.67-3.42-1.56-6.81-1.99-10.28-.18-1.19-.35-2.39-.51-3.58-.16-1.24-.6-2.74-2.14-2.7-5.88.44-11.83-1.18-16.82-4.29-2.43-1.43-4.53-3.34-6.8-5.01-2.42-1.8-5-3.36-7.62-4.87-1.42-.83-2.8-1.76-4.29-2.45-3.08-1.45-6.33-2.54-9.37-4.07-1.78-.9-3.54-1.83-5.29-2.78-1.72-.91-3.47-1.82-5.36-2.33-1.98-.56-4.05-.6-6.08-.9-3.24-.52-6.42-1.52-9.73-1.5-2.45-.06-4.85.63-7.29.77-1.89.21-3.8.19-5.7.37-1.72.19-3.41.61-5.07,1.11-2.4.8-4.65,2.01-6.89,3.17-2.69,1.33-5.39,2.72-7.69,4.68-1.23,1.04-2.06,2.45-2.81,3.86-1.1,2.03-2.14,4.11-3.2,6.16-1.52,2.98-2.86,6.07-4.09,9.19-1.11,2.91-2.27,5.89-2.55,9.01l-.97-3.95c-.33,4.38-.67,8.87.21,13.2.47,2.08,1.37,4.06,2.22,6,.5,1.14,1.05,2.29,1.58,3.41.33.8.87,1.71.41,2.56-.65,1.02-1.45,1.97-2.35,2.79-.43.36-.91.74-1.48.83-.32.02-.65,0-.97-.03-1.68-.21-3.11-1.17-4.67-1.74-.65-.26-1.33-.42-1.99-.63-.79-.25-1.56-.59-2.32-.9-.68-.33-1.54-.5-2.04-1.11-.26-.34-.26-.77-.23-1.17.02-.42.07-.85.11-1.26.29-3.16,1.31-6.18,2.03-9.26,1.11-4.41,1.55-8.97,2.64-13.39,1.34-5.62,3.45-11.03,4.88-16.62,1.19-4.45,2.22-8.96,2.87-13.52.58-3.51.98-7.09.67-10.65-.44-5.67-1.82-11.24-3.83-16.55-1.44-4.06-3.13-8.06-5.32-11.78-2.59-4.59-6.11-8.61-10.19-11.95-2.17-1.87-4.43-3.67-6.99-4.98-3.77-2.08-7.77-3.69-11.76-5.29-2.94-1.25-5.84-2.62-8.82-3.79-2.21-.88-4.53-1.47-6.78-2.24-2.05-.76-4.05-1.69-6.1-2.46-2.52-1.03-5.24-1.45-7.95-1.39-2.17.07-4.33.39-6.5.48-1.75.16-3.5.33-5.25.36-2.05-.02-4.1-.09-6.15-.1-1.96-.03-3.92-.18-5.87-.23-1.5-.01-3.02.11-4.52.15-2.3.04-4.55.55-6.82.86-3.45.51-7,.3-10.4,1.1-3.88.86-7.53,2.46-11.3,3.69-3.2,1.16-6.66,1.66-9.62,3.39-4.08,2.48-7.79,5.54-11.46,8.58-1.88,1.67-3.48,3.63-5.28,5.37-3.34,3.16-6.47,6.56-9.64,9.89-3.5,4.1-7.1,8.14-10.48,12.34.06-.74.79-8.69,1.48-9.02,1.43-2.56,3.1-5.05,5.18-7.13,1.6-1.6,3.44-2.99,5.09-4.53,3.37-3.21,6.43-6.79,9.3-10.45,1.83-2.45,2.94-5.33,4.03-8.15,1.31-3.42,2.62-6.86,4.36-10.1.73-1.32,1.64-2.74,3.08-3.35.68-.28,1.5-.48,2.21-.22,1.06.48,1.84,1.38,2.82,1.98,5.68,3.28,12.37,2.27,18.53,1.22,4.54-.7,9.08-1.65,13.69-1.76,2.24-.09,4.48.29,6.71.18,2.8-.2,5.55-.84,8.34-1.11,2.81-.35,5.65-.27,8.47-.18,2.77,0,5.55-.16,8.31-.16,3.18-.04,6.33.56,9.5.71,3.42.12,6.88.16,10.24.87,1.91.42,3.75,1.13,5.54,1.91,4.49,2.08,9.2,3.64,13.63,5.84,3.29,1.6,6.23,3.82,9.46,5.55,3.12,1.75,6.49,3.04,9.48,5.02,4.78,3.27,8.55,7.85,11.52,12.79,1.61,2.82,3.23,5.63,4.75,8.5,1.35,2.54,2.66,5.1,4.12,7.58,1.47,2.54,2.77,5.19,3.96,7.87,1.15,2.7,2.26,5.55,2.35,8.51,0,1.07-.56,1.99-1.15,2.84-.76,1.16-1.54,2.33-2.26,3.52,1.42-1.21,3.29-1.61,5.04-2.12,2.75-.77,5.54-1.42,8.34-1.96,3.13-.55,6.26-1.32,9.44-1.46,2.13-.06,4.24.35,6.37.42,2.56.07,5.14,0,7.69-.11,3-.23,6.07-.46,9,.39,4.19,1.19,7.99,3.41,11.99,5.08,4.12,1.83,8.4,3.26,12.54,5.05,3.42,1.5,6.48,3.69,9.46,5.91,2.01,1.5,3.89,3.21,6.09,4.44,2.7,1.43,5.69,2.25,8.6,3.16,3.1.87,6.2,1.76,9.39,2.24,1.81.31,3.63.55,5.44.8,1.29.18,2.64.3,3.81.91.67.33,1.18.98,1.28,1.72.11.99,0,1.99-.07,2.97-.18,1.73-.29,3.47-.21,5.21.29,8.04,1.66,16.02,3.58,23.82.82,3.34,1.95,6.6,2.86,9.92,1.06,4,1.98,8.04,2.88,12.08.73,3.84,2.04,7.53,3.66,11.07,1.24,2.68,2.51,5.4,2.9,8.35,2.16-.89,4.51-1.22,6.78-1.76,5.38-1.15,11.22-1.6,16.41.52,2.11.85,4.03,2.12,5.9,3.41,4.35,2.86,8.2,6.4,12.23,9.67,1.79,1.5,3.78,2.76,5.5,4.35,3.31,2.99,6.41,6.22,9.27,9.64,1.73,2.24,3.75,4.27,5.35,6.6,2.51,3.95,4.79,8.11,6.3,12.55Z"/><path class="cls-10" d="m295.7,530.18c.2.38-.26.66-.6.75-.46.15-.94.26-1.41.34-2.44.51-4.92.23-7.39.28-1.93,0-3.85.24-5.77.3-4.39.11-8.79.48-13.19.43-1.66-.05-3.33-.21-4.95-.59-2.13-.53-4.18-1.38-6.19-2.26-3.62-1.49-7.1-3.27-10.52-5.17-4.6-2.42-9.29-4.76-13.48-7.87-2.69-1.97-5.03-4.39-7.34-6.79-2.37-2.41-4.74-4.86-7.34-7.02-1.57-1.31-3.25-2.51-4.78-3.86-1.95-1.75-3.92-3.51-5.73-5.4-.47-.5-.94-1.01-1.45-1.47-.44-.39-.92-.74-1.35-1.14-.42-.35-.8-.75-1.21-1.11-.33-.29-.71-.53-1.05-.81-.73-.66-1.35-1.43-2.15-2.01-.67-.49-1.49-.7-2.3-.88-.98-.19-1.98-.23-2.98-.25-1.35-.08-2.71-.17-4.07-.23-.59-.03-1.19-.03-1.78-.03-.26-.03-.59.05-.78-.15-.1-.18.05-.39.13-.55.14-.24.29-.49.42-.75.82-1.59,1.17-3.36,1.21-5.14.13-1.87.04-3.75-.22-5.61-.51-3.75-1.24-7.47-1.68-11.23-.57-5.05-1.49-10.07-2.17-15.1-.61-5.94-1.54-11.86-2.03-17.81-.29-5.03.5-10.09,1.67-14.97.38-1.18.75-8.05.83-9.32.45-1.57,4.14-12.56,4.58-9.04-.2,3.96-.63,7.93-.4,11.91.19,4.02.19,8.08.62,12.09.95,7.39,2.26,14.74,3.57,22.07.84,4.74,1.54,9.54,1.78,14.35.28,3.53.46,7.13,1.27,10.59.66,2.25,1.69,4.44,3.04,6.36,1.74,2.13,3.62,4.15,5.48,6.18,3.52,3.74,6.91,7.61,10.12,11.61,3.69,4.36,7.69,8.5,12.19,12.04,3.86,3.08,8.32,5.27,12.64,7.6,2.36,1.31,4.61,2.87,6.93,4.25,4.43,2.62,9.14,4.76,13.84,6.84,3.24,1.57,6.42,3.43,9.98,4.18,2.81.67,5.7,1.04,8.55,1.47,2.32.4,4.64.86,6.97,1.16,1.53.21,3.1.31,4.64.46,1.31.19,2.89.25,3.85,1.26Z"/><path class="cls-10" d="m424.39,608.6c.59,1.97.3,4.08-.11,6.06-.33,1.38-1.04,2.65-1.61,3.94-2.37,5.23-6.36,9.43-9.97,13.81-1.18,1.39-2.47,2.7-3.63,4.1-1.35,1.59-2.62,3.26-4.07,4.75-1.48,1.5-3.16,2.8-4.86,4.03-1.34.96-2.83,1.68-4.33,2.36-9.95,4.31-20.99,6.01-31.8,5.7-5.05-.08-10.17-.05-15.11-1.23-3.4-.89-6.67-2.22-10.11-2.97-2.23-.59-4.53-.89-6.82-1.04-2.82-.27-5.67.05-8.38.86-1.8.55-3.5,1.37-5.25,2.07-1.54.61-3.15,1.07-4.75,1.49-1.99.46-5.17,1.49-6.87.03-.95-1.05-1.41-2.45-2.13-3.66-3.3-6.08-7.25-11.82-11.51-17.27-4.12-4.87-8.53-9.5-12.92-14.13-4.17-4.73-8.01-9.79-11.36-15.13-2.29-3.78-4.17-7.8-6.1-11.77-2.74-6.37-4.59-13.11-6.81-19.67.73,1.25,3.61,9.77,4.41,10.6.94,1.7,1.94,3.41,2.98,5.05,2.34,3.7,5.27,7.02,7.76,10.62,2.74,3.96,5.52,7.93,8.57,11.66,3.4,3.75,6.75,7.6,10.49,11.02,5.1,4.52,9.7,9.64,15.22,13.68,2.06,1.49,4.14,3.11,6.56,3.97,2.13.68,4.4.93,6.63,1.02,1.58.03,3.18-.06,4.76.02,4.68.15,9.39.73,13.88,2.12,3.14.94,6.11,2.46,9.31,3.2,4.97,1.16,10.14,1.07,15.21,1.12,2.95.04,5.96.12,8.86-.54,4.83-1.24,9.36-3.49,13.72-5.85,5.02-2.91,10.03-5.94,14.47-9.71,3.18-2.53,5.58-5.89,8.56-8.64,2.7-2.52,5.57-4.88,8.38-7.29,1.85-1.57,3.66-3.24,5.67-4.62.55-.34,1.1-.75,1.76-.8.61-.06,1.16.42,1.31,1Z"/><path class="cls-10" d="m469.77,479.44c.73,2.67.36,5.49.13,8.21-.17,1.33-.16,2.72-.46,4.02-.21.59-.4,1.18-.6,1.77-.63,2.2-1.65,4.24-2.81,6.21-.68,1.18-1.47,2.29-2.04,3.53-.92,1.82-1.59,3.74-2.27,5.66-.62,1.71-1.38,3.37-2.24,4.97-.17.38-.52.66-.78.97-.51.55-1.02,1.11-1.54,1.65-1.3,1.34-2.56,2.72-3.83,4.08-1.33,1.45-2.53,3.03-3.85,4.49-2.04,2.23-4.19,4.38-6.38,6.45-3.58,2.71-7.78,4.42-11.71,6.53-2.54,1.33-5.02,2.79-7.66,3.91-2.82,1.12-5.74,1.96-8.62,2.92-3.56,1.19-7.24,1.91-10.96,2.41-3.68.54-7.35,1.25-10.95,2.21-4.62,1.21-9.17,2.7-13.78,3.92-3.14.87-6.32,1.78-9.59,1.94-3.28.09-6.57-.28-9.85-.49-1.38-.1-2.78-.19-4.17-.16-.43.01-.92.03-1.36.07l-.29.03h-.09c-.07.06-.14.15-.2.21-.51.52-1.06,1.02-1.61,1.5-.44.43-.83.91-1.23,1.38-.9,1.1-1.87,2.17-2.48,3.46-.18.37-.37.74-.6,1.09-.34.47-.74.9-1.09,1.37-.54.68-.87,1.52-1.44,2.18-.4.43-.84.89-1.4,1.1-1.27.2-2.22-1.01-3.13-1.7-2.2-1.96-4.31-4.05-6.42-6.1-4.03-3.81-8.23-7.45-12.5-10.99-4.23-3.48-8.61-6.84-12.39-10.82-3.16-3.43-6.57-6.65-9.65-10.15-3.84-4.41-7.92-8.62-11.58-13.19-2.63-3.12-4.85-6.57-7.02-10.02-2.32-3.66-4.52-7.43-6.23-11.42-2.56-6.75-3.38-14.07-2.77-21.24.27-3.19,1.04-6.33,1.76-9.44,1.27-5.62,3.03-11.13,5.08-16.52-.17,1.31-2.48,10.2-2.15,11.31-.16,5.13,0,10.32.93,15.38.57,3.62,1.86,7.08,3.18,10.48,2.65,7.01,6.8,13.34,11.42,19.19,3.91,4.97,7.76,10.03,12.17,14.57,4.45,4.57,9.36,8.67,13.84,13.21,6.33,6.46,11.75,13.94,19.06,19.38,1.35.94,2.88,1.68,4.42,2.25.45.15.98.36,1.43.49.43-.04.93-.11,1.37-.16,3-.3,5.95-.94,8.88-1.58,2.03-.43,4.09-.72,6.12-1.14,3.37-.63,6.78-1.03,10.12-1.79,5.21-1.24,10.47-2.27,15.7-3.4,3.35-.62,6.67-1.41,9.99-2.17,3.1-.7,6.25-1.24,9.35-1.95,4.17-.89,8.37-1.64,12.43-2.94,4.66-1.28,9.25-2.88,13.48-5.25,3.51-1.91,6.77-4.27,9.92-6.71,3.28-2.58,6.44-5.34,9.08-8.58,2.5-2.96,4.58-6.25,6.83-9.4,2.12-3.08,4.43-6.06,6.04-9.45,1.35-2.68,2.67-5.41,3.52-8.3.66-2.39,1.33-4.8,2.15-7.14.35-.9.54-1.91,1.12-2.7h0c.06.13.12.29.18.43Z"/><path class="cls-10" d="m599.91,493.58c1.19,3.73,1.71,7.64,1.97,11.53.35,4.15-.07,8.33-.62,12.44-.27,1.88-.81,3.72-1.29,5.56-.63,2.47-1.26,4.95-1.97,7.4-1.17,4.31-2.02,8.72-3.31,12.99-1.57,4.94-3.04,9.97-5.35,14.63-1.45,2.99-2.91,5.99-4.31,9.01-1.1,2.39-2.12,4.85-3.41,7.14-1.7,3.14-4.01,5.88-6.34,8.56-1.64,1.92-3.37,3.79-5,5.73-2.31,2.78-4.56,5.65-7.16,8.17-3.32,3.24-6.69,6.51-9.27,10.39-1.69,2.66-2.91,5.59-4.36,8.38-2.18,4.5-4.28,9.04-6.51,13.51-.3.54-.65,1.17-1.1,1.61-.23.23-.6.46-.93.3-.34-.15-.6-.45-.86-.71-.67-.68-1.37-1.35-2.09-1.98-1.75-1.55-3.68-3.01-5.95-3.66-3.49-.96-7.12-1.29-10.67-1.97-1.87-.38-3.77-.74-5.56-1.4-1.02-.34-3.7-1.7-1.29-2.3,1.27-.22,2.56-.33,3.82-.61,1.2-.26,2.37-.69,3.55-1.04,2.16-.65,4.34-1.32,6.59-1.57,2.07-.23,4.17-.04,6.24-.3,2.66-.43,4.94-2.06,7.01-3.69,1.99-1.61,3.97-3.27,5.84-5.02,2.75-2.71,5.41-5.54,8.13-8.28,4.35-4.41,9.12-8.49,12.61-13.66,1.3-1.92,2.48-3.94,3.88-5.8,1.54-2.14,3.27-4.17,4.69-6.4,2.89-4.58,5.03-9.59,7.2-14.54.96-2.19,2.08-4.33,2.95-6.56,1.25-3.26,2.21-6.66,2.95-10.07.62-2.91.87-5.89,1.07-8.85.19-2.86.33-5.74.16-8.6-.23-3.3-.74-6.61-1.66-9.78-1.11-3.75-2.75-7.34-4.38-10.88l5.48-8.35c1.45-.59,2.89-1.25,4.29-1.95,1.66-.88,4.27-1.98,4.97.58Z"/><path class="cls-10" d="m741.59,445.42c1.75,5.5,2.93,11.19,3.68,16.91.94,6.07,1.42,12.24,1.22,18.38-.08,2.98-.03,5.99-.31,8.97-.46,4.4-1.3,8.77-2.49,13.03.82,1.73,2.05,3.22,3.25,4.7,1.29,1.72,2.57,3.49,3.39,5.49,1.64,4.46,2.43,9.22,2.74,13.95.21,2.47.03,4.95-.01,7.42-.23,6.29-.97,12.57-2.09,18.75-.65,2.77-1.07,5.69-2.47,8.2-.26.42-.91,1.37-1.37.77-.22-.84.16-1.84.24-2.7.29-1.85.49-3.71.65-5.57.21-3.73.84-7.45.71-11.19-.08-2.86-.55-5.71-1.04-8.52-.48-2.66-.91-5.36-1.75-7.94-.84-2.62-2.09-5.1-3.35-7.54-.54-1.01-1.11-2.1-1.66-3.1,0,0-.09-.17-.09-.17,0,0-.62-3.33-.62-3.33-1.38,3.31-2.67,6.67-4.23,9.9-2.19,4.59-4.71,9.03-6.91,13.61-.82,1.73-1.64,3.5-2.18,5.35-.5,1.68-.79,3.42-1.04,5.15-.38,2.74-.72,5.52-1.68,8.14-.41,1.19-.86,2.4-1.65,3.39-1.21,1.8-3.5,2.13-5.47,2.53-2.54.49-5.13.82-7.51,1.9-1.5.62-2.79,1.64-4.05,2.63-1.31,1.06-2.67,2.09-3.87,3.27-1.48,1.47-2.91,3-4.41,4.44-.41.39-.82.82-1.23,1.21-.2.16-.4.43-.66.45l-.02-.02c-.05-.21.13-.45.22-.63.23-.4.49-.8.76-1.18.67-.97,1.28-1.98,1.92-2.97,1.6-2.49,2.94-5.16,4.72-7.54,1.85-2.37,4.08-4.42,6.14-6.61,2.96-3.24,5.79-6.67,7.92-10.52,2.28-4.58,3.87-9.47,5.59-14.27,1.87-4.94,4.13-9.75,5.5-14.87,1.56-6.23,2.91-12.54,3.73-18.92.75-6.64,1.04-13.35,1.18-20.03-.06-7.63.12-15.35-1.57-22.83-.63-3.19-1.71-6.28-2.94-9.29-1.3-3.2-2.77-6.35-4.54-9.31-3.99-6.16-8.73-11.93-14.34-16.69-3.26-2.69-6.72-5.12-10.31-7.34-2.45-1.58-4.87-3.24-7.49-4.51-2.72-1.4-5.64-2.39-8.51-3.42-3.54-1.29-7.07-2.75-10.55-4.2,4.74,0,14.95-.2,19.48.62,2.22.36,4.37,1.09,6.48,1.82,3.14,1.12,6.11,2.72,8.86,4.61,2.31,1.6,4.47,3.4,6.71,5.09,1.8,1.42,3.73,2.71,5.48,4.19,3.86,3.43,7.47,7.14,11.04,10.88,1.07,1.2,1.96,2.57,2.86,3.9,1.07,1.61,2.14,3.24,3.06,4.94,1.9,3.41,3.67,6.91,4.9,10.62Z"/><path class="cls-1" d="m732.2,263.98c.55,1.47.3,3.13-.21,4.58-.38.99-.75,1.99-1.27,2.91-1.04,1.89-2.1,3.81-2.85,5.84-.61,1.93-.91,3.95-1.15,5.96-.19,1.96-.5,3.94-.53,5.92.06,1.9.16,3.8-.04,5.69-.12,2.51-.54,5.01-.89,7.5-.25,2.59-.51,5.19-.71,7.79-.13,1.51-.08,3.06-.42,4.55-.22.96-1.09,2.5-1.4.32-.34-2-.69-4.01-1.18-5.99-1.87-6.88-5.01-13.51-5.47-20.71-.09-1.99-.13-4.02.01-6.01.24-2.11.37-4.25.47-6.37.23-2.03.37-4.08-.04-6.09-.15-.83-.27-1.71-.6-2.49-.23-.52-.59-.98-.92-1.44-1.26-1.94-3.1-3.21-4.55-4.97-2.27-2.68-3.89-5.83-5.23-9.06-.99-2.26-2.08-4.49-3.3-6.62-1.25-2.09-2.73-4.05-4.15-6.03-1.85-2.56-3.63-5.2-5.76-7.55-3.38-3.66-6.85-7.28-10.71-10.44-2.56-1.98-5.37-3.68-8.34-4.99-3.58-1.45-7.25-2.72-10.86-4.1-3.02-1.06-6.11-1.95-9.27-2.46-3.78-.53-7.61-.76-11.32-1.68-2.78-.59-5.5-1.47-8.3-1.93-4.64-.67-9.38-.84-14.05-.42-2.04.15-4.05.61-6,1.23-2.09.61-4.2,1.26-6.27,1.95-4.46,1.49-9.08,2.91-12.92,5.71-1.85,1.31-3.74,2.61-5.69,3.76-1.41.78-3.07,1.94-4.7,1.12,0,.48,0,1-.1,1.48-.05.16-.08.43-.27.46-.31-.1-.44-.58-.56-.85-.33-.86-.62-1.81-.89-2.7-.78-2.56-1.55-5.18-2.34-7.74-2.31-7.78-4.94-15.56-9.28-22.47-4.19-6.99-9.25-13.47-15.21-19.04-3.62-3.55-7.17-7.23-11.16-10.36-2.64-2.06-5.56-3.75-8.3-5.66-4.43-3.15-8.86-6.34-13.19-9.64-4.01-3.08-7.65-6.7-10.46-10.91-.98-1.44-1.91-2.93-2.86-4.4-.98-1.66-1.93-2.17-3.88-2.14-1.83,0-3.64.4-5.43.74-2.31.44-4.66.86-7.01,1.04-7.76.61-15.55-.25-23.25-1.08-3.01-.32-6.05-.84-9.08-.85-2.62-.02-5.25.46-7.83.9-8.89,1.42-17.5,4.21-25.94,7.32-3.16,1.4-13.19,3.77-16.57,4.62,6.99-5.29,13.64-11.25,21.73-14.84,2.53-1.14,5.28-1.63,7.92-2.45-3.18-.93-6.27-2.28-9.59-2.65-2.42-.35-4.89-.38-7.33-.55-3.45-.25-6.91-.44-10.37-.39-2.99,0-6,.15-8.99.28-2.54.08-5.12.09-7.65.43-3.13.39-6.24,1.14-9.34,1.68-3.68.67-7.4,1.18-11.11,1.63-7.31.98-14.67,1.75-21.93,3.07-4.39.77-8.78,1.66-13,3.14-2.86.99-5.74,2.06-8.42,3.45-2.43,1.29-4.67,2.93-6.96,4.45-.27.16-.75.6-1.08.64-.88.15-1.77.28-2.66.38-1.79.22-3.6.41-5.41.36.12-.19,3.69-3.74,3.86-3.68,2.38-1.37,4.83-2.68,7.1-4.24,2.2-1.51,4.44-2.97,6.7-4.39,1.44-.96,2.9-1.92,4.48-2.63,2.05-.98,3.99-2.17,5.96-3.31,1.95-1.01,3.88-2.07,5.88-2.98,6.33-2.48,12.98-4.18,19.73-5.01,4.08-.44,8.17-.01,12.26-.12,2.95.02,5.9-.17,8.84-.27,3.88-.08,7.77-.16,11.63-.63,2.65-.23,5.31-.46,7.96-.59,1.8-.07,3.61.07,5.41,0,2.25-.14,4.51-.26,6.76-.36,1.48-.07,2.97-.22,4.45-.05,3.75.39,7.31,1.74,10.69,3.35,3.23,1.47,6.47,3.11,8.96,5.69,1.65-1.07,3.19-2.37,5-3.15.92-.34,1.93-.36,2.91-.32,1.46.06,2.91.31,4.37.39,1.71.1,3.44-.02,5.14-.22,2.09-.22,4.17-.63,6.26-.84,1.75-.12,3.5.15,5.25.07,4.65-.2,9.32-.53,13.96-.05,2.83.27,5.7.57,8.54.24,4.32-.44,8.43-2.08,12.18-4.21,1.02-.44,2.16-.28,3.23-.15,2.24.26,3.58,2.35,4.37,4.26.53,1.21,1.01,2.46,1.46,3.7,4.07-.39,8.27-.91,12.32-.07,1.7.38,3.28,1.18,4.97,1.59,2.65.71,5.32,1.4,7.79,2.62,3.35,1.48,6.37,3.63,9.69,5.15,3.93,1.68,7.81,3.49,11.61,5.46,2.16,1.02,4.47,1.64,6.7,2.48,2.91,1.08,5.78,2.33,8.8,3.06,3.28.83,6.66,1.18,9.96,1.91,5.1,1.04,9.88,3.17,14.93,4.4,5.19,1.29,9.92,2.78,13.34,7.18,1.42,1.74,2.56,3.68,3.92,5.47,1.81,2.55,4.05,4.76,6.45,6.75,2.44,2.02,4.93,4,7.19,6.24,1.38,1.35,2.78,2.74,3.8,4.4,1.81,2.85,2.83,6.12,4.02,9.26.55,1.53,1.08,3.09,1.7,4.59.43,1.05.85,2.17,1.68,2.98.98.97,2.1,1.82,3.32,2.47.88.4,1.81.71,2.71,1.08,2.76,1.11,5.65,1.82,8.46,2.78,1.42.55,2.89,1.05,4.22,1.8,2.06,1.19,3.98,2.62,6,3.87,3.28,2.06,6.86,3.6,10.11,5.7,3.69,2.2,6.6,5.4,9.45,8.57,2.21,2.62,4.59,5.1,6.78,7.73,2.84,3.45,5.35,7.17,7.59,11.03,1.07,1.86,2.03,3.8,3.14,5.64,1.5,2.45,3.21,4.78,5.12,6.92,2.43,2.71,4.95,5.44,8.06,7.38,1.73,1.14,3.46,2.31,5.12,3.55,1.66,1.27,3.43,2.66,4.15,4.69Zm-97.63-71.91c-1.59-3.87-4.01-7.34-6.64-10.56-3.18-4.18-6.77-8.17-11.39-10.79-2.53-1.49-5.23-2.7-7.81-4.09-2.72-1.46-5.39-3.06-8.22-4.33-4.65-2.11-9.62-3.45-14.09-5.94-4.1-2.02-7.91-4.58-11.95-6.7-2.89-1.46-6.08-2.23-9.07-3.44-2.83-1.19-5.8-2.01-8.76-2.82-4.02-1.13-8.8-2.6-12.57-.05,2.9,1.73,5.85,3.4,8.84,4.99,3.53,1.66,6.98,3.59,9.87,6.24,2.13,1.97,3.94,4.27,5.42,6.76,1.35,2.14,2.62,4.35,3.72,6.62,2.55,5.14,4.82,10.51,5.48,16.25.06.48.09.99.09,1.47.34,1.02.73,2.08,1.07,3.1,1,2.93,2.07,5.87,2.74,8.9.61,2.87,1.17,5.77,1.35,8.7.32,3.11.62,6.24.78,9.36,2.83-5.43,8.11-8.86,13.13-12.07,1.45-.93,2.78-2.04,4.24-2.96,2.06-1.29,4.41-1.97,6.72-2.64,5.59-1.75,11.2-3.8,17.1-4.13,1.87-.11,3.74-.26,5.62-.24,1.16-.07,5.03.35,4.34-1.62Z"/><path class="cls-1" d="m724.42,331.41c3.63,13.3,7.06,26.96,9.9,40.43,1.2,6.2,2.62,12.41,2.81,18.75.26,3.75-.29,7.49-.66,11.21-.51,5.36,1.06,10.61,1.52,15.91.1,2.52-.13,5.06-.25,7.58-.07,1.63-.28,3.28-1.03,4.75-.39.75-.78,1.74-1.67,1.97-1.22-1.85-2.39-3.76-3.78-5.49-1.51-1.76-3.21-3.36-4.82-5.02-2.93-2.94-5.84-5.96-9.22-8.38-4.73-3.41-9.06-7.44-14.29-10.1-3.09-1.56-6.4-2.71-9.77-3.49-.9-.19-1.84-.32-2.75-.41-.23-.03-.58-.04-.81-.07-.28-.13-.57-.28-.85-.42-2.42-1.19-4.82-2.45-7.08-3.93-.58-.45-1.42-1.05-1.28-1.87.43-1.07,1.5-1.71,2.34-2.44,2-1.65,4.06-3.26,6-4.99,1.76-1.64,3.39-3.43,4.96-5.25,1.82-2.35,3.26-4.97,4.88-7.46,1.67-2.53,3.54-4.95,5.63-7.15,2.13-2.05,4.37-4.01,6.3-6.26,2.49-2.77,4.14-6.18,6.15-9.3,2.27-3.65,4.16-7.55,5.68-11.56.83-2.27,1.82-4.6,2.07-7.02Z"/><path class="cls-5" d="m401.77,689.64c.3.73-.26,1.58-.8,2.06-.73.55-1.65.74-2.48,1.07-1.7.63-3.41,1.27-5.09,1.94-3.9,1.54-7.57,3.69-11.67,4.67-4.36,1.14-8.89,1.32-13.32,2.05-2.38.32-4.74.89-7.13,1.13-2.26.18-4.54.11-6.8-.12-3.94-.39-7.65-1.82-11.33-3.17-3.64-1.31-7.34-2.53-11.16-3.14-2.61-.43-5.25-.64-7.89-.47-2.5.21-4.99.56-7.5.71-2.26.18-4.54.35-6.8.11-3.79-.32-4.73-1.58-6.03-5-.65-1.82-1.08-3.73-1.97-5.45-3.11-5.75-8.94-9.16-14.06-12.91-3.59-2.55-7.19-5.09-10.45-8.07-3-2.6-6.03-5.18-8.75-8.08-2.26-2.46-4.23-5.21-5.56-8.28-1.98-4.1-3.55-8.37-5.21-12.6-3.1-7.38-5.71-14.97-7.63-22.74-1.72-6.59-3.1-13.36-2.57-20.2.15-1.96.48-3.95.79-5.89.15-.77-.06-1.62-.06-2.4-.05-1.08-.15-2.18-.07-3.26.15-1.26.45-2.53,1.02-3.66.91-1.58,2.25-2.94,3.8-3.88.8-.42,1.77-.48,2.66-.39.48.07.9.38,1.24.71.06.06.11.1.12.17,0,0,.27.83.27.83,1.12,3.43,2.26,6.89,3.43,10.31.53,1.52,1.11,3.06,1.77,4.53.41.91.93,1.85,1.14,2.83,2.16,7.41,4.95,14.85,9.87,20.89.91,1.27,2.32,2.14,3.46,3.2,1.71,1.44,3.33,3.02,4.88,4.62,2.51,2.66,5.2,5.17,7.66,7.88,1.9,2.17,3.61,4.5,5.45,6.73,2.16,2.5,3.79,5.41,5.88,7.96.69.83,1.45,1.66,2.21,2.43.3.32.75.65.93,1.06.82,1.41,1.47,2.93,2.35,4.31,1.42,2.08,4.99.93,7.03.48,2.49-.62,4.91-1.46,7.24-2.51,3.68,1.98,6.61,5.09,10.23,7.16,2.83,1.57,5.83,2.81,8.75,4.18,3.12,1.54,6.19,3.26,9.06,5.22,8.16,5.97,14.99,14.1,24.59,17.86,5.51,2.3,11.52,3.09,17.46,3.21,2.71.15,9.35-.15,11.05,1.9Z"/><path class="cls-5" d="m590.29,665.31c.5,1.09-.06,2.26-.8,3.1-1.11,1.03-2.51,1.73-3.76,2.59-2.62,1.62-5.07,3.54-7.28,5.69-1.88,1.75-3.58,3.75-5.58,5.37-2.81,2.14-5.75,4.15-9.02,5.52-3.93,1.63-7.82,3.39-11.68,5.18-1.8.84-3.51,1.88-5.22,2.9-1.93,1.07-3.64,2.49-5.21,4.03-.92.87-1.84,1.78-2.61,2.79-1.07,1.4-2.16,2.85-3.72,3.73-.92.55-2,.3-2.99.1-1.58-.33-3.13-.96-4.77-.94-.96-.04-1.9.23-2.81.5-.89.25-1.79.48-2.69.67-4.68.99-9.5.68-14.24,1.05-5.95.12-11.92,1.62-17.86.88-4.19-.5-8.41-.72-12.62-.8-2.16-.06-4.35.13-6.5-.09-2.02-.24-4.01-.71-5.97-1.25-2.96-.92-6-1.58-9.09-1.9-2.23-.36-4.51-.36-6.72-.81-1.9-.47-3.64-1.45-5.51-2.02-1.86-.63-3.84-.87-5.67-1.59-3.26-1.2-6.28-3.05-9.05-5.13-2.58-2.05-4.87-4.46-7.27-6.71-1.76-1.69-3.61-3.32-5.17-5.2-2.69-3.53-5.18-7.24-7.3-11.14-3.14-5.99-4.96-12.6-6.67-19.11.72.78,6.2,11.68,7.24,11.65,2.74,2.35,5.96,4.22,9.45,5.21,2.93.81,6.01.93,9.01,1.32,5.43.8,10.92,1.17,16.38,1.62,4.21.34,8.56.5,12.78.3,5.22-.25,10.5-.93,15.73-1.06,11.83-.38,19.91-.5,29.97-7.68,9.17-6.63,8.13-4.65,18.43-3.5,6.05.39,12.17.34,18.23.43,5.53-.02,11.08-.58,16.59-.95,3.99-.28,8.04-.67,11.99-1.25,4.14-.72,8.42-.55,12.47.57,3.62.96,7.68,2.44,9.51,5.95Z"/><path class="cls-15" d="m265.07,376.75c.27,1.07,1.15,3.86-.7,3.82-.82-.08-1.57-.52-2.34-.79-6.86-2.86-14.34-4.96-21.82-3.87-6.99.98-13.39,2.6-19.3,6.62-7.48,4.82-12.9,9.74-17.14,17.69-3.35,6.06-5.26,12.81-6.95,19.49-1.67,6.42-3.14,13.03-2.85,19.7-1.21-6.92-2.48-13.85-3.26-20.82-.39-6.75-.86-13.57-.24-20.32-.04-.54.57-3.71-.4-3.17-.73.69-1.05,1.74-1.47,2.63-.79,1.84-1.49,3.78-2.12,5.68-.65.79-.85,8.58-1.02,9.64-.36,1.39-.71,2.93-.99,4.34-.45-6.94-.05-13.97,1.25-20.81,1.31-5.6,3.09-11.1,5.36-16.38,2.67-6.26,4.88-12.82,8.75-18.48,2.69-4.25,6.4-7.67,10.24-10.86,2.83-2.44,5.59-5.04,8.8-6.97,3.79-2.19,7.89-3.81,11.99-5.31,4.6-1.77,9.3-3.35,14.02-4.76.15.23,4.1,5.13,4.01,5.3.28.56.59,1.13.89,1.67.94,1.8,2.04,3.52,2.79,5.41,1.25,3.03,2.09,6.21,3.26,9.28,2.77,7.21,5.87,14.3,9.22,21.25Z"/><path class="cls-15" d="m378.61,283.83l.06.1c-.86,1.67-11.35,6.01-12.97,6.95-4.28-6.63-8.55-13.43-14.38-18.82-3.23-3.08-6.92-5.92-11.22-7.29-5.15-1.46-10.65-.24-15.75.9-3.17.79-6.37,1.65-9.57,2.31-4.35.86-8.73,1.99-12.57,4.27-3.76,2.14-7.66,4.13-11.29,6.48-4.26,2.96-8.4,6.32-11.57,10.45-1.61,2.15-2.91,4.59-3.93,7.08-.71,1.82-1.42,3.71-1.6,5.66-.65,7.36,5.18,13.23,10.7,17.22,2.83,1.99,5.87,3.82,9.01,5.28,3.42,1.59,7.09,2.81,10.56,4.28,4.95,2.03,9.62,4.82,14.71,6.53,4.73,1.56,9.69,2.42,14.47,3.83,2.23.67,4.49,1.38,6.51,2.57,3.71,2.11-1.31,2.67-3.05,2.96-3.09.53-6.27.7-9.4.5-3.81-.12-7.6-.69-11.34-1.39-5.03-.77-10.02-1.82-14.93-3.15-2.51-.66-4.95-1.55-7.36-2.5-1.81-.7-3.63-1.36-5.4-2.17-1.22-.56-2.4-1.2-3.64-1.71-1.13-.48-2.3-.88-3.39-1.46-.75-.36-1.48-.75-2.15-1.25-.76-.57-1.43-1.26-2.14-1.89-1.79-1.66-3.77-3.12-5.89-4.35-3.71-1.94-7.86-3.67-12.12-3.09-2.66.27-5.31,1.06-8,.66-1.33-2.21-2.61-4.46-4.19-6.51-1.32-1.79-2.93-3.35-4.42-5,1.8-.81,3.45-1.99,4.86-3.37,1.55-1.75,2.75-3.8,4.22-5.62,1.74-2.24,3.54-4.49,5.08-6.88,1.3-1.99,2.42-4.13,3.77-6.09,1.58-2.26,3.33-4.42,4.97-6.63,1.49-1.98,2.91-4.05,4.65-5.82,2.52-2.55,5.52-4.6,8.26-6.92,3.71-3.35,7.99-5.97,12.19-8.65,2.76-1.77,5.84-2.99,8.83-4.31,2.61-1.17,5.18-2.46,7.89-3.39,6.8-2.29,13.73-5.02,21.02-4.72,2.25.19,4.45.81,6.69,1.05,3.6.52,7.17,1.21,10.66,2.2,2.69.69,5.41,1.37,7.92,2.59,1.42.68,2.7,1.65,3.97,2.57,1.67,1.19,3.3,2.44,4.94,3.67,5.83,3.95,8.99,7.47,12.17,13.79.85,1.71,1.68,3.44,2.42,5.2.56,1.29,1.02,2.65,1.75,3.87Z"/><path class="cls-15" d="m440.57,506.67c.78,1.96-.01,5.8-2.16,6.55-3.67,1.51-7.54,2.56-11.37,3.59-4.98,1.25-9.84,3.03-14.71,4.6-3.59,1.12-7.33,2.19-11.13,2.01-6.3-.27-11.93-3.56-16.8-7.32-3.39-2.56-6.68-5.44-10.58-7.23-3.81-1.73-8.26-2.39-12.35-1.36-3.03.84-5.82,2.47-8.66,3.77-3.25,1.51-6.64,3.28-10.31,3.24-4.5,0-7.39-3.9-9.71-7.26-2.03-2.87-4.39-5.64-7.33-7.6-2.46-1.69-5.28-2.88-7.83-4.42-2.82-1.72-5.4-3.9-7.84-6.1-4.73-4.44-9.86-9.06-12.24-15.25-2.57-6.88,2.06-17.66,7.04-22.57,8.09-8.03,17.32-10.42,27.98-13.07l3.36,11.95.41.75c1.56,2.83,3.35,5.69,5.46,8.15,4.28,5.38,11.69,6.44,18.13,5.47,3.24-.46,6.33-1.9,9.43-2.87,5.65-1.91,12.83-2.2,17.32,2.33,2.57,2.41,3.1,6.05,3.56,9.37,1.08,6.51,1.07,13.72,4.89,19.37,6.11,8.42,16.24,10.91,26.17,10.31,4.94-.06,10.07-1.56,14.89.1,1.76.65,3.62,1.69,4.39,3.49Z"/><path class="cls-15" d="m492.63,358.35c4.93,13.13-2.75,31.66-11.71,41.57-1.78,1.97-3.66,3.89-5.76,5.52-2.53,1.97-5.25,3.69-7.73,5.72-3.04,2.62-5.83,5.68-7.9,9.13-1.57,2.98-2.08,6.43-2.4,9.75-.29,5.42,1.56,11.42-1.42,16.37-.84,1.31-2.4,1.83-3.76,2.43-4.23,1.95-8.31,1.31-12.65.21-3.64-.89-7.35-1.67-10.96-2.66-2.62-.73-5.23-1.7-7.72-2.78-2.42-1.05-4.96-2.37-6.3-4.74-1.65-2.84-1.22-8.6-.36-11.72.93-3.43,4.07-5.37,6.7-7.43,4.69-3.87,10.33-6.25,15.6-9.18,7-3.89,15.17-11.18,21.83-15.68,3.71-1.92,6.09-4.7,7.62-8.57,3.79-9.23,2.86-19.82,7.48-28.78,1.61-3.23,3.95-6.28,7.22-7.95,1.37-.7,2.96-1.29,4.51-1.06,3.95.86,6.42,6.4,7.73,9.86Z"/><path class="cls-15" d="m437.91,120.36c-1.73.77-3.45,1.59-5.11,2.51-2.29.89-4.46,2.1-6.58,3.33-5.79,3.44-10.88,7.94-16.27,11.97l5.24-1.32c-1.49,1.85-2.75,3.87-4.1,5.82-3.53-1.87-7.28-3.27-10.98-4.78-2.78-1.13-5.45-2.54-8.36-3.32-4.86-1.3-9.95-.79-14.9-1.43-2.58-.29-5.18-.48-7.78-.36-3.3.1-6.61.19-9.91.05-.75.03-1.48-.26-2.22-.37-1.19-.22-2.4-.37-3.6-.41-2.64-.03-5.28.2-7.91.41-2.6.29-5.17.84-7.72,1.38-2.28.53-4.64.73-6.95,1.06-.56-.02-1.12.26-1.67.31-1.69.3-3.41.53-5.11.83,2.46-1.62,4.86-3.4,7.44-4.83,2.38-1.3,4.95-2.28,7.49-3.21,4.5-1.65,9.18-2.72,13.9-3.52,7.21-1.35,14.52-2.1,21.79-3.09,3.92-.47,7.85-1.01,11.73-1.71,3.11-.54,6.21-1.28,9.34-1.68,2.53-.33,5.11-.35,7.65-.43,2.99-.13,6-.27,8.99-.28,3.95-.07,7.89.24,11.83.48,2.47.14,4.96.23,7.39.71,2.18.4,4.29,1.15,6.38,1.88Z"/><path class="cls-15" d="m634.54,191.98c.78,1.98-2.69,1.64-3.81,1.71-3.65.04-7.33.16-10.92.86-3.73.75-7.37,1.91-10.98,3.1-2.59.84-5.31,1.42-7.67,2.84-1.2.68-2.28,1.58-3.41,2.37-1.59,1.11-3.25,2.15-4.87,3.21-.94.63-1.87,1.33-2.76,2.03-.65.33-1.33.69-2,.98-1.85.86-2.87.54-2.88-1.67-.19-2.51-.34-5.05-.76-7.54-.68-3.34-1.83-6.58-3.11-9.73-1.36-3.36-3.04-6.61-4.66-9.84-.32-1.63-.85-3.23-1.46-4.77-1.66-4.37-3.68-8.62-6.08-12.63-1.81-3.1-3.86-6.1-6.57-8.5-2.3-2.02-4.89-3.69-7.63-5.06-2.18-.98-4.24-2.21-6.34-3.34-1.29-.88-2.39-2.17-3.51-3.26,3.59-1.6,7.6-.45,11.19.57,2.62.74,5.29,1.41,7.83,2.42,3.39,1.44,7.02,2.31,10.33,3.93,3.9,2.03,7.56,4.51,11.51,6.46,4.6,2.62,9.73,4.02,14.54,6.18,2.7,1.21,5.26,2.72,7.86,4.14,2.32,1.25,4.71,2.39,7.03,3.64,2.18,1.2,4.27,2.61,6.14,4.27,2.37,2.16,4.43,4.64,6.38,7.17,2.62,3.2,5.01,6.65,6.61,10.47Z"/><path class="cls-4" d="m704.1,457.88c3.06,8.79,5.27,17.94,6.06,27.23.52,8.68.1,17.5-1.31,26.07-1.27,6.11-3.19,13.24-8.23,17.3-5.98,4.46-13.98,4.87-21.18,4.57-8.38-.26-14.04-4.11-20.19-9.36-5.02-4.26-10.01-8.63-15.28-12.59-5.18-3.85-10.71-7.39-16.71-9.84-3.29-1.4-6.8-2.21-10.29-2.93-1.45-.31-2.93-.57-4.39-.88-1.3-.3-2.71-.59-3.63-1.63-.92-1.08-1.25-2.56-1.38-3.94-.16-1.32.11-2.68.91-3.76,1.21-1.73,2.49-3.46,4.06-4.88,2.67-2.31,5.71-4.16,8.61-6.18,3.08-2.06,5.93-4.44,8.55-7.05,2.54-2.34,4.73-5,6.88-7.69,2.69-3.12,5.36-6.29,7.97-9.48,3.13-3.72,6.07-7.65,8.8-11.68.5-.78,1.1-1.59,1.79-2.21.8-.81,1.6-1.64,2.38-2.47,2.15-2.28,4.83-4.01,7.52-5.58,1.47-.96,3.2-1.87,4.07-3.45.8-1.69.63-3.66.31-5.45-.33-1.78-.81-3.54-1.43-5.24l.4-.72c21.05,8.83,28.34,21.1,35.73,41.82Z"/><path class="cls-4" d="m620.65,614.48c1.48,4.34-.5,8.79-2.09,12.8-.94,2.46-1.95,4.91-3.38,7.13-1.6,2.63-3.6,5.09-6.15,6.84-1.36.92-2.86,1.62-4.38,2.23-1.34.53-2.71,1.01-4.13,1.27-1.43.29-2.89.44-4.35.5-1.03.06-2.06.15-3.09.06-1.07-.09-2.11-.38-3.14-.67-1.87-.51-3.67-1.24-5.37-2.17-2.83-1.5-5.78-2.82-8.37-4.73-3.56-2.57-6.67-5.71-9.78-8.8-3.59-3.73-7.4-7.33-10.22-11.71-.95-1.46-1.94-2.96-2.38-4.65h0s.05-.02.08-.03l10.54-17.11c.09-.11.35-.35.44-.47.26-.27.55-.61.79-.88,1.76-1.67,3.67-3.22,5.64-4.62,2.86-1.89,6.69-4.88,10.3-3.98,2,.49,2.94,2.51,3.98,4.1,1.22,1.93,2.42,3.91,3.96,5.61,1.15,1.27,2.41,2.48,3.83,3.46,1.79,1.18,3.8,1.98,5.77,2.79,2.9,1.19,5.78,2.43,8.67,3.64,2.56,1.07,5.04,2.36,7.41,3.81,2.28,1.3,4.6,2.98,5.43,5.59Z"/><path class="cls-14" d="m543.44,290.9c2.09,5.86,3.45,12,4.42,18.14,1.14,6.47,1,13.12-.44,19.54-1.23,5.53-2.92,10.97-4.94,16.26-.77,2-1.48,4.08-2.47,5.99-1.8,3.35-4.21,6.4-7.01,8.97-3.07,2.62-6.58,5.78-10.86,5.66,1.07-1.92,2.5-3.71,2.99-5.9,1.24-5.94.3-12.24-1.72-17.91-2.61-6.96-7.51-13.23-14.07-16.84-3.72-1.87-7.96-2.7-12.11-2.73-2.96.02-5.93.74-8.75,1.59-.02-3.44-.37-7.02.93-10.28.99-2.81,3.07-5.1,4.04-7.9.6-2.44.78-5.83-1.52-7.45-1.14-.76-2.54-.95-3.8-1.46-2.1-.75-4.1-1.9-5.58-3.59-3.61-4.15-5.28-9.54-7.75-14.37-2.64-5.14-6.85-15.72-12.26-17.94-1.25-.3-2.68-.34-3.85.26-.91.54-1.46,1.51-2.01,2.38-1.3,2.11-2,4.62-1.77,7.11.41,3.91,1.84,7.67,3.28,11.3.8.75,8.65,9.19,9.32,9.52,1.83,1.69,3.66,3.47,5.11,5.52,2.01,2.99,2.92,6.54,3.88,9.96,1.91,6.86,2.14,11.01.21,17.91-1.32,5.81-4.89,10.71-8.36,15.43-1.37,1.83-2.76,3.67-4.16,5.48-1.16,1.51-2.39,3-3.36,4.65-1.66,3.19-2.9,6.78-3.01,10.4-.05,1.92,1,4.59,3.37,3.91,1.62-.66,2.82-2.14,3.78-3.56,1.62-2.63,2.57-5.61,3.51-8.53.9-2.76,1.8-5.65,3.72-7.89-1.77,6.75-2.35,13.74-3.73,20.57-.78,3.97-1.34,8.04-2.7,11.87-3.37,9.67-7.48,16.26-17.14,20.59-5.46,2.19-11.49,2.34-17.29,2.46-2.49.04-4.97-.21-7.44-.48-2.61-.26-5.24-.5-7.85-.79-5.2-.72-10.57-.87-15.59-2.5-4.52-1.88-8.18-5.37-11.64-8.75-2.87-2.84-5.84-5.63-8.97-8.19-4.42-3.78-9.81-6.13-15.08-8.48-6.03-2.71-13.49-5.19-11.76-13.42,3.44.55,6.97.07,10.44.05,3.8-.1,7.72.08,11.3,1.46,2.76,1.17,5.37,2.73,7.69,4.64,2.26,2.03,4.38,4.28,6.1,6.79,1.22,1.81,2.06,3.84,2.99,5.8,1.58,3.67,3.86,3.62,7.4,3.93,2.86.16,5.64.89,8.43,1.53,4.68.92,9.21,2.4,13.77,3.77,2.23.66,4.47,1.3,6.72,1.91,1.68.43,3.42,1.07,5.18.83,2.41-.53,1.41-5.73,1.3-7.55-.27-2-.52-4.05-.65-6.06-.14-1.71-.23-3.45-.34-5.16-.22-3.98-2.19-2.02-3.81-.14-2.77,3.41-5.87,5.07-10.31,5.02-4.4.1-8.98-.49-12.84-2.73-1.81-1.18-4.15-2.82-3.73-5.28.23-1.3.97-2.46,1.68-3.55,1.15-1.7,2.52-3.25,3.99-4.67,1.2-1.07,2.23-2.38,3.63-3.2,1.3-.79,2.77.19,3.8,1.01.65.53,1.3,1.1,1.92,1.67.86.87,2.27,1.86,3.03.32,1.09-2.47-.3-5.22-1.9-7.12-.97-1.2-2.22-2.3-2.7-3.81-.37-1.96.64-3.92,2.02-5.25.75-.71,1.37-1.58,1.64-2.59.69-2.14.82-6.46-2.58-5.48-3.81,1.25-6.5,4.57-8.14,8.11-1.22,2.65-2,5.49-3.31,8.1-1.44,3.12-3.4,6.02-5.97,8.32-2.62,2.66-6.18,4.27-9.21,1.21-1.29-1.28-2.15-2.94-3-4.53-1.34-2.56-2.34-5.28-3.34-7.98-.46-1.22-.81-2.49-1.21-3.74-.39-1.14-1.02-2.22-1.62-3.25l-6.26-3.46c2.44-1.16,4.5-2.99,6.87-4.27,2.16-1.19,4.51-2.07,6.78-3.02,1.85-.72,3.7-1.59,5.63-2.1,4.58-.96,9.25.18,13.7,1.29,2.3.57,4.98,1.44,7.15.06,1.24-.77,2.35-1.74,3.53-2.6,1.72-1.26,3.48-2.49,5.24-3.7,1.79-1.17,3.58-2.5,5.68-3.03,2.45-.59,4.45,1.41,5.87,3.15,2.27,2.78,3.95,6.01,6.16,8.84,1.59,1.8,3.48,3.33,5.32,4.86,2.1,1.74,4.54,3.03,7.11,3.92.2.07.5.18.7.25,0,0,11.81.49,11.81.49-2.1-3.93-5.64-10.68-9.85-12.44-2.22-.78-4.58-.06-6.86-.12-2.18.06-4.44-.45-6.17-1.83-3.41-2.53-5.04-6.76-8.44-9.29-1.48-1.24-3.14-1.77-5.07-1.51-2.85.38-5.52,1.57-8.31,2.22-5.27,1.54-8.49,1.05-13.67-.42-1.38-.36-2.77-.79-4.19-.97-1.54-.18-3.12-.08-4.63.21-2.45.53-4.74,1.63-7.06,2.55-1.84.8-3.78,1.4-5.59,2.26-2.35,1.28-4.31,3.19-6.16,5.11-2.66,2.8-5,6-6.67,9.48l-6.78-3.74c-2.16,1.79-4.4,3.57-6.59,5.32-.79-1.05-1.65-2.1-2.51-3.1-.24-1.01-.4-11.31-.84-11.96-.69-4.3-.65-10.08,1.55-13.95,2.02-3.47,5.11-6.13,7.99-8.85,2.76-2.65,5.73-5.11,8.84-7.34,2.09-1.53,4.19-3.09,6.49-4.3,3.23-1.75,6.65-3.18,9.84-4.99,1.93-1.07,3.81-2.32,5.73-3.41,1.37-.79,2.84-1.45,4.22-2.22,1.45-.82,2.9-1.69,4.34-2.54.84-.46,1.66-1.09,2.64-1.18.78-.07,1.55.21,2.3.36,1.14.27,2.29.52,3.45.7,4.31.47,8.43,1.83,12.6,2.98,2.74.66,5.5,1.33,8.24,2.02,1.14.29,2.33.57,3.46.89,1.02.43,2.09.89,3.11,1.32l-.11-.43c3.67,1.12,7.3,2.41,10.75,4.08,4.15,2.25,8.23,4.71,11.81,7.8h0c-2.02-3.57-4.65-6.82-7.58-9.69-2.47-2.3-5.25-4.29-8.13-6.04-2.91-1.63-5.71-3.52-8.87-4.65-.17-.71-.39-1.73-.55-2.45.7-.05,1.28-.56,1.79-1,.7-.67,1.34-1.44,1.91-2.23.68-.77.42-1.67.03-2.52-.45-1.05-.99-2.09-1.45-3.14-.9-2.03-1.85-4.07-2.42-6.22-1.04-4.47-.66-9.15-.32-13.69l.97,3.95c.59-5.13,2.92-9.88,4.9-14.59,1.18-2.6,2.52-5.13,3.82-7.67.86-1.61,1.65-3.28,2.76-4.74.95-1.19,2.21-2.09,3.47-2.92,1.2-.78,2.44-1.54,3.74-2.14,2.16-1.05,4.26-2.25,6.47-3.2,2.22-.98,4.61-1.59,7.02-1.91,2.81-.24,5.65-.24,8.44-.68.62-.18,1.26.17,1.85.32,1.26.39,2.53.86,3.74,1.37,3.04,1.35,6.03,2.89,8.82,4.72,2.87,1.96,5.76,4,8.12,6.58,5.98,6.5,10.65,14.05,15.42,21.45,4.69,7.23,9.56,14.38,13.63,21.99,4.61,8.55,8.13,17.66,11.37,26.81Z"/><path class="cls-14" d="m394.99,213.56c1.82,5.05,2.65,10.38,2.92,15.72.33,5.49.28,11.02-.12,16.51-.31,3.9-.86,7.78-1.51,11.63-.84,5.59-2.28,11.13-4.97,16.13-.63,1.23-1.29,2.48-2.1,3.6-.5.52-1.12.99-1.66,1.46-1.94,1.62-3.72,2.99-6.41,2.33-.28-2.55-1.07-5.02-2.04-7.39-1.04-2.81-2.45-5.45-3.82-8.1-2.19-4.24-4.01-8.71-6.73-12.66-.74-1.03-1.56-2.04-2.55-2.85-1.06-.84-2.27-1.47-3.48-2.08-2.71-1.34-5.6-2.26-8.46-3.24-2-.6-3.94-1.38-5.93-1.98-2.27-.57-4.6-.88-6.9-1.29-1.56-.19-3.1-.55-4.66-.77-2.02-.24-4.06-.25-6.09-.18-3.17.25-6.37.2-9.54.5-1.96.24-3.84.92-5.76,1.36-2.3.58-4.6,1.2-6.91,1.73-2.72.62-5.46,1.22-8.09,2.17-2.97.96-5.7,2.53-8.61,3.64-1.88.74-3.7,1.64-5.53,2.5-1.52.65-3.02,1.36-4.44,2.21-2.05,1.18-4.25,2.13-6.2,3.48-1.72-5.71-.76-11.82-.33-17.66,1.17-12.28,4.01-24.63,10.05-35.47,1.71-2.95,4.09-5.46,6.4-7.93,2.85-3.06,5.92-5.94,8.99-8.79,3.2-3.04,6.07-6.42,8.87-9.82,2.51-3.08,4.92-6.28,7.76-9.07,2.47-2.5,5.21-4.31,8.79-4.66,4.62-.61,9.4-.66,13.92.59,4.07,1.06,7.77,3.22,11.4,5.28,4.72,3.06,8.98,6.78,13.62,9.95,5.12,3.31,10.12,6.85,14.74,10.84,2.8,2.42,5.72,4.81,8.03,7.73,3.31,4.34,5.5,9.45,7.33,14.57Z"/><path class="cls-14" d="m303.86,415.34c1.23,3.2-1.18,4.56-3.24,6.4-3.8,3.43-7.79,6.69-11.1,10.63-5.7,6.55-11.24,15.34-12.46,24.06-.29-.66,2-10.15,2.14-11.03-2.12,5.55-3.91,11.24-5.21,17.05-.74,3.2-1.49,6.44-1.7,9.73-.3,4.87-.08,9.79,1.08,14.54.58,2.37,1.18,4.77,2.23,6.98-3.15,1.48-9.16.12-12.45-.8-6.93-1.9-13.77-4.75-19.36-9.35-4.77-4.07-8.96-8.82-13.37-13.27-7.85-8.12-14.36-16.95-17.27-28.03-3.33-10.96-3.34-20.36-1.15-31.54,2.21-11.12,6.14-22.29,13.83-30.83,3.06-1.86,6.83-2.52,10.31-3.27,3.91-.81,7.95-1.29,11.93-.75,4.84.48,9.46,2.11,13.94,3.93,1.67.67,3.76,1.77,3.45-1.11.49.27,1.01.69,1.17,1.24.36.72.72,1.48,1.07,2.2.97,2.01,1.79,4.09,2.79,6.08,1.78,3.55,3.89,6.94,6.06,10.26,1.15,1.73,2.57,3.28,4.09,4.68,1.31,1.23,2.67,2.47,4.3,3.27,3.43,1.73,7.22,2.65,10.71,4.25,2.38,1.09,4.47,2.97,7.02,3.62v-.02c-.21-.28-.58-.41-.86-.62-.53-.34-1.03-.74-1.53-1.13-1.47-1.26-2.72-2.76-3.98-4.21,2.93,1.82,6.05,3.82,7.55,7.06Z"/></g><g id="_レイヤー_3"><g><path d="m444.71,382.47c-.54-1.77.42-3.52,2.06-4.21.11-.04.22-.08.33-.12-.05.02-.1.03-.15.05-.02,0-.04.02-.17.07,6.14-2.42,7.37-10.06,8.64-15.81.91-6.56-.73-13.46,3.59-19.08-6.61-1.21-14.31-2.06-19.21-7.1-2.89-4.18-4.5-8.79-7.42-12.87-2.86-5.21-8.45-1.8-9.5,2.8-.22.52-.18.99.06,1.49.61,1.78-.54,3.77-2.29,4.3-3.44,1.02-5.25-3.01-4.8-5.87.89-7.51,8.73-14.62,16.43-11.62,6.36,2.7,8.67,10.45,11.96,15.93.83,2.21,3.07,2.82,5.06,3.6,3.14,1.48,6.63,1.67,9.98,2.41,1.67.23,3.35.23,5.03.33,1.28-.09,2.53.24,3.38,1.29,1.62,1.97.39,4.46-1.03,6.15-1.38,2.09-2.91,4.19-3.65,6.57-.51,2.2-.16,5.12-.34,7.02-.25,7.52-2.03,15.95-6.69,21.94-2.3,3.08-9.03,8.18-11.28,2.72Z"/><path d="m423.52,408.47c-10.5,2.94-21.58.28-32.15-1.07-5.14-1.12-9.54-4.37-14.8-5.03-7.22-1.54-11.79-.67-17.67,3.87-1.24.8-2.1,2.17-3.56,2.58-3.52.77-4.85-2.28-4.54-5.31-.25-16.35-14.77-29.97-10.49-46.75,1.32-5.71,4.63-11.02,9.3-14.57,2.67-1.59,7.68-3.89,9.13.28.56,1.84-.52,3.7-2.29,4.3-7.79,2.24-10.65,11.97-9.8,19.28.66,5.92,3.31,11.31,5.86,16.59,2.12,5.28,4.09,10.71,4.82,16.38,7.34-5.66,16.89-4.72,25.3-2.33,3.11,1.1,5.98,2.81,9.18,3.68,3.09.91,6.35.99,9.53,1.37,11.69,2.32,21.92,1.31,32.26-4.89,2.6-2.47,6.94-.72,6.23,3.02-.18,1.35-1.84,2.46-2.81,2.96-4.26,2.44-8.75,4.36-13.49,5.64Z"/><path d="m470.9,339.39c-4.38,1.17-6.31-5.2-2.01-6.6.89-.23,1.79-.59,2.59-1.04,3.6-3.38,6-8.54,5.42-13.55-.96-5.73-3.24-11.33-6.3-16.25-8.42-9.62-18.09-18.18-28.74-25.27-7.81-3.98-16.57-5.16-24.94-7.34-4.65-1.18-8.65-4.07-12.43-6.91-2.66,10.56-11.77,17.55-20.58,23.04-8.57,6.06-18.27,10.41-26.16,17.43-1.26,1.24-2.63,2.41-3.75,3.77-1.14,2.24-2.02,4.6-3.1,6.87-1.04,2.55-2.02,5.41-1.64,8.19,1.85,3.4,4.73,7.47,8.38,9,2.19.47,4.75,1.97,6.84.83,2.64-1.21,5.81-2.26,7.13,1.23.71,2.21-.99,4.12-3.08,4.59-3.07,1.44-6.5,2.19-9.74.83-3.24-.74-6.46-1.83-8.8-4.3-3.09-3.22-6.47-6.7-7.59-11.15-.76-4.83,1.09-9.68,3.11-13.99,2.13-7.12,8.07-11.73,13.89-15.86,11.8-9.4,37.93-18.33,38.78-35.35.29-2.87-1.62-6.87,1.74-8.45,1.52-.79,3.49-.06,4.36,1.33,3.11,8.12,11.92,12.2,20.02,13.58,3.34.46,6.88,1.77,10.04,2.54,3.97,1.16,7.87,2.17,11.35,4.4,8.6,5.67,15.79,11.84,23,18.89,2.28,2.26,4.46,4.62,6.65,6.97,2.98,3.71,4.79,8.26,6.37,12.73,3.15,7.39,2.93,16.3-1.93,22.92-1.1,1.36-2.01,2.88-3.26,4.11-1.69,1.37-3.58,2.22-5.63,2.81Z"/><path d="m506.98,457.18c-2.37-.46-4.5-1.71-6.66-2.75-4.8-.97-9.76-.41-14.25,1.51-9.98,3.15-18.06,9.59-27.35,14.1-4.45,2.18-9.24,3.43-14.01,4.71-2.81.85-5.77.78-8.67.96-8.26,1.61-17.08,1.61-25.18-.73-7.38-4.33-15.6-9.61-18.75-17.95-4.48-10.76-7.15-23.31-1.6-34.13,1.53-3.17,3.11-6.9,6.34-8.66,2.52-1.35,6.38-1.13,7.29,2.04.91,2.54-1.86,5.21-4.34,4.29-4.99,6.54-6.81,15.49-4.74,23.43,1.46,4.85,2.69,9.97,5.42,14.28,1.42,1.88,3.7,3.65,5.2,4.95,2.65,1.94,5.25,4.16,8.23,5.53,5.89,1.17,12.01,1.63,17.97.68,2.78-.66,5.62-.71,8.46-.86,3.51-.56,7.3-1.76,10.36-2.7,17.2-6.37,32.86-23.15,52.46-17.74-1.16-5.58-3.49-10.93-3.05-16.75.02-4.93.79-9.82.99-14.74.54-7.5,2.75-14.78,3.38-22.28.99-15.76,2.02-31.7-.91-47.31-.67-2.37-1.3-5.13-3.15-6.81-3.42-4.36-9.73-5.44-14.77-3.52-4.33,1.26-6.32-5.15-2.02-6.59,9.13-3.38,19.6.32,24.42,8.83,3.61,8.28,3.83,17.57,4.27,26.46.3,6.76.1,13.48-.54,20.21-.12,4.53-.2,9.06-.96,13.54-1.04,7.35-2.9,14.41-3.12,21.73-.34,4.64-.98,9.28-.62,13.93.54,4.73,2.54,9.1,3.2,13.83.93,3.27,1.54,8.65-3.32,8.51Z"/><path d="m532.21,382.92c-4.62,1.73-9.48,1.21-13.95-.73-2.63-1.03-5.98-2.66-7.35-5.13-1.67-3.65,3.41-6.68,5.83-3.55,2.75,2.08,6.35,3.54,9.8,3.6,6.06-1.05,11.94-3.47,16.95-7.04,1.89-1.41,4.17-2.08,6.17-3.26,2.23-1.88,4.25-4.01,6.17-6.2,11.33-12.55,17.98-28.96,18.05-45.93.21-11.44.93-22.75-1.67-33.88-2.69-10.78-7.62-21.05-9.7-31.95-.9-6.09.51-12.27,1.33-18.29,0,.04-.01.07-.02.11-10.28,2.54-19.6-4.73-27.93-9.68-7.21-3.32-14.07-7.35-21.29-10.65-3.78-1.7-7.82-2.68-11.62-4.28-7.5-4.1-16.41-4.39-24.78-4.39-2.52.11-5.22.1-7.68-.05-2.92.18-5.8.37-8.72.16-23.19,6-22.91,43.24-17.25,61.65.71,1.99,1.3,4.04,2.31,5.9,2.45,1.61,2.12,5.5-.75,6.39-6,1.89-9.44-13.99-10.15-18.22-2.62-18.45-2.92-40.4,10.77-54.68,3.19-3.96,7.82-5.92,12.51-7.53,3.48-.88,7.1.02,10.65-.57,9.78.16,19.33-.35,28.84,2.1,4.83,1.53,9.24,4.18,14.18,5.47,8.78,3.02,16.5,8.33,25.02,11.92,6.37,3.8,12.41,8.12,19.58,10.08,3.05.33,5.98-.74,8.97-1.08,1.31-.17,2.62.26,3.49,1.28,2.14,2.83.58,6.63.26,9.62-.86,5.83-1.9,11.9,0,17.62,3.26,12.45,9.34,24.26,10.25,37.27.91,7.68.45,16.01.32,23.63.11,8.51-1.22,16.97-3.8,25.08-3.93,12.81-12.1,24.14-21.71,33.34-1.75,1.74-3.98,2.78-6.23,3.7-5.21,3.57-10.75,6.46-16.86,8.16Z"/><path d="m345.76,415.4c-14.87,5.72-31.9,8.22-46.95,1.78-6.25-2.88-12.85-5.54-17.9-10.35-13.42-12.34-19.92-29.72-26.95-46.08-3.85-8.74-5.87-18.43-10.8-26.61-3.72-5.44-9.15-8.32-14.95-11.06-3.91.09-4.95-5.52-1.13-6.76,2.11-.83,4.08.54,5.92,1.46,2.09,1.13,4.24,2.14,6.31,3.3,3.77,2.24,6.92,5.86,9.56,9.21,3.17,4.65,4.79,10.15,6.81,15.35,2.51,7.44,5.22,14.04,8.38,21.09,5.42,13.35,11.98,26.82,23.07,36.4,14,9.85,29.06,13.5,45.8,9.13,4.33-1.21,8.66-2.6,12.84-4.27,2.14-1.13,4.11-2.53,5.87-4.2,1.92-2.17,4.27-5.11,7.2-2.58,2.03,1.94.8,4.66-1.12,6.15-3.24,3.57-7.33,6.55-11.95,8.02Z"/><path d="m383.66,285.21c-2.6.45-4.03-1.88-4.26-4.14-1.91-6.94-4.48-13.8-8.62-19.73-4.33-6.3-10.28-12-17.52-14.74-6.88-1.25-13.64-2.77-20.64-3.15-13.2-.67-25.43,5.21-37.49,9.7-2.39.79-4.29,2.47-6.47,3.67-2.33,1.4-5.02,2.02-7.44,3.24-3.13,2.16-6.85,4.14-9.7,6.59-1.88,1.85-3.79,3.55-5.56,5.44-1.72,2.07-2.98,4.46-4.48,6.68-2.12,2.84-4.54,5.4-6.46,8.39-2.59,3.98-4.66,8.25-7.05,12.34-.88,1.82-1.67,3.75-3.25,5.09-2.55,3.29-6.03,5.44-9.46,7.7-2.17,1.34-5.26,1.58-6.06,4.4.02.05.04.1.06.15,4.34.44,4.29,5.99.33,7.06-4.35,1.02-7.77-4.15-7.3-8.08.42-2.14,1.59-4.11,3-5.75,1.92-2.27,5.09-2.74,7.48-4.34,1.37-1.06,2.78-2.05,4.27-2.93,1.09-1.14,2.27-2.64,3.37-3.61,3.22-5.97,6.25-12.11,10.15-17.69,3.19-3.98,6.27-7.99,8.96-12.33,2.25-3.03,5-5.21,7.62-7.82,3.02-2.71,6.7-4.5,9.97-6.86,2.38-1.53,5.19-2.12,7.7-3.39,4.58-3.36,9.89-5.07,15.08-7.22,16.84-6.88,30.68-9.58,48.66-5.08,12.52.84,22.5,10.27,29.05,20.33,3.64,5.58,5.92,11.89,7.95,18.2.83,2.91,2.23,6.94-1.88,7.89Z"/><path d="m261.85,274.86c-5.71.6-7.38-11.85-9.04-15.97-3.59-11.4-3.13-23.53-1.86-35.26,1.18-11.91,5.06-23.5,10.76-33.99,3.93-6.96,7.38-14.21,12.54-20.38,3.54-5.33,8.65-9.14,12.96-13.76,2.24-2.22,4.54-4.45,5.43-7.57,1.43-5.49,1.18-12.28,6.23-15.94,2.19-2.33,6.89-4.23,8.33-.15.56,1.84-.52,3.7-2.29,4.31-1.03.36-1.75,1.33-2.61,1.98-2.79,4.89-1.7,11.27-4.95,16.06-3.11,4.57-7.26,8.41-11.39,12.06-4.2,3.99-7.5,8.83-10.87,13.51-5.79,10.08-11.53,20.2-14.87,31.41-2.8,11.11-3.81,22.73-3.08,34.16.88,7.89,3.09,15.7,6.14,23.01,3.12,1.65,2.03,6.35-1.44,6.53Z"/><path d="m455.73,206.78c-1.85.07-3.55-1.43-3.58-3.31-.04-2.18-.54-4.32-.86-6.46-4.07-12.5-8.7-24.55-17.24-34.6-3.45-3.31-7.86-5.39-11.63-8.3-4.44-2.47-9.14-4.43-13.74-6.57-5.77-3.88-11.73-7.94-18.66-9.39-7.9-.8-15.86-1.24-23.68-2.68-7.15-2.52-14.07-1.02-21.28.34-7.94,1.11-15.77,3.35-23.73,4.09-4.13-.06-8.26-.81-12.32-1.53-3.34-.95-6.62-3.8-7.08-7.39-.35-1.68.76-3.44,2.39-3.94,1.84-.56,3.7.52,4.3,2.29.12.74.32,1.25.98,1.67,1.21,1.11,3.04.88,4.55,1.31,5.99,1.22,11.9.26,17.78-1.13,8.78-1.62,17.57-3.5,26.49-4.17,3.85.03,7.51,1.51,11.28,2.12,2.93.3,5.86.62,8.77,1.07,7.83.71,15.12.62,22.06,4.43,5.53,2.24,9.86,6.63,15.49,8.59,2.28,1.17,4.54,2.34,6.91,3.31,3.33,1.57,6.16,3.97,9.27,5.91,5.69,3.09,9.6,8.17,13.05,13.5,3.3,4.68,20.86,40.71,10.5,40.85Z"/><path d="m413.94,550.49c-4.78,1.43-9.58,2.79-14.51,3.51-3.74-.12-7.26,1.16-10.98,1.46-7.31.58-14.53,2.45-21.84,1.44-5.05-.05-10.05.78-14,4.17-1.47,3.25-2.82,7.41-6.74,8.29-4.7,1.81-7.83-3.12-10.94-5.79-5.94-5.22-10.99-11.35-17.19-16.3-7.77-6.58-15.3-13.41-23.06-20-7.75-6.75-13.98-15.38-18.11-24.71-7.94-20.05-9.87-38.56.52-58.18,4.63-9.02,9.61-18.13,17.92-24.16,3.55-2.94,7.37-5.56,11.92-6.64,2.15-.7,4.97-1.01,6.55.95,2.67,3.19-.71,7.79-4.34,5.58-6.23,1.65-11.35,6.26-15.63,10.91-4.94,5.46-7.95,12.18-11.35,18.62-8.57,17.64-5.85,34.66,1.6,52.06,2.64,5.19,5.75,10.19,9.4,14.39,4.71,5.35,10.52,9.5,15.72,14.32,7.08,6.63,14.35,11.96,21.17,18.69,4.44,4.76,9.25,9.15,14.01,13.59,1.46-1.66,1.72-4.12,3.08-5.89.75-1.09,2.01-1.69,3.1-2.41,6.34-5.18,14.77-4.26,22.36-4.13,5.25-.39,10.71-1.26,15.77-1.72,3.21-.25,6.3-1.71,9.54-1.33,8.1-1.15,15.96-3.81,23.68-6.47,5.41-2.23,9.51-5.76,14.17-8.91,7.68-4.92,16.27-9.24,21.24-17.2,3.9-8.31,8.34-16.26,10.57-25.16.59-8.29-1.38-16.87-4.54-24.51-.86-1.67.07-3.82,1.72-4.56,3.9-1.59,5.35,3.15,6.23,6,.84,2.16,1.34,4.43,1.77,6.71,1.46,5.47,2.18,11.08,1.74,16.59-.61,4.64-2.66,8.94-4.32,13.27-3.94,7.36-6.15,15.96-12.55,21.7-5.42,5.94-12.86,9.28-19.37,13.81-7.25,5.7-15.34,9.85-24.31,12.01Z"/><path d="m576.95,508.8c-4.47,1.51-9.11,2.69-13.67,3.89-6.25,1.65-12.74,3.1-19.23,2.29-4.03-1.2-8.2-1.98-12.12-3.46-4.15-1.18-7.87-3.58-11.73-5.48-2.62-1.52-4.83-3.63-6.86-5.87-1.63-1.05-3.51-2.64-4.63-4.01-7.42-6.98-13.11-15.66-16.38-25.32-1.64-4.08-1.6-8.46-1.99-12.77-.29-2.77-1.11-5.95.38-8.48,1.59-2.25,5.34-1.65,6.09,1.03.25.92.38,1.9-.03,2.77.25,3.51.81,6.99.9,10.52.79,5.07,3.13,9.72,5.45,14.24,3.61,6.31,8.56,12.01,14.19,16.38,2.72,2.57,5.2,5.43,8.81,6.81,4.57,2.68,9.5,4.36,14.62,5.6,2.83.92,5.51,1.57,8.47,1.39,10.79-1.14,21.17-4.68,31.46-8,5.47-1.79,8.82-6.02,13.45-8.91,8.42-6.27,17.38-11.87,25.13-19,2.58-2.43,4.93-5.12,7.25-7.8,4.58-4.5,9.99-8.25,14.03-13.26,4.6-6.02,8.41-12.71,13.51-18.34,3.52-3.04,7.07-6.17,11.21-8.35-6.97-6.14-9.16-17.39-10.27-26.15-1.8-12.41-2.11-25.17-5.09-37.37-1.57-5.77-3.23-11.61-5.91-16.97-1.88-3.34-4.31-6.31-6.55-9.4-2.72-3.72-4.95-7.77-7.8-11.41-1.54-2.29-2.8-4.82-4.83-6.73-1.57-1.25-3.46-2.01-5.09-3.18-3.62-2.51-7-5.37-10.67-7.79-5.29-3.34-11.58-4.97-17.83-4.55-2.81.45-5.47,1.53-8.33,1.69-.98.21-1.94.38-2.74.67-5.3,1.11-6.16-6.41-.71-6.96,3.62-.66,7.08-1.43,10.65-2.21,7.96-.76,16.11,1.34,22.82,5.65,3.88,2.6,7.46,5.6,11.32,8.22,2.51,1.42,5.12,2.8,6.92,5.13,2.78,3.88,5.25,7.72,8.01,11.54,2.68,4.63,6.12,8.75,9.14,13.16,3.77,5.61,5.55,12.25,7.55,18.62,2.82,10.59,3.94,21.52,4.84,32.39,1.38,9.93,1.73,20.87,7.83,29.26,2.76,2.82,9.54,6.34,4.49,10.47-5.79,2.15-10.88,5.9-15.22,10.27-5.9,7.47-10.32,16.18-17.56,22.51-2.46,2.39-5.12,4.55-7.75,6.75-2.72,2.8-5.1,5.95-7.97,8.61-6.63,6.25-14.11,11.35-21.52,16.53-4.1,3.11-8.46,5.88-12.3,9.33-4.04,3.05-8.98,4.55-13.75,6.03Z"/><path d="m571.24,263.49c-3.49-2.82.33-6.28,2.23-8.67,6.21-6.75,9.98-15.48,10.22-24.68-.26-11.71-2.57-22.62-5.56-33.81-2.18-8.61-5.03-17.13-8.5-25.3-3.44-6.28-8.25-11.67-13.73-16.23-6.44-5.02-13.24-9.54-20.01-14.09-4.55-2.88-9.5-5.36-12.86-9.71-2.44-3.25-4.75-6.63-6.66-10.23-1.49-3.39-2.45-7.07-4.4-10.27-1.66,1.15-2.32,3.13-3.47,4.69-1.93,3.19-5.99,3.67-9.33,4.35-1.7.18-3.28-.31-4.93-.57-3.38,0-6.5-1.2-9.76-1.95-5.11-1.19-10.49-1.26-15.71-.97-6.72-.09-13.19,1.43-19.58,3.34-3.8.17-7.37,1.47-10.74,3.18-3.27,1.26-6.56,2.38-9.41,4.49-6.77,4.44-15.98,7.93-18.33,16.43.72,1.87-.38,3.88-2.22,4.51-2.55.87-4.77-1.61-4.73-4.01,1.1-12.47,14.12-17.92,23.39-23.86,2.25-1.54,4.77-2.56,7.37-3.38,3.02-1.24,5.92-2.84,9.14-3.54,4.77-.41,9.14-2.33,13.84-3.07,7.89-1.28,15.96-1.35,23.93-.7,4.6.38,8.86,2.54,13.49,2.66,2.51.67,4.97.59,7.41-.37,1.18-.86,1.53-2.46,2.44-3.57,1.58-2.15,3.51-3.64,5.5-5.3,5.22-3.62,8.57,5.91,10.12,9.37,2.72,7.08,6.52,14.6,13.05,18.85,8.65,5.29,17.08,10.97,25.15,17.11,7.05,5.32,13.12,12.12,17.29,19.93,2.25,4.87,3.82,10.01,5.6,15.06,4.15,13.1,7.55,26.55,8.73,40.28,1.58,11.9-1.92,24.06-9.43,33.39-1.46,1.81-3.1,3.49-4.41,5.42-.98,1.81-3.41,2.49-5.13,1.22Z"/><path d="m301.55,532.26c-7.15,2.69-14.69,3.55-22.28,3.42-8.46,1.1-17.6,1.24-25.51-2.35-4.62-2.26-9.13-4.72-13.09-8.03-3.21-2.68-5.95-5.11-9.41-7.33-2.79-1.67-5.78-3.03-8.4-4.94-2.15-1.57-4.75-3.98-6.87-5.25-6.93-3.72-10.04-11.59-16.55-15.82-3.08-2.87-4.77-2.91-8.72-2.01-6.27,1.47-9.3-2.11-5.73-7.79,3.09-8.45-.22-18.12-1.58-26.68-2.4-10.04-4.32-20.23-4.05-30.63.5-8.16,2.52-16.1,4.28-24.05,2.61-13.55,4.86-27.85,12.31-39.71,1.63-2.67,3.64-5.13,6.37-6.73,2.96-2.44,5.64-5.25,8.9-7.31,5.33-3.68,9.29-9.36,15.55-11.59,5.15-1.62,22.9-9.81,25.36-2.91.91,2.76-2.17,5.38-4.76,4.19-3.34-.15-6.43,1.21-9.54,2.21-3.95,1.31-8.14,2.28-11.68,4.53-5.33,4.65-10.82,9.07-16.32,13.46-2.53,2.68-6.12,4.19-7.87,7.58-4.88,7.52-7.19,16.57-9.16,25.25-2.11,13.86-7.32,27.48-6.35,41.53.24,17.24,9.4,34.12,5.76,51.41,4.77-1.01,8.65,1.25,12.11,4.29,5.14,3.41,8.19,8.97,12.64,13.11,3.81,2.5,7.35,5.27,10.97,8.03,2.97,1.84,6.13,3.32,8.99,5.32,4.4,3.03,8.13,6.96,12.65,9.82,3.12,1.73,6.21,3.61,9.58,4.8,5.18,1.5,10.67,1.54,16.02,1.19,5.94-1.01,12-.01,17.87-1.65,3.08-.78,6.13-1.73,9.11-2.82,1.72-.89,3.91-.09,4.7,1.66,1.46,3.71-2.41,5.07-5.27,5.82Z"/><path d="m307.38,657.1c-3.19-1.25-2.93-5.44-4.61-7.99-3.15-6.21-8.95-10.53-14.38-14.66-5.81-3.89-9.55-9.88-13.5-15.48-4.21-5.73-8.57-11.41-11.54-17.91-4.57-9.59-7.24-19.94-10.65-29.97-3.92-13.55-7.43-32.27-2.23-45.72.56-1.2,1.28-2.41,2.54-2.98,2.03-.9,4.95.03,5.64,2.27.55,1.82-.49,3.65-2.22,4.28-4.25,16.04.5,33.5,5.68,48.83,2.62,7.8,4.88,15.77,8.84,23.04,2.83,5.38,6.7,10.09,10.18,15.05,2.78,3.85,5.3,8.06,8.98,11.17,7.93,6.08,16.72,12.28,20.19,22.09,2.26-2.67,5.15-4.73,8.79-4.82,2.85.01,6.73.22,6.52,4.02-.18,1.92-1.88,3.22-3.75,3.12-1.1-.04-2.21-.43-3.3-.1-1.66.29-2.4,1.97-3.66,2.93-2.04,1.71-4.7,3.7-7.51,2.84Z"/><path d="m384.26,653.82c-6.58,1.72-13.32,2.64-20.11,2.99-4.09-.38-8.16-.91-12.29-1-4.11-.2-8.21-.54-12.32-.7-4.77-.69-9.35-2.06-13.96-3.4-7.08,1.92-6.59-10.94,2.03-6.58,4.18,1.16,8.3,2.45,12.61,3.12,3.93.09,7.84.5,11.77.67,5.43,0,10.76,1.39,16.16.66,3.03.13,5.9-.79,8.85-1.32,5.26-.43,10.12-2.76,14.61-5.4,8.94-7.88,20.24-13.71,26.23-24.45,1.3-3.23,3.44-6.02,4.75-9.27,1.21-2.47,1.16-6.75,4.92-6.44,4.28.71,3.2,4.92,1.92,7.84-1.3,3.04-2.66,6.09-4.51,8.84-4.41,10.15-13.64,17.24-22.46,23.47-1.88,1.36-3.6,2.92-5.33,4.45-3.79,2.97-8.33,4.95-12.85,6.53Z"/><path d="m520.37,625.03c-5.95-.9-12.03.71-17.96.81-4.08.6-7.96-1.35-12.03-1.17-7.77-.11-15.89,1.71-23.44-.76-4.23-1.08-8.29-3.16-12.33-4.18-4.05-1.4-8.33-1.88-12.58-2.2-5.12-.75-9.89-2.88-14.36-5.41-8.64-4.99-15.52-12.55-21.09-20.73-6.42-7.82-9.73-17.49-11.82-27.27-.58-4.75-4.38-15.65,1.4-17.91,1.78-.61,3.77.54,4.3,2.29.32,1.04.11,2.09-.45,2.91-.07,1.08,0,2.15.09,3.23.96,7.5,2.95,14.81,5.48,21.92,1.79,4.22,4.18,7.56,6.76,11.07,6.45,9.59,15.19,18.24,26.32,22.03,4.63,1.48,9.55,1.29,14.27,2.39,4.67,1.19,9.02,2.93,13.46,4.52,8.01,3.18,16.88.91,25.17,1.26,2.69.13,5.34.37,7.92,1.18.77.16,2.02,0,2.57-.03,4.7.34,21.33-4.23,21.61,2.48.08,1.9-1.47,3.49-3.31,3.58Z"/><path d="m541.12,636.83c-2.6-.22-4.37-2.35-6.14-4.03-1.6-1.39-3.09-2.9-4.68-4.3-2.58-2.13-6.15-2.56-8.9-4.45-2.92-2.04-1.26-6.81,2.32-6.51,1.75-.19,2.6,1.5,4.07,2.02,4.96,1.4,8.51,4.98,12.15,8.43.39-3.33.87-6.67,1.6-9.95,2.04-6.47,8.76-11.06,12.79-16.04,5.91-6.61,11.11-13.34,17.29-19.62,1.68-2.17,3.54-4.2,5.08-6.47,1.19-2.01,1.85-4.28,2.96-6.33,2.83-4.84,4.48-10.22,7.15-15.15,3.81-8.77,8.14-17.48,10.07-26.92,1.37-8.87,2.23-18.19-.14-26.95-.21-.83-.49-1.65-.77-2.46-.6-1.78.54-3.77,2.29-4.31,1.84-.56,3.7.52,4.31,2.29,3.56,10.35,2.85,21.53,1.16,32.18-2.4,12.19-8.17,23.49-13.38,34.64-1.41,3.71-3.06,7.28-5.02,10.73-1.41,3.49-2.99,6.92-5.64,9.65-3.51,4.58-7.62,8.64-11.44,12.96-3.89,4.69-7.77,9.32-11.94,13.76-2.52,2.95-5.65,5.34-7.71,8.7-1.21,3.31-1.39,7.02-1.88,10.5-.02,3.32-1.61,7.9-5.6,7.62Z"/><path d="m664.04,405.02c-5.85,1-6.47-7.48-.57-6.93,3.52-.98,6.17-1.9,8.9-3.98,2.08-1.98,4.04-4.09,6.88-4.96,4.18-3.37,9.03-5.76,12.86-9.57,4.51-4.81,8.05-10.43,11.61-15.94,3.11-4.92,7.23-8.72,10.27-13.57,2.53-4.03,3.83-8.69,4.87-13.3,2.99-14.64,2.35-29.73,3.51-44.57-.12-4.7-.32-9.43.17-14.11.93-4.52,3.53-8.56,5.46-12.7-1.07-2.54-4.01-3.96-6.16-5.58-2.41-1.86-4.79-3.59-6.7-5.95-5.24-6.19-8.8-13.57-13.95-19.84-1.88-3.18-3.6-6.47-6.17-9.17-2.78-2.97-6.09-5.37-9.03-8.18-1.53-1.58-3.17-3.05-5.03-4.23-2.37-1.73-3.7-3.37-6.27-4.46-5.6-3.62-12.14-5.28-18.6-6.62-4.85-.29-9.4-1.59-13.95-3.15-7.34-1.68-14.44.3-21.73,1.2-4.32,1.03-8.73,1.6-13.13,1.75-9.05,1.78-16.21,8.13-21.45,15.47-2.18,3.95-8.16.76-6.07-3.27,3.24-4.87,7.42-9.26,12.16-12.7,4.19-3.6,9.6-5.16,14.89-6.41,3.66-.19,6.72-.22,10.21-1.17,6.57-1.21,13.25-2.22,19.91-2.54,4.92.29,9.52,1.8,14.16,3.25,21.44,2.1,31.12,9.67,46.27,23.73,4.49,3.8,7.37,8.88,10.34,13.84,3.57,4.31,6.47,9.09,9.38,13.85,2.69,3.9,6.01,7.31,10.02,9.86,3.26,2.39,7.02,4.96,7.75,9.23.58,2.1-.6,4.18-1.6,5.96-1.39,2.83-2.92,5.66-3.87,8.68-.45,4.43-.18,8.91-.12,13.35-.48,6.34-.79,12.46-.77,18.64-.81,9.83-.99,19.8-3.36,29.41-1.37,5.26-3.09,10.57-6.36,14.99-4.06,5.54-8.73,10.6-12.2,16.57-3.02,4.69-6.79,10.08-10.91,13.78-2.29,2.39-5.11,4.04-7.91,5.72-1.83,1.37-3.5,2.99-5.56,4.03-3.01.81-4.44,3.82-7.15,5.18-3.24,2.32-7.17,3.51-11,4.44Z"/><path d="m234.08,590.07c-9.64,3.74-20.24,2.9-30.05.27-3.6-.89-7.16-2.04-10.34-3.98-6.03-3.4-11.14-8.08-16.36-12.57-2.71-2.22-5.62-4.25-8.02-6.79-9.02-8.53-10.41-21.85-15.94-32.22-1.79-2.09-4.6-2.96-6.5-4.89-1.43-1.88-2.46-4.57-1.74-6.92,1.06-2.37,4.18-3.39,3.86-6.42-.02-4.79-2.3-9.14-3.64-13.65-2.44-8.4-4.98-16.79-6.07-25.47-1.06-5.54-1.55-11.43-1.18-16.99.16-5.3-.47-10.58-.09-15.87.52-5.2,1.31-10.37,2.15-15.53,2.25-9.15,5.72-18.5,11.97-25.7,2.27-2.61,3.97-5.74,6.54-8.07,4.03-3.2,7.74-6.92,12.36-9.29,4.89-2.12,10.04-3.6,15.17-5.03,2.95-.85,7.79-1.81,9.14,1.84.56,1.85-.52,3.7-2.29,4.31-5.93-.05-11.99,2.64-17.72,4.5-4.68,2.03-8.25,5.83-12.21,8.93-2.34,2.54-4.15,5.54-6.47,8.13-7.07,8.97-10.02,20.5-11.21,31.69-.85,5.04-.71,10.12-.47,15.2.13,4.69-.31,9.38.08,14.07.7,4.87,1.41,9.74,2.29,14.58,1.79,5.98,2.97,12.13,5.03,18.03,2.53,7.22,6.57,17.06-.33,23.08,0,0,0,0,0,0,3.94,2.26,7.67,5.15,9.17,9.62,3.24,7.97,5.16,16.57,10.03,23.8,3.06,4.25,7.4,7.21,11.36,10.53,4.27,3.66,8.41,7.51,13.27,10.4,6.99,4.28,15.45,5.61,23.52,6.14,9.12.01,17.91-3.74,25.29-8.88,1.62-1.57,3.2-3.2,4.75-4.84,2-2.62,4.84-8.18,8.68-5,1.3,1.25,1.48,3.59.12,4.88-1.18,1.09-1.97,2.51-2.92,3.79-5.37,6.99-13.01,11.47-21.25,14.34Z"/><path d="m652.9,608.24c-2.19.8-4.51,1.07-6.8,1.4-3.76.9-7.64,2.05-11.53,1.8-4.03.23-7.98-.15-11.96-.77-3.23-.56-6.56.14-9.78-.63-5.34-1.44-10.77-2.83-15.33-6.14-1.01-.41-2.21.06-3.25-.48-.58-.23-1.09-.55-1.59-.89-4.32-.3-8.91-2.05-11.91-5.25-2.8-3.29-6.02-6.56-7.3-10.78-1.23-4.34,5.15-6.31,6.6-2.01.67,2.19,2.27,3.98,3.7,5.71,1.57,1.9,3.1,3.97,5.65,4.51,2.26,1.34,5.1.46,7.19,2.16,3.23-.42,5.52,2.14,8.23,3.41,2.55,1.13,6.92,2.31,9.82,3.11,2.56.39,5.14-.06,7.69.29,5.73.8,11.63,1.49,17.38.43,5.25-1.43,10.73-1.82,15.75-4.06,3.68-1.48,7.51-2.56,11.16-4.12,3.43-2.02,6.63-4.42,9.68-6.97,8.58-9.26,20.38-15.15,27.39-25.84,3.45-3.63,7.9-6.21,12.63-7.79,2.2-1,5.53-.44,6.47-2.99-1.6-6.47.54-13.01,3.35-18.82,2.05-4.63,3.86-9.39,6.05-13.96,2.27-4.39,4.73-8.71,6.15-13.47,1.18-4.12,2.54-8.2,3.24-12.44,1.01-5.5.73-11.06.87-16.61.14-17.98-4.42-36.78-16.01-50.87-4.54-4.37-8.97-8.99-14.17-12.58-5.01-3.31-10.53-5.73-16.09-7.93-3.94-2.06-8.04-3.7-12.21-5.2-2.01-.73-4.07-.61-6.16-.42-1.88-.08-3.29-1.95-3.12-3.75,2.09-9.36,23.8,3.28,29.16,5.07,8.24,3.43,15.64,8.34,21.99,14.6,7.73,6.71,13.33,15.41,17.05,24.9,6.97,17.12,8.35,40.71,4.48,58.75-2.04,8.64-5.4,16.77-9.74,24.5-2.69,7.11-6.75,13.84-8.33,21.29-.89,3.47,1.63,7.1-.47,10.29-.89,1.66-2.01,3.23-3.65,4.23-1.72.87-3.71,1.08-5.56,1.62-3.7,1.01-7.12,2.88-10.03,5.37-1.99,2.04-3.29,4.65-5.31,6.68-5.31,5.82-12.05,10.03-17.91,15.25-4.66,4.8-9.78,9.11-15.49,12.62-5.86,2.89-12.05,4.52-18,6.8Z"/><path d="m735.91,431.56c-2.09-.39-3.08-2.84-2.52-4.64.48-5.44.99-10.88,1.45-16.31-1-14.24-1.57-28.66-3.5-42.65-2.41-11.85-6.23-23.35-10.18-34.76-1.24-4.3,5.14-6.34,6.6-2.01,4.18,12.04,8.19,24.19,10.57,36.72,1.04,9.01,1.94,18,2.41,27.01.15,7.94,1.77,15.54.28,23.35-.21,3.12-.39,6.45-.8,9.5.07,2.33-1.95,4.35-4.31,3.8Z"/><path d="m537.5,712.06c-2.04.32-3.65-1.02-5.38-1.85-1.61-.58-3.1-1.61-4.74-1.98-6.07.24-11.59,3.03-17.36,4.57-4.35,1.45-8.72.99-13.15.3-3.07-.2-6.09.34-9.15.38-5.65.7-11.28-.31-16.87-1.06-5.69-.83-11.24-1.99-16.54-4.29-2.86-1.27-5.97-1.55-8.98-2.24-2.69-1.29-5.74-1.08-8.47-2.36-7.71-2.52-13.03-8.72-18.64-14.18-3.43-3.18-6.16-6.97-8.89-10.74-4.05-4.62-7.36-9.75-9.86-15.37-2.4-4.52-4.28-9.28-5.77-14.17-.49-1.58-1.07-3.38-.35-4.99.74-1.89,3.05-2.82,4.87-1.82,1.31.71,2.03,2.27,1.75,3.7.32,1.17.73,2.32,1.12,3.47,2.34,6.85,5.54,13.52,9.45,19.61,4.92,6.07,9.12,12.77,15.17,17.81,3.24,3.85,7.08,7.32,11.68,9.45,2.35,1.14,4.83,1.71,7.41,2.02,3.12,1.34,6.58,1.52,9.8,2.52,6.71,2.83,13.73,4.58,20.99,5.21,4.96.98,9.86.75,14.84.4,4.63-.77,9.24.14,13.84.52,10.13-1.42,20.62-9.41,30.5-3.12.47-3.15,1.71-6.26,4.52-7.99,4.56-3.87,9.16-5.62,14.43-8.02,8.42-4.5,16.44-9.71,24.81-14.26,5.27-3.13,10.75-6.06,15.42-10.07,2.65-2.53,4.8-5.53,7.22-8.27,10.22-12.64,16.68-29.7,14.47-46.08-1.2-4.35,5.15-6.37,6.59-2.03,1.97,9.48.21,19.22-2.68,28.33-3.68,12.98-12.09,24.1-21.46,33.57-6.72,5.72-14.81,9.39-22.24,14.01-5.79,3.52-11.74,6.8-17.63,10.16-5.39,2.9-11.41,4.67-15.88,9.06-1.67,3.23-.11,9.08-4.83,9.79Z"/><path d="m663.92,652.12c-5.94,1.74-12.08,2.4-18.14,3.52-3.88,1.01-7.84,1.96-11.88,1.49-5.44-.68-11.1.5-16.29-1.77-3.83-1.61-8.35-3.76-10.26-7.61-1.18-3.87,4.27-6.2,6.26-2.73,4.6,4.34,10.83,5.44,16.93,4.95,5.44.81,10.28.03,15.53-1.42,10.67-1.61,21.7-3.26,30.88-9.31,5.61-2.73,11.43-5.89,15.81-10.32,5.15-5.19,11.16-9.79,16.28-14.89,7-7.79,12.23-16.85,19.1-24.74,4.17-5.19,9.96-8.98,13.83-14.4.84-2.13.96-4.45,1.48-6.67.87-5.86,3.39-11.23,5.21-16.83,1.51-5.68,2.46-11.7,2.38-17.54.32-7.55-1.75-14.87-4.33-21.89-.66-2.7-2.94-4.29-4.62-6.34-1.15-1.49-.97-3.65.51-4.85,3.39-2.57,5.87,1.82,8.04,3.92,3.43,5.08,4.45,10.9,6.12,16.64,2.01,9.65,1.4,19.75-.8,29.31-1.43,6.48-4.82,12.36-5.76,18.97-.72,3.06-.83,6.35-2.47,9.11-3.8,5.33-9.2,9.32-13.53,14.01-9,10.29-15.37,22.85-26.08,31.58-7.06,5.66-12.9,12.84-20.83,17.37-7.73,3.71-14.87,8.91-23.46,10.48,0,0,.09-.02.09-.02Z"/><path d="m399.54,699.61c-4.44,1.49-8.9,3.11-13.57,3.72-3.73.14-7.42.23-11.13.72-7.9,1.1-15.57,3.74-23.29.77-5.95-1.57-11.99-2.6-18.08-3.42-3.47-.85-7.02-1.19-10.48-2.05-2.68-.46-5.24-1.29-7.99-1.34-3.76.24-8.33,4.39-11.52.92-1.61-2.02-.17-4.85-1.44-7.03-4.88-11.36-19-13.43-27.19-21.46-11.66-12.45-19.83-27.82-24.68-44.1-2.33-6.66-4.17-13.46-5.1-20.46-1.26-8.72-2.34-17.83-.3-26.5.84-3.61,6.48-5.53,7.94-1.31.47,1.55-.22,3.12-1.51,3.93-1.89,14.36,1,28.79,5.56,42.32,4.49,15.18,12.08,29.49,22.85,41.13,2.66,2.75,5.93,4.24,9.22,5.95,8.49,4.96,18.37,10.55,20.55,20.97,6.29-2.7,12.88.03,19.19,1.09,6.24,1.4,12.67,1.78,18.86,3.35,3.45.63,6.73,1.65,10.02,2.45,2.61.55,5.14-.59,7.74-.53,6.95-1.59,14.08-1.96,21.13-2.47,4.83-1,9.65-2.48,14.16-4.49,4.3-2.31,8.04-5.62,11.07-9.42.95-1.09,1.55-2.59,3.06-3.01,2.78-.97,5.6,2.39,4.04,4.94-4.7,6.74-11.24,12.67-19.12,15.32Z"/><path d="m195.7,386c-1.01.31-2.03.12-2.84-.4-6.4-2.22-9.97-8.45-14.38-13.17-6.91-8.19-11.89-17.83-16.36-27.51-5.98-12.67-10.34-26.39-11-40.46-.13-6.18.99-12.3,1.31-18.46.12-3.88,1.3-7.82.42-11.67-1.61-5.13-4.2-9.75,2.78-11.9,8.12-1.34,9.71-.88,14.74-8.07,5.24-8.12,12.8-15.29,19.69-21.87,8.93-9.12,20.63-14.57,31.98-20.02,8.13-2.75,16.31-7.12,25.11-5.38,3.68.15,12.72.14,12.39,5.16-.17,1.81-1.89,3.37-3.75,3.12-1.56-.18-2.82-1.04-4.37-1.18-3.67-.04-7.33-.72-10.99-.52-10.36,2.3-19.87,7.12-29.28,11.87-12.66,6.71-22.39,17.46-31.78,28-6.15,8.51-9.31,14.93-21.05,15.3,2.01,4.67,1.98,9.65,1.25,14.59-.4,8.39-2.18,16.72-1.29,25.12,2.65,20.53,13.24,44.6,26.4,60.51,2.86,3.16,5.28,6.82,8.82,9.29.94.68,2.13.76,3.09,1.4,2.37,1.57,1.88,5.46-.89,6.25Z"/><path d="m445.16,118.8c-4.57-1.36-8.04-5.1-12.68-6.38-8.38-1.88-17.36-1.11-25.85-.75-7.3.85-14.55,1.96-21.92,2.11-10.91,2.37-22.42.15-32.95,4.38-5.15,2.3-10.33,4.51-15.53,6.68-2.08,1.3-3.94,2.94-6.3,3.75-5.34,2.09-10.61,5.09-13.91,9.92-.31,8.65-15.85,2.16.36-10.24,3.52-3.15,7.99-4.7,12.21-6.62,3-2.19,6.2-3.87,9.67-5.2,5.62-2.03,10.8-5.14,16.69-6.47,4.7-1.46,9.73-1.53,14.61-1.58,8.91-.37,17.98-1.97,27.47-2.39,7.03-1.35,14.22-1.62,21.37-1.65,8.15-.19,16.69.32,23.66,5.02,1.38.86,2.71,1.81,4.18,2.53,1.98.42,3.54,2.18,3.04,4.29-.41,1.81-2.32,3.05-4.13,2.59Z"/><path d="m652.15,198.17c-3.25.7-4.21-1.55-4.94-4.19-1.36-3.8-3.05-7.49-4.73-11.16-2.91-5.45-5.95-10.82-10-15.5-4.26-4.24-8.22-7.72-12.91-10.97-4.9-2.49-10.11-4.39-15.31-6.14-4.33-1.07-8.07-3.58-12.33-4.8-5.46-1.91-11.18-2.95-16.57-5.05-7.67-3.32-15.19-7.01-22.67-10.71-4.38-1.82-8.34-4.56-12.8-6.19-3.98-.87-7.91-2.21-11.98-2.56-2.49.02-4.97.25-7.46.36-1.59.84-3.59.17-4.54-1.3-.95-1.42-.53-3.43.76-4.49,1.34-1.1,3.18-1.07,4.82-1.17,3.1-.17,6.25-.57,9.33-.03,6.72,1.31,13.37,2.88,19.31,6.43,8.29,4.31,16.81,8.16,25.25,12.19,5.31,2.48,11.09,3.51,16.64,5.31,3.36.97,6.62,2.19,9.72,3.82,6.95,2.56,13.85,4.64,20.49,7.9,6.72,4.29,12.94,9.71,17.95,15.93,4.98,6.81,8.95,14.3,12.12,22.11,1.11,3.15,4.43,8.46-.15,10.21Z"/><path d="m246.88,618.11c-4.8,1.69-9.65-.19-14.08-1.96-6.94-1.94-12.95-6.4-15.89-13.12-1.22-3.68-6.12-13.94-1.26-16.03,2-.94,4.34.38,4.89,2.45.42,1-.18,1.93.16,2.91,1.72,8.12,5.27,15.01,13.91,17.08,2.77,1.26,5.71,2.26,8.75,2.49,1.19-.19,1.96-.54,2.89-.8,1.71-.78,3.79.02,4.56,1.72,1.24,2.75-1.33,4.98-3.92,5.26Z"/><path d="m165.99,395.52c-3.76-1.2-4.97-5.81-6.5-9.03-4.07-10.35-.91-23,5.76-31.41,1.82-2.13,4.63-3.7,6.79-1.22,1.94,2.64-.05,4.49-1.98,6.2.13-.16.19-.22.29-.35-6.11,8.16-7.94,19.77-2.37,28.63,1.51-.06,2.98.98,3.43,2.45.99,3.15-2.66,5.24-5.41,4.73Z"/><path d="m259.79,652.33c-5.88-2.45-10.06-7.78-15.41-11.15-10.56-8.19-21.5-16.15-29.98-26.52-4.16-6.12-8.26-12.65-11.82-19.07-2.28-3.72-5.83-8.15-5.03-12.73,1.59-4.39,8.91-1.59,7.2,2.71,1.39,3.25,3.38,5.78,5.09,8.68,1.21,2.37,2.43,4.74,3.99,6.91,3.71,6.08,7.63,11.96,12.96,16.75,8.81,8.33,18.83,15.19,28.17,22.8,2.11,1.75,4.3,3.43,6.59,4.95,1.71.47,2.76,2.36,2.37,4.08-.43,1.89-2.31,2.96-4.13,2.6Z"/><path d="m405.16,789.37c-1.66.09-2.88-1.03-4.16-1.9-2.16-1.29-4.09-2.89-5.91-4.62-4.86-4.42-9.76-8.79-14.11-13.73-6.78-7.3-12.76-16.03-19.18-23.44-5.81-6.26-11.02-12.97-17.15-18.91-5.87-5.72-11.09-12.14-17.57-17.2-2.1-2.24-4.85-3.73-6.66-6.21-2.55-1.99-4.78-4.59-6.07-7.56-1.74-5.03,5.79-7.3,6.73-1.92,1.41,2.53,3.89,3.95,5.58,6.25,2.88,2.04,5.3,4.64,8.09,6.83,6.56,6.24,12.73,12.88,19.04,19.36,4.34,4.48,8.33,9.59,12.56,14.12,7.5,8.42,13.84,18.01,21.65,26.14,5.16,5.17,10.39,10.44,16.27,14.76,1.64,1.28,4.18,1.96,4.24,4.44.08,1.91-1.47,3.49-3.31,3.58Z"/><path d="m595.13,825.93c-15.76,4.81-32.19,7.7-48.68,7.61-11.61-.86-23.02-3.25-34.6-4.39-4.02-.3-7.96-1.04-11.89-1.94-9.17-.88-18.08-2.75-26.99-4.96-7.81-2.01-14.66-6.48-22.12-9.43-3.02-1.45-6.28-2.28-9.47-3.25-3.44-1.27-6.47-3.43-9.82-4.91-5.39-2.17-10.49-4.95-15.75-7.41-3.25-1.77-5.9-4.4-9.02-6.37-5.1-3.11,0-9.95,4.28-5.42,3.11,1.93,5.68,4.66,9,6.26,4.64,1.96,9,4.56,13.7,6.38,2.98,1.29,5.71,3.01,8.62,4.43,3.41,1.38,7.07,2.05,10.42,3.62,6.9,2.7,13.28,6.66,20.32,8.99,8.88,2.33,17.89,4.26,27.04,5.14,7.51,1.63,15.13,2.39,22.78,3.19,8.01,1.42,16.07,2.55,24.18,3.2,30.57.07,59.61-10.89,86.93-23.61,10.53-6.34,21.54-11.59,32.09-17.65,7.71-4.11,13.44-10.88,19.27-17.22,4.37-4.76,8.83-9.5,12.44-14.89,7.72-11.27,16.87-21.52,22.97-33.84,2.8-5.98,7.4-10.81,11.24-15.91,8.41-11.9,17.55-23.27,26.68-34.63,4.36-5.21,8.07-10.93,11.61-16.72.69-1.49,1.07-3.34,2.72-4.06,2.58-1.29,5.87,1.61,4.64,4.36-5.07,10.92-13.11,20.26-20.76,29.48-6.06,8.11-12.51,15.91-18.31,24.22-3.04,4.46-6.38,7.68-9.17,11.93-2.79,4.88-5.48,9.8-8.31,14.65-2.77,5-6.8,9.15-10.03,13.85-4.54,6.01-8.52,12.43-13.42,18.16-7.14,7.95-13.95,16.18-22.29,22.89-6.46,4.62-13.84,7.94-20.76,11.77-6.42,3.28-12.6,7.01-18.93,10.46-13.29,5.96-26.71,11.68-40.64,16.01Z"/><path d="m661.38,721.96c-.77-1.71,0-3.79,1.72-4.56,2.18-1.18,4.36-2.37,6.55-3.53,6.97-3.88,13.4-8.67,20.54-12.24,4.03-1.67,8.27-2.81,12.35-4.39,7.85-3.29,14.47-8.79,21.65-13.28,4.52-3.22,9.72-5.39,14.02-8.92,4.3-2.84,7.7-6.73,11.69-9.95,4.67-3.66,10.64-5.51,14.25-10.48,6.56-6.77,13.62-12.92,20.21-19.57,2.09-2.15,4.67-5,6.35-7.38,1.82-2.81,3.26-5.3,5.17-7.95,2.74-4.91,5.14-10.01,8.82-14.32,7.37-9.75,13.57-20.3,19.1-31.19,4.25-7.38,8.7-14.68,12.51-22.3,3.08-6.1,4.93-12.68,7.11-19.12,3.76-9.56,7.06-19.27,10.25-29.03,3.89-14.81,2.35-30.67,2.36-45.6.18-7.05,1.78-13.95,2.52-20.95.92-6.57.43-13.32-.21-19.85-1.47-10.54-2.87-21.12-5.01-31.56-3.28-10.15-6.85-20.22-10.32-30.31-5.94-15.65-10.02-31.29-18.36-45.7-7.27-11.29-15.75-21.76-22.74-33.21-8.33-11.81-18.47-22.59-27.78-33.5-3.21-3.86-7.4-6.62-11.27-9.74-4.87-4.6-10.15-8.64-15.13-12.97-5.8-4.85-13.09-7.45-18.64-12.66-6.4-5.93-13.78-10.99-20.96-15.72-3.58-2.16-7.01-4.52-10.52-6.79-2.84-1.5-4.81-2.52-7.44-3.95-4.95-2.33-9.59-5.58-14.32-7.99-6.12-3.21-12.6-4.92-19.01-6.84-7.62-3.18-14.62-7.95-22.64-9.78-2.45.37-4.91.17-7.36-.24-4.18,3.69-8.94-4.25-4.54-6.87,1.58-.97,3.36-.32,5.04-.01,1.32.19,2.66.41,3.99.49,3.89-.91,7.76.79,11.3,2.2,3.79,1.15,7.19,3.18,10.72,4.92,5.88,3.46,12.64,4.57,18.95,6.98,8.28,3.15,15.62,8.48,23.5,12.37,9.68,5.07,18.68,11.55,27.7,17.66,5.44,3.94,10.08,8.89,15.67,12.63,2.86,1.69,5.79,3.26,8.59,5.04,4.57,3.13,7.89,6.51,12.04,9.72,3.04,2.2,5.63,5.15,8.42,7.36,2.83,2.18,5.83,4.16,8.3,6.77,9.19,10.16,18.46,20.34,26.74,31.28,3.77,4.47,6.98,10.12,10.14,14.88,6.32,8.45,12.27,17.01,18.01,25.79,7.45,13.77,12.05,29.01,17.31,43.6,3.98,11.55,8.46,23,11.67,34.78,2.17,12.14,4.3,24.32,5.32,36.61,1.29,11.88-2.08,23.52-2.81,35.28-.2,12.68,1.34,24.96-.76,37.49-.58,7.34-3.18,14.19-5.47,21.12-1.68,5.79-4.04,11.32-6.19,16.94-1.78,4.81-3.05,9.77-4.94,14.53-3.77,9.55-9.07,18.17-14.16,26.92-5.64,10.28-11.03,20.7-17.93,30.23-2.42,3.51-5.17,6.8-7.48,10.39-3.53,6.98-7.61,13.78-12.55,19.87-5.1,6.21-11.46,11.22-17.04,16.93-5.55,4.99-9.78,11.15-16.43,14.66-4.71,2.22-8.49,5.8-12.21,9.38-3.72,3.36-7.43,5.9-11.6,8.51-12.53,6.7-23.1,17.06-37.03,20.95-10.3,2.87-18.5,10.4-27.92,15.09-3.21,1.59-7.38,5.44-9.83,1.13Z"/><path d="m665.87,709.93c-11.16,3.87-22.77,6.18-34.33,8.36-12.03,2.92-23.52,7.63-35.29,11.41-9.77,3.53-20.23,3.5-30.38,5.1-8.88,1.17-17.63,3.13-26.61,2.96-11.31.19-22.68.66-33.91-.91-11.59-1.66-23.56-.41-34.88-3.79-12.42-4.48-25.63-4.68-38.11-8.61-10.04-3.87-21.02-4.05-31.12-7.75-6.14-2.16-11.56-5.87-17.41-8.67-1.87-1.1-3.5-2.53-5.49-3.4-1.18-.27-2.21-1.18-2.57-2.37-.56-1.84.51-3.69,2.29-4.3,3.19-.7,6.26,2.3,8.81,3.86,5.91,2.82,11.39,6.65,17.64,8.72,7.84,2.65,16.1,3.38,24.09,5.43,2.72.6,5.25,1.75,7.89,2.6,6.09,1.73,12.46,2.19,18.61,3.68,9.94.99,19.08,5.99,29.11,6.16,10.79.25,21.48,1.8,32.24,2.52,11.25.09,22.28.49,33.4-.74,11.96-2.12,24.12-3.01,36.08-4.94,9.45-1.8,18.34-5.83,27.51-8.69,9.02-3.35,18.6-5.62,28.06-7.2,9.22-1.9,17.98-4.36,26.74-7.53,12.44-6.09,25.24-11.44,37.59-17.75,6.12-3.49,11.46-7.79,17.67-11.07,1.99-1.11,4.2-1.84,6.06-3.17,2.87-3.45,6.8-5.79,9.94-9,4.34-4.54,9.98-7.58,14.77-11.6,6.84-6.97,11.48-13.46,17.44-20.77,4.78-6.18,11.7-10.15,16.74-16.08,3.68-5.44,6.2-11.58,9.78-17.11,4.26-7.32,9.77-13.86,13.46-21.51,3.35-5.91,4.76-12.73,7.06-19.09,1.42-3.99,1.71-8.25,3.2-12.22,1.28-5.43,3.38-10.64,4.18-16.18,2.07-8.16,2.2-16.56,2.88-24.92.6-6.02,2.11-11.97,2.14-18.03.54-8.84-.14-17.66-.16-26.51-.52-9.49-1.09-19.06-2.89-28.4-1.1-4.79-2.98-9.35-4.08-14.14-5.8-18.55-11.7-37.49-22.56-53.78-1.58-2.48-4.08-4.06-6.29-5.9-3.33-3.02-5.77-6.81-8.64-10.23-10.65-12.77-21.59-25.33-33.77-36.68-3.94-4.28-9.04-7.15-14.14-9.83-3.16-1.13-5.22-3.8-7.56-6.03-1.22-.48-2.18-1.43-3.3-2.06-2.56-.1-5.09-2.26-4.06-4.97,1.84-4.12,7.32-1.54,9.84.57,2.45,1.04,3.92,3.29,5.84,5.02,5.18,3.02,10.84,5.54,15.34,9.59,11.6,10.68,22.14,22.36,32.41,34.31,4.02,4.49,7.49,9.42,11.43,13.97,2.26,2.4,5.29,3.96,7.3,6.62,1.53,1.87,2.73,3.98,3.99,6.04,7.85,12.4,12.57,26.54,17.29,40.37,1.79,5.18,3.37,10.41,4.75,15.71,1.78,5.29,3.43,10.65,4.06,16.23.72,5.37.86,10.8,1.57,16.18.56,15.51,1.71,31.19-.81,46.58-1.79,9.46-.93,19.25-3.22,28.61-1.26,7.61-3.56,14.97-5.75,22.35-1.17,5.86-2.76,11.63-4.92,17.23-3.84,15.14-14.55,26.86-22.01,40.25-2.91,5.07-4.91,10.83-9.41,14.83-4.75,5.26-11.05,8.85-15.25,14.57-2.72,3.26-5.1,6.72-7.72,10.06-3.67,3.78-6.81,8.12-10.82,11.56-3.87,2.8-7.7,5.66-11.52,8.52-3.32,3.63-7.36,6.47-10.89,9.84-2.22,2.93-6.04,3.84-9.11,5.62-5.07,2.71-9.18,6.19-13.96,8.79-8.72,5.43-18.35,9.28-27.67,13.56-6.26,2.58-11.98,6.34-18.57,8.16Z"/></g></g></svg>