<?xml version="1.0" encoding="UTF-8"?><svg xmlns="http://www.w3.org/2000/svg" viewBox="0 0 1000 1000"><defs><style>.cls-1{fill:#c3dbc8;}.cls-2{fill:#929684;}.cls-3{fill:#4b5c48;}.cls-4{fill:#1f1b10;}.cls-5{fill:#6b876d;}.cls-6{fill:#c5e0b2;}.cls-7{fill:#958b7a;}.cls-8{fill:#7f8b7c;}.cls-9{opacity:.2;}.cls-10{fill:#6e7f5f;}.cls-11{fill:#959275;}.cls-12{fill:#526755;}.cls-13{fill:#6a7260;}.cls-14{fill:#2d2a20;}.cls-15{fill:#082721;}.cls-16{fill:#3c382a;}.cls-17{fill:#677a65;}.cls-18{fill:#594d37;}.cls-19{fill:#6a894f;}</style></defs><g id="_レイヤー_5"><path class="cls-9" d="m706.07,807.84c.53,7.06-.69,14.11-2.33,20.96-1.48,6.71-3.5,13.34-6.31,19.62-1.15,2.67-2.76,5.12-4.39,7.51-2.21,3.32-4.56,6.6-6.99,9.76-2.95,3.86-5.86,7.84-9.01,11.55-3.38,3.95-7.12,7.67-10.83,11.31-6.62,6.57-13.98,12.47-21.24,18.32-7.88,6.35-15.94,12.72-24.75,17.75-25.28,14.43-52.88,24.62-81.02,31.89-11.92,2.82-24.25,4.35-36.21,6.97-8.22,1.7-16.59,3.71-24.89,4.94-11.74,1.76-23.76,2.7-35.61,3.23-20.18.4-41.13-.36-59.9-8.53-13.05-5.39-24.6-14.12-33.79-24.81-5.19-6.06-10.3-12.64-12.49-20.44-1.61-5.71-1.85-11.77-1.72-17.67.14-8.29,1.2-16.69,3.72-24.61,3.29-11.01,9.94-20.57,16.58-29.81,16.02-22.95,19.85-23.25,43.35-36.09,5.07-2.96,9.63-6.76,14.44-10.11,4.93-3.39,10.19-6.41,14.97-10,9.68-7.19,17.55-16.53,25.5-25.52l6.09,20.52c5.75,1.07,11.65.14,17.4-.48,9.46-1.16,18.95-2.8,28.38-4.15,15.15-2.2,30.57-3.81,45.64-6.49,17.64-2.81,35.55-6.9,53.5-6.67,19.93.29,39.16,6.93,58.72,9.96,12.08,2.07,23.49,5.72,32.78,14.09,5.03,4.41,10.14,9.93,10.38,16.99Z"/></g><g id="_レイヤー_1"><path class="cls-14" d="m777.92,433.36c.07,2.03-.19,4.07-.47,6.08-.27,1.85-.54,3.75-1.47,5.41-1.05,1.91-2.39,3.66-3.61,5.46-1.68,2.47-3.52,4.92-5.9,6.76-2.09,1.59-4.02,3.39-5.71,5.4-2.73,3.41-5.74,6.62-9.11,9.41-2.37,1.97-4.91,3.71-7.43,5.48-1.16.83-2.29,1.7-3.47,2.49-1.24.78-2.54,1.48-3.75,2.32-3.38,2.4-6.62,4.5-10.97,4.19-8.08-.29-9.85-1.53-15.58-6.97-2.66-2.36-5.69-4.35-8.35-6.71-2.86-2.43-5.74-5.06-9.24-6.52-1.57-.6-3.29-.91-4.9-1.41-2.39-.73-4.8-1.68-7.12-2.6-3.36-1.4-6.93-2.62-9.91-4.76-3.35-2.47-5.84-6.03-8.03-9.52-3.99-6.39-6.68-13.52-9.54-20.46-1.74-4.21-3.55-8.5-5.68-12.53-1.89-3.63-4.16-7.12-6.13-10.71-2.42-4.5-4.51-9.35-5.24-14.44-.4-4.4.41-8.83,1.02-13.18.95-8,8.16-10.78,15.03-12.61,3.55-.95,7.32-1.46,10.99-1,3.85.19,13.24,3.36,17.02,4.57,4.02-1.35,8.22-2.08,12.46-2.04,3.17-.15,6.3.49,9.28,1.51,1.3.47,2.6.94,3.95,1.23,1.51.3,2.98.76,4.34,1.5,3.34,1.54,6.81,2.83,10.01,4.67,1.58.9,2.96,2.11,4.44,3.15,1.9,1.2,3.89,2.3,5.59,3.77,1.39,1.16,2.45,2.64,3.82,3.82,1.91,1.81,4.61,2.21,6.85,3.45,1.99,1.13,4.2,1.79,6.18,2.93,2.36,1.28,4.46,3.01,6.5,4.75,1.14,1.03,2.33,2.01,3.41,3.09,1.67,1.88,3.32,3.78,4.96,5.69,1.55,1.95,3,3.99,4.33,6.09,1.12,1.84,2.08,3.78,3.2,5.62,1.08,1.79,2.17,3.58,3.45,5.23,1.18,1.59,2.46,3.13,3.29,4.95.91,2.02,1.3,4.25,1.49,6.45Z"/><path class="cls-15" d="m400.27,449.18c.66,3.91-2.89,6.68-5.11,9.4-2.52,2.92-4.87,6.01-7.11,9.15-2.64,3.78-5.39,7.54-7.94,11.38-1.93,2.66-5.19,8.68-9.04,7.87-2.93-.58-5.65-1.89-8.47-2.83-2.43-.8-5.02-1.08-7.35-2.15-1.81-.76-3.34-2.01-5-3.03-1.12-.67-2.35-1.12-3.47-1.78-1.67-.96-3.23-2.11-4.79-3.23-2.19-1.47-4.28-3.06-6.4-4.63-2.41-1.82-4.83-3.67-6.75-6.03-2.7-3.23-4.77-6.92-6.86-10.56-2.1-3.65-4.07-7.41-5.2-11.49-1.02-4.24-.92-8.72.03-12.96.32-1.47.92-2.87,1.55-4.24.66-1.38,1.38-2.75,2.3-3.98.66-.9,1.38-1.76,2.06-2.64.84-1.09,1.69-2.19,2.71-3.11,1.73-1.58,3.95-2.46,6.11-3.27,2.12-.83,4.33-1.38,6.56-1.8,1.06-.21,2.16-.43,3.24-.45.66-.02,1.37.05,1.89.48h0s0,0,0,0c.86.15,12.75-.28,13.01.63,7.26,3.24,13.03,8.88,18.86,14.13,4.57,4.08,10.18,6.88,14.94,10.72,4.14,3.61,9,8.95,10.22,14.41Z"/><path class="cls-18" d="m773.08,449.28c-.27,1.46-.74,2.88-1.14,4.31-.35,1.23-.62,2.49-1.1,3.67-.81,1.79-1.83,3.48-2.77,5.2-1.12,1.91-2.04,3.95-3.34,5.76-1.17,1.64-2.44,3.22-3.72,4.78-1.41,1.78-2.82,3.58-4.34,5.28-2.8,3.06-6.21,5.44-9.66,7.69-2.37,1.64-4.7,3.34-7.07,4.98-2.58,1.86-5.42,3.32-8.25,4.77-3.72,1.91-7.44,3.82-11,6.03-6.41,3.97-12.81,8.1-19.94,10.68-3.29,1.15-6.74,1.75-10.08,2.75-6,1.8-11.99,3.67-18,5.44-5,1.54-10.05,2.94-15.2,3.9-5.17,1.01-10.4,1.73-15.6,2.58-5.55.88-11.15,1.4-16.74,1.89-8.88,1.1-17.77,2.16-26.67,2.96-3.5.42-7.03.39-10.54.51-3.85.14-7.7.44-11.53.85-5.22.47-10.39,1.53-15.62,1.87-6.9.59-13.8.64-20.72.57-6.21-.1-12.42.26-18.62-.15-3.31-.13-6.59-.71-9.88-1.01-6.28-.72-12.54-1.63-18.82-2.37-3.74-.42-7.49-.84-11.25-1.1-2.96-.27-5.92-.77-8.85-1.28-5.79-1.23-11.29-3.53-17.11-4.65-6.96-1.47-14.08-2.09-21.05-3.48-3.04-.57-6.12-1.13-9.01-2.25-2.8-1-5.38-2.55-8.23-3.43-8.03-2.45-16.16-4.82-23.65-8.69-1.79-.88-3.57-1.81-5.41-2.6-3.61-1.5-7.34-2.73-11-4.1-4.5-1.8-8.8-4.08-13.23-6.05-4.14-1.78-8.21-3.82-11.75-6.64-1.91-1.43-3.73-2.97-5.71-4.3-2.45-1.6-5.03-3-7.68-4.22-3.97-1.64-7.97-3.33-11.41-5.96-3.76-2.99-6.66-6.87-9.78-10.49-.92-2.81-4.7-12.51-5.62-15.35-.47-1.29-.75-2.66-.98-4.02-.35-1.75-.56-3.54-.54-5.32,0-2.42,1.12-4.61,2.18-6.72,1.31-2.85,2.92-5.55,4.74-8.11,1.4-2,2.85-4.1,4.92-5.47-1.35,1.64-2.63,3.35-3.54,5.28-1.03,2.04-1.88,4.19-2.23,6.46-.59,3.32-.64,6.78-.05,10.11.32,1.99,1.09,3.88,1.82,5.75,1.27,3.04,2.96,5.89,4.58,8.74,1.89,3.27,3.83,6.55,6.31,9.41,1.38,1.64,3.03,3.03,4.72,4.34,1.94,1.51,3.93,2.96,5.9,4.42,3.03,1.99,5.81,4.39,9.16,5.83,1.94.87,3.52,2.34,5.41,3.28,2.35,1.28,5.03,1.65,7.58,2.37,2.43.73,4.74,1.82,7.17,2.54.84.25,1.7.49,2.58.59,1.37.05,2.6-.81,3.58-1.68,2.45-2.39,4.2-5.43,6.14-8.23,2.62-3.8,5.32-7.61,8.02-11.36,1.91-2.58,3.9-5.15,6.01-7.56,1.52-1.75,3.23-3.42,4.3-5.51,1.94-4.16-1.42-8.46-3.75-11.72-3.96-5.48-9.77-9.13-15.36-12.74-5.51-3.57-9.9-8.6-15.08-12.59,6.09.28,12.18-.35,18.25-.62,8.57-.42,17.2-.33,25.75.23,7.02.41,14.08,1.41,21.12,1.62,16.55.5,33.16-.51,49.67-1.49,22.37-1.4,44.91-2.5,67.3-1.14,18.29.98,36.71,2.79,54.98,4.06,15.87,1.12,31.96,1.63,47.86,2.34,5.67,12.2,9.7,27.89,20.43,36.68,2.49,1.81,5.44,2.93,8.26,4.09,3.07,1.24,6.21,2.54,9.4,3.45,1.41.4,2.9.7,4.26,1.22,2.62,1.08,4.92,2.88,7.09,4.68,3.03,2.7,6.32,5.17,9.51,7.68,2.21,1.85,4.2,4.06,6.64,5.62,2.45,1.62,5.48,1.91,8.34,2.13,2.48.21,5.06.15,7.35-.93,2.14-.89,3.95-2.37,5.89-3.6,1.13-.76,2.37-1.37,3.49-2.15,1.62-1.14,3.2-2.35,4.84-3.46,3.32-2.31,6.56-4.77,9.4-7.66,2.42-2.22,4.35-4.9,6.56-7.32.99-1.08,2.07-2.1,3.21-3.02.96-.79,2-1.52,2.88-2.41,1.93-1.93,3.5-4.16,5.03-6.41Z"/><path class="cls-14" d="m775.69,445.36c-.28,4.48-1.89,8.69-3.1,12.97-2.03,7.18-5.4,13.93-7.03,21.23-1.35,5.62-1.94,11.36-2.6,17.08-.63,4.91-1.48,9.8-2.55,14.63-1.47,6.11-2.46,12.34-4.3,18.35-1.94,6.44-3.52,12.98-4.98,19.54-1.07,4.28-2.03,8.58-2.58,12.96-2.21,13.29-3.47,26.71-4.92,40.1-.7,8.01-1.85,16-3.82,23.81-1.1,4.68-2.44,9.31-3.52,14-1.37,6.19-2.66,12.41-3.81,18.65-.98,5.47-1.39,11.04-2.25,16.53-.13.7.19,1.49.17,2.21.04,1.05-.02,2.15-.49,3.11-.23.53-.54,1.02-.8,1.54-.19.37-.28,1.15-.38,1.57-.52,2.48-1.11,5.02-1.75,7.47-.57,2.34-1.43,4.64-2.18,6.91-.4,1.84-.78,3.71-1.09,5.56-1.29,7.19-.81,14.61-2.63,21.71-.57,2.44-1.18,4.88-1.7,7.34-.39,1.94-.69,3.91-1.16,5.83-.43,1.87-1.03,3.71-1.48,5.57-.61,2.47-1.13,4.96-1.81,7.41-1.25,4.48-2.94,8.83-4.25,13.3-.96,2.98-2.05,5.93-2.65,9.02-1.58,7.41-1.68,15.07-3.67,22.4-1.27,4.84-2.33,9.88-5.07,14.16-1.2,1.89-2.75,3.52-4.24,5.18-2.06,2.44-4.59,4.4-7.12,6.33-1.54,1.2-3.05,2.45-4.74,3.45-1.73,1.07-3.57,1.96-5.31,3.01-1.22.7-2.32,1.61-3.46,2.42-2.07,1.44-4.19,2.83-6.4,4.04-2.17,1.24-4.22,2.67-6.33,3.98-1.28.85-2.66,1.54-3.97,2.34-2.13,1.28-4.17,2.73-6.4,3.84-1.92.98-4.02,1.59-5.95,2.56-2.13,1.1-4.07,2.53-6.14,3.74-1.35.79-2.82,1.41-4.28,1.96-1.27.45-2.58.81-3.85,1.23-1.84.61-3.69,1.24-5.58,1.67-3.51.74-7.15,1.09-10.44,2.61-2.45,1.17-4.88,2.42-7.54,3.07-2.05.54-4.15,1.04-6.29.93-2.54-.07-5.95-.75-6.79-3.49-.1-.92.14-1.81.37-2.69.95-3.14,2.15-6.2,3.3-9.27,1.27-3.52,2.35-7.13,3.35-10.73,1.99-7.74,3.45-15.64,4.81-23.51,1.2-8.51,2.47-17.03,4.02-25.49,2.27-12.22,4.52-24.52,5.38-36.93,2.16-30.39.34-60.91-2.55-91.19-1.42-13.41-1.89-26.97-3.67-40.34-.95-6.83-1.93-13.75-3.31-20.51-1.18-5.7-2.75-11.41-3.95-17.11-1.99-9.68-4.13-19.42-7.87-28.6-2.84-7.04-6.12-14.07-10.69-20.16,3.79-.29,7.6-.25,11.39-.44,10.56-.82,21.07-2.21,31.59-3.4,6.52-.47,13.01-1.34,19.46-2.4,5.27-.81,10.54-1.65,15.73-2.83,3.15-.65,6.24-1.63,9.33-2.53,4.89-1.45,9.78-2.93,14.66-4.41,2.35-.75,4.71-1.47,7.1-2.1,2.56-.65,5.15-1.21,7.65-2.06,6.84-2.46,13.04-6.32,19.16-10.17,3.14-1.93,6.35-3.75,9.64-5.4,2.85-1.51,5.79-2.89,8.52-4.61,2.96-1.9,5.77-4.04,8.66-6.03,3.1-2.08,6.26-4.12,8.91-6.78,2.25-2.18,4.08-4.73,6.06-7.14,1.35-1.65,2.68-3.32,3.85-5.1.83-1.36,1.55-2.79,2.33-4.17.69-1.25,1.41-2.5,2.08-3.76.52-.98,1.07-1.96,1.38-3.03.69-2.35,1.34-4.74,1.95-7.09.86-1.27,1.77-2.51,2.55-3.83Z"/><path class="cls-16" d="m616.31,703.57c.61,16.14.46,32.38-.73,48.49-.86,11.15-2.8,22.22-4.86,33.19-1.65,8.92-3.06,17.91-4.3,26.9-1.12,7.09-2.58,14.15-4.12,21.16-1.5,6.21-3.47,12.3-5.79,18.24-.55,1.6-1.17,3.19-1.63,4.82-.32,1.23-.84,2.73.07,3.83-3.79,1.35-7.62,2.63-11.51,3.69-2.22.65-4.43,1.42-6.72,1.74-2.05.27-4.13.25-6.2.24-2.66-.01-5.33-.12-7.95-.61-1.81-.35-3.52-1.04-5.3-1.5-1.53-.38-3.1-.58-4.66-.74-1.85-.18-3.71-.35-5.57-.46-1.73-.07-3.46-.08-5.18-.31-1.34-.15-2.67-.49-4.02-.53-2.49-.02-4.98.17-7.47.23-2.22.06-4.44.07-6.65-.04-2.15-.08-4.31-.28-6.36-.96-2.21-.66-4.19-1.88-6.37-2.63-2.48-.92-5.14-.99-7.74-1.32-2.65-.42-5.21-1.29-7.73-2.18-2.15-.76-4.35-1.46-6.63-1.68-1.44-.13-2.87-.34-4.23-.84-1.1-.37-2.11-.96-3.11-1.56-1.87-1.12-3.99-1.73-5.93-2.73-1.2-.68-2.25-1.67-2.94-2.87-2.73-.36-5.48-.93-8.17-1.51-1.84-.43-3.71-.82-5.45-1.56-2.72-1.22-5.39-2.55-8.14-3.7-3.39-1.33-6.81-2.69-9.81-4.8-2.87-2.06-5.5-4.42-8.31-6.56-1.48-1.15-2.95-2.32-4.55-3.29-2.54-1.45-5.19-2.72-7.56-4.45-1.8-1.24-3.51-2.63-4.89-4.33-.81-1.03-1.46-2.19-2.02-3.37-.89-1.88-1.46-3.89-2.06-5.88-.89-3.03-1.75-6.07-2.45-9.15-.97-4.17-2.27-8.25-3.47-12.36-.82-2.77-1.62-5.55-2.52-8.3-.98-2.88-2.08-5.73-3-8.64-3.35-10.41-6.61-20.86-9.62-31.38-1.58-5.62-3.38-11.18-4.72-16.86-1-3.84-1.53-7.77-2.2-11.67-.27-1.66-.51-3.34-.65-5.02-.9-2.56-2.19-5.08-3.13-7.65-2.02-5.55-3.95-11.16-5.17-16.95-.88-4.13-1.47-8.32-2.15-12.48-.55-3.12-1.29-6.22-1.94-9.32-1.25-6.22-2.82-12.41-5.07-18.35-1.82-5.35-3.74-10.66-5.69-15.96-1.89-5.44-3.2-11.06-4.39-16.69-.96-4.96-2.69-9.73-4.09-14.57-1.47-4.73-2.65-9.54-4.3-14.22-.71-2.3-1.47-4.59-2.43-6.8-.69-1.65-1.55-3.23-2.22-4.89-.79-1.91-1.65-3.83-2-5.88-.33-2.03-.09-4.11.23-6.13-1.3-2.71-2.36-5.54-3.38-8.37-1.51-3.88-2.47-7.98-2.48-12.16-.02-.76-.04-1.54-.03-2.3,0-.29,0-.62,0-.91,0,0-.3-.68-.31-.68-1.2-2.68-2.27-5.43-3.17-8.22-1.12-3.61-2.12-7.27-3-10.95-.61-2.64-1.09-5.31-1.72-7.94-1.55-6.95-4.13-13.61-5.88-20.5-.94-3.58-1.5-7.26-1.85-10.95-.37-2.13-.95-4.28-1.25-6.42,2.83,3.3,5.49,6.78,8.78,9.64,2.06,1.76,4.44,3.15,6.87,4.34,2.1,1.03,4.32,1.81,6.43,2.83,3.86,1.82,7.48,4.1,10.77,6.81,2.02,1.56,4.04,3.14,6.26,4.4,2.81,1.64,5.82,2.9,8.78,4.25,5.22,2.43,10.35,5.08,15.85,6.83,2.46.9,4.93,1.79,7.33,2.82,2,.91,3.95,1.93,5.92,2.89,3.7,1.86,7.6,3.31,11.5,4.7,4.14,1.38,8.36,2.54,12.49,3.96,2.77,1.11,5.41,2.57,8.27,3.45,2.57.85,5.26,1.29,7.91,1.8,4.92,1.02,9.95,1.48,14.89,2.36,4,.62,7.99,1.41,11.87,2.56,3.66,1.07,7.26,2.36,11,3.12,3.76.67,7.55,1.24,11.36,1.48,3.8.33,7.61.76,11.4,1.23,2.62.38,5.27.64,7.89.98,3.26.47,6.53.92,9.81,1.22,3.23.37,6.47.85,9.73.92,4.47.25,8.96.13,13.43.06,4.32.04,8.65.05,12.97.04,5.01-.06,10.04-.42,15.03-.88,6.46-.89,12.93-1.81,19.45-2.2,6.43,8.73,10.57,18.98,13.88,29.24,2.33,7.48,3.67,15.28,5.43,22.9,5.49,20.78,7.79,42.23,9.17,63.64,1.75,18.34,3.35,36.72,4.16,55.13Z"/></g><g id="_レイヤー_6"><path class="cls-7" d="m655.65,491.85l1.74,7.79-3,4.44c-.38.22-.93.54-1.32.74-2.24-.22-5.12-.5-7.29-.79-2.5-.36-5.23-.3-7.46,1.01-1.01.59-2.06,1.16-3.1,1.69-1.04.5-2.16,1.08-3.34,1.11-1.14.06-2.06-.67-2.9-1.35-1.01-.77-2.2-1.56-3.53-1.4-1.97.37-3.91,1.05-5.93,1.11-2.68.11-5.6-.03-7.94,1.49-1.6,1.04-3.17,2.14-4.83,3.09-1.13.63-2.32,1.17-3.44,1.81-2.68,1.39-5.36,3.14-8.41,3.49-1.38.15-2.75-.25-4.11-.48-1.89-.27-3.84-.33-5.73,0-2.55.24-10.82,3.57-9.27-1.7.79-2.28,1.7-4.66,3.35-6.47,2.12-2.31,4.38-1.67,6.85-.39,1.99.92,4.03,1.88,6.21,2.24,1.95.33,5.77.23,5.45-2.58-.5-1.98-2-3.54-2.97-5.3-1-1.59-3.32-5.91-.12-6.31,1.38.07,2.44,1.13,3.6,1.77,2.58,1.53,5.55,3.31,8.67,2.65,3.49-.81,7.09.24,10.62,0,1.15-.06,2.22-.55,3.29-.94.81-.27,1.68-.41,2.53-.51,1.11-.11,2.28-.13,3.36.23.94.33,1.82.82,2.74,1.17,2.19.75,4.61,1.29,6.92.81,2.04-.47,3.36-2.26,4.78-3.65,3.78-3.85,9.5-4.24,14.57-4.77Z"/><path class="cls-7" d="m726.87,485.92v.02c-.08,0-12.31-6.59-12.42-6.63,0,0-.33-.1-.33-.1l-.33-.08c-1.2-.29-2.49-.13-3.66.26-2.44.82-4.54,2.52-7.07,3.09-1.67.35-2.31-.69-2.96-2-.92-1.55-1.86-3.29-3.5-4.17-3.16-1.64-4.32,1.54-5.12,3.98-.63,1.73-1.25,3.57-2.55,4.92-1.95,2.04-4.25,1.27-6.63.65-3.46-.85-7.02-2.28-9.3-5.14-1.02-1.39-1.56-3.08-1.91-4.75-.38-1.89,1-2.52,2.58-2.86,2.32-.59,4.81-.99,6.83-2.36,2.65-2.01.74-3.88-1.74-4.52-1.37-.52-5.62-1.1-5.05-3.15.42-.78,1.11-1.38,1.72-2,.66-.65,1.39-1.25,2-1.94.53-.66.98-1.4,1.32-2.18.59-1.47,1.1-2.99,2.08-4.26,1.46-1.95,3.21-3.84,5.6-4.59,1.07-.34,2.21-.13,3.27.12,1.23.28,2.43.7,3.56,1.27,2.61,1.18,4.46,3.35,6.5,5.27,1.05.98,2.09,2,3.23,2.89,1.18.9,2.46,1.69,3.72,2.49,14.36,8.38,14.7,10.52,20.17,25.8Z"/><path class="cls-4" d="m723.74,486.32c.05.79-.12,1.64-.67,2.24-.98,1.15-2.31,1.93-3.65,2.58-1.31.61-2.66,1.17-4.04,1.58-3.24.89-6.46,1.89-9.64,3.01-2.79.97-5.49,2.2-8.31,3.08-6.41,2.18-13.07,3.5-19.54,5.48-3.79,1.14-7.52,2.48-11.28,3.68-5.23,1.63-10.49,3.16-15.75,4.69-3.42.99-6.79,2.19-10.23,3.08-3.18.79-6.44,1.25-9.63,2.03-5.71,1.45-11.59,2.05-17.44,2.64-2.2.2-4.42.24-6.61.58-2.97.43-5.85,1.26-8.78,1.87-3.48.67-7.01,1.08-10.52,1.57-5.34.76-10.76.72-16.13.44-3.35-.06-6.7-.22-10.05-.38-3.94-.27-7.91-.14-11.85-.3-8.87-.38-17.74-.89-26.59-1.51-6.82-.38-13.66-.81-20.46-1.39-8.57-.95-17.1-2.32-25.57-3.93-4.69-.87-9.41-1.65-14.13-2.35-3.48-.42-6.97-.79-10.44-1.22-2.92-.38-5.88-.53-8.8-.95-2.38-.29-4.73-.81-7.07-1.3-1.52-.34-3-.84-4.49-1.29-1.33-.4-2.71-.7-4.04-1.08-3.08-.94-6.11-2.08-9.17-3.07-2.16-.71-4.36-1.33-6.49-2.13-2.26-.87-4.47-1.89-6.78-2.63-2.49-.82-5.05-1.45-7.53-2.33-2.62-.85-5.17-1.89-7.8-2.71-3.93-1.26-8.01-2.12-11.66-4.12-.87-.42-1.76-.87-2.62-1.3-.06-.06-.46-.21-.55-.27-.06-.06-.47-.21-.55-.27,0,0-.97-1.09-.97-1.09-1.86-.72-6.51-1.67-7.35-3.49-.31-1.43,3.36-4.55,4.43-5.53.43-2.28,1.41-4.39,2.46-6.44,1.24-2.59,2.76-5.05,4.49-7.34.99-1.25,1.97-2.56,3.17-3.61,3.64-2.94,7.82-5.36,11.86-7.71,6.01-3.55,12.23-6.71,18.4-9.96,4.62-2.36,8.38-6,11.8-9.83,3.22-3.41,6.5-6.85,10.03-9.95,10.83-8.83,22.44-9.79,35.79-10.35,12.55-.91,18.59,2.35,29.92,5.99,8.54,2.76,17.69,1.99,26.51,1.5,9.75-.62,19.56-1.22,29.33-1.42,6.76.03,13.62.14,20.3,1.27,8.05,1.76,15.91,4.39,23.91,6.37,7.06,1.87,13.92,4.43,20.84,6.71,3.43,1.21,7.14,1.08,10.73,1.21,3.25.09,6.54.04,9.78.29,2.72.22,5.46.71,8.16,1.11,5.21.7,10.41,1.86,15.17,4.18,2.52,1.22,4.71,3.01,7.06,4.5,3.35,1.98,6.47,4.38,9.93,6.19-1.15,1.51-1.48,3.44-2.45,5.06-.87,1.58-2.42,2.58-3.6,3.91-1.45,1.41-1.21,2.25.55,3.13,1.95,1.01,5.53,1,6.55,3.15.66,3.06-4.84,4.09-6.99,4.65-2.6.59-4.39.95-3.38,4.12.37,1.22.78,2.47,1.52,3.52,1.72,2.35,4.43,3.8,7.15,4.7,1.11.36,2.26.66,3.4.93.87.21,1.76.49,2.66.42,4.65-.43,4.82-6.16,6.76-9.36.93-1.64,2.97-1.6,4.33-.53,1.25.9,2.04,2.3,2.82,3.6.44.7.72,1.58,1.44,2.04,1.37.69,2.93-.18,4.2-.73,2-.95,3.93-2.26,6.17-2.52.77-.08,1.6-.01,2.35.2,0,0,.33.1.33.1l8.72,4.67c.34.73.5,1.54.57,2.34Zm-66.35,13.32l-1.74-7.79c-5.07.53-10.79.92-14.57,4.77-1.42,1.39-2.74,3.18-4.78,3.65-2.31.48-4.73-.06-6.92-.81-.93-.35-1.81-.85-2.74-1.17-1.07-.36-2.24-.34-3.36-.23-.85.09-1.72.23-2.53.51-1.07.38-2.14.88-3.29.94-3.53.24-7.13-.81-10.62,0-3.12.66-6.09-1.11-8.67-2.65-1.16-.64-2.22-1.7-3.6-1.77-3.03.35-1.08,4.33-.14,5.88,1.02,1.91,2.67,3.6,3.22,5.72.32,2.81-3.49,2.9-5.45,2.58-2.18-.36-4.22-1.32-6.21-2.24-2.46-1.28-4.73-1.93-6.85.39-1.7,1.87-2.63,4.33-3.42,6.7-1.2,4.99,6.95,1.66,9.35,1.47,1.89-.32,3.84-.26,5.73,0,1.35.22,2.72.63,4.11.47,3.06-.36,5.73-2.1,8.41-3.49,1.12-.64,2.32-1.18,3.44-1.81,1.66-.94,3.23-2.05,4.83-3.09,2.34-1.52,5.26-1.37,7.94-1.49,2.02-.06,3.96-.73,5.93-1.11,1.33-.16,2.52.63,3.53,1.4.84.67,1.76,1.41,2.9,1.35,1.18-.02,2.3-.6,3.34-1.11,1.04-.53,2.09-1.1,3.1-1.69,2.33-1.37,5.17-1.35,7.77-.98,2.05.28,4.92.54,6.99.76.39-.19.94-.51,1.32-.74l3-4.44Z"/></g><g id="_レイヤー_4"><path class="cls-17" d="m683.57,440c.12,4.16-.26,8.48-1.95,12.33-.58,1.31-1.11,2.67-1.99,3.81-1.56,2.14-3.46,4.02-4.95,6.22-1.78,2.7-3.28,5.59-4.44,8.61-1.83,4.34-2.63,9.12-5.18,13.14-.81,1.36-1.97,2.67-3.55,3.1-.67.13-1.36,0-2.04-.07-2.71-.31-5.41-.77-8.07-1.42-2.38-.57-4.73-1.44-7.19-1.59-3.01.08-5.96.99-8.98,1.04-3.31,0-6.63.08-9.95.08-2.15.09-4.28.44-6.41.7-3.45.41-6.94.36-10.4.2-3.15-.19-6.31-.53-9.36-1.37-1.43-.35-2.81-.92-4.15-1.54-1.02-.48-2.04-1-3.15-1.26-1.58-.37-3.23-.44-4.8-.85-1.74-.4-3.39-1.11-5.04-1.79-2.99-1.24-6.17-2.31-8.6-4.54-1.14-1.08-2.21-2.27-3.11-3.56-.69-1.1-1.27-2.28-1.89-3.42-1.06-1.98-2.28-3.87-3.41-5.81-1.06-1.73-2.26-3.38-3.23-5.17-.83-.71-1.75-1.34-2.63-1.99-1.57-1.11-2.79-2.61-4.02-4.06-1.03-1.11-2.1-2.2-3.04-3.39-1.28-1.65-2.49-3.39-3.34-5.3-.64-1.51-1.01-3.14-1.32-4.75-.36-2.12-.57-4.31-1.51-6.27-1.52-3.64-4.54-6.33-6.63-9.61-1.53-2.48-2.47-5.76-1.01-8.48-.74-.19-1.51-.34-2.28-.37-.83,0-1.67.1-2.49.17-2.35.19-4.7.48-7.02.89-5.24.99-10.48,2.09-15.69,3.22-6.57,1.64-13.29,2.79-20.07,2.88-4.33.17-8.26-1.82-12.2-3.32-5.05-1.81-10.25-3.29-15.21-5.34-3.1,4.71-7.02,8.85-10.45,13.32-3.71,4.88-7.28,9.93-11.5,14.39-2.8,2.85-5.55,5.78-8.58,8.38-1.53,1.16-3.16,2.83-5.22,2.66-1.39,1.24-3.02,2.22-4.82,2.75-2.17.51-4.38.86-6.58,1.26-5.28.92-6.2.68-10.35-2.76-2.87-2.32-5.83-4.55-8.64-6.95-1.84-1.56-3.83-3-5.52-4.72-.92-.95-1.78-2.02-2.55-3.09-.31-.43-.59-.95-1.04-1.22-2.1-1.51-4.18-3.06-6.21-4.64-2.79-2.15-5.92-3.89-8.56-6.24-2.44-2.09-4.62-4.53-6.83-6.86-2.56-2.72-5.25-5.38-7.76-8.15-3.38-3.76-6.52-8.24-7.02-13.4-.41-6.2,1.45-12.46,4.81-17.65,3.05-4.76,7.03-8.84,11.42-12.37,2.28-1.83,4.53-3.78,7.19-5.04,3.15-1.58,6.38-3.07,9.84-3.86,2.63-.66,5.36-.8,8.02-1.31,1.61-.32,3.18-.79,4.79-1.13,2.34-.45,4.7-.84,7.02-1.36,1.38-.28,2.73-.69,4.09-1.06,1.48-.36,2.97-.68,4.47-.98,4.11-.86,8.32-1.27,12.36-2.46,1.62-.56,3.2-1.25,4.79-1.92,1.11-.49,2.25-.92,3.31-1.5,1.67-.88,3.22-1.98,4.83-2.98,1.66-1.02,3.39-1.91,5.08-2.88,2.71-1.62,5.34-3.42,8.29-4.58,1.95-.8,3.94-1.52,5.92-2.23,1.35-.48,2.75-.88,4-1.58,1.86-1.12,3.58-2.47,5.25-3.85,1.17-.99,2.44-1.91,3.39-3.13,1.8-2.42,2.18-4.59,1.2-7.52-.73-2.17-1.45-4.37-2.61-6.35-7.94,6.82-16.53,12.87-25.53,18.22-4.65,2.77-9.36,5.48-14.44,7.39-2,.7-4.09,1.17-6.16,1.61-2.06.41-4.18.31-6.26.09-3.09-.27-6.21-.92-8.93-2.48-1.19-.7-2.25-1.6-3.3-2.49-.76-.61-1.49-1.32-2.4-1.69-1.17-.38-2.42-.54-3.63-.75-5.98-.87-12.11-.34-18.05-1.57-2.19-.44-4.37-1.06-6.52-1.68-2.22-.64-4.49-1.35-6.5-2.5-3.62-2.1-6.57-5.51-8.02-9.44-2.48-6.98-.91-14.74,2.45-21.16,1.75-3.45,3.78-6.84,6.39-9.71,2.75-3.1,6.55-4.98,9.58-7.77,4.96-4.19,7.43-10.41,11.51-15.33,3.18-3.76,7.58-6.19,11.77-8.67,7.43-4.32,15.19-8.11,22.89-11.92.87-3.1,1.82-6.2,2.44-9.36,1.28-6.59,2.53-13.2,4.16-19.72,1.15-5.05,2.98-9.93,4.13-14.98.65-2.81,1.09-5.68,1.57-8.53.63-3.81,1.24-7.66,1.4-11.52-2.73-.87-5.33-2.11-7.89-3.39-2.36-1.1-4.77-2.16-6.86-3.74-1.8-1.31-3.53-2.72-5.22-4.17-1.46-1.35-2.87-2.75-4.35-4.07-2.22-2.05-4.34-4.21-6.54-6.28-1.55-1.51-3-3.14-4.52-4.68-2.37-2.36-4.91-4.59-6.89-7.31-2.26-2.96-3.59-6.46-5.2-9.79-1.23-2.55-2.35-5.17-3.33-7.83-1.04-2.94-1.94-5.93-3.09-8.82-.75-2.01-1.65-3.97-2.37-5.98-.43-1.31-.69-2.66-1.1-3.97-.96-2.81-2.43-6.63.21-8.96,1.06-.85,2.25-1.6,3.54-2.06,1.46-.48,3.02-.53,4.54-.61,3.31-.15,6.62-.36,9.93-.58,3.64-.21,7.3-.35,10.93-.74,3.7-.27,7.15-1.69,10.75-2.44,3.56-.79,7.2-1.35,10.7-2.4,2.73-.81,5.3-2.08,7.8-3.42,2.01-1.03,4.04-2.07,6.14-2.9,2.27-.88,4.65-1.53,6.96-2.29,3.27-1.09,6.52-2.3,9.83-3.26,3.61-.99,7.24-1.96,10.87-2.89,2.3-.55,4.69-.34,7.02-.05,1.84.21,3.67.58,5.51.79,2.64.22,5.29.42,7.93.58,2.85.07,5.73.06,8.53.7,2.8.57,5.33,1.99,7.57,3.72,2.39,1.73,4.45,3.85,6.34,6.1.96,1,2.1,2.21,3.59,2.17,1.21-.14,2.22-.95,3.21-1.6,2.5-1.75,5.11-3.35,7.69-4.98,2.91-1.79,5.84-3.61,9.05-4.82,3.12-1.16,6.47-1.47,9.77-1.27,2.68.09,5.28.89,7.72,1.96,2.53.99,5.14,1.97,6.11,4.81,1.81,5.61,1.61,13.69,2.14,19.57-1.21,2.04-2.51,4.03-3.7,6.08-.98,1.71-1.82,3.52-2.77,5.24-3.69,6.3-7.3,12.73-12.03,18.33,3.47.58,6.77,2.08,9.57,4.19,2.81,2.35,5.24,5.14,8.06,7.48,1.28,1.02,2.7,2.21,4.42,2.26.53-.03,1.01-.3,1.48-.52,3.38-1.87,6.66-4.12,10.52-4.85,3.91-.7,7.95-.4,11.84.29,1.31.24,2.66.46,3.85,1.11,2,.95,2.62,3.26,3.02,5.25.45,2.19.85,4.4,1.23,6.6l6.49,6.83c-.5,7.3-.54,14.69-2.32,21.83-1.11,4.76-3.36,6.95-7.2,9.67,4.76,3.43,8.58,7.96,12.71,12.08,4.29,4.07,8.52,8.23,11.9,13.1,2.34,3.18,4.99,6.23,6.71,9.82,1.31,3.26,1.74,6.93.89,10.36-1.2,5.3-6.86,7.92-10.85,10.97-3.71,2.57-7.59,5.04-11.76,6.81-2.85,1.17-5.87,1.99-8.86,2.68-3.4.7-6.81,1.48-10.25,1.93-4.2.57-8.43.89-12.61,1.58-5.67.87-11,3.13-16.49,4.69-2.96.79-6.02,1.49-8.84,2.7-2.69,1.11-5.19,2.7-7.56,4.37-3.18,2.2-6.15,4.73-9.39,6.85-2.69,1.68-5.63,3.04-8.67,3.95.89,3.94.89,8.05.74,12.06-.14,3.7-1.18,8.31,2.09,11,2.47,1.81,5.76,1.95,8.68,2.55,3.77.65,7.67.81,11.48.99,2.99.16,6.04.53,9.02.78,10.49.64,12.88.33,21.51,7.12,3.36,2.51,6.62,5.3,9.76,8.08,2.47,2.2,5.07,4.46,7.16,7.03,3.51,4.36,5.47,9.85,6.53,15.29,4.52-1.87,9.46-2.06,14.28-1.81,4.64.11,9.24,1.2,13.33,3.41,2.36,1.23,4.85,2.5,6.69,4.47,3.28,3.76,2.99,9.1,3.3,13.78.15,1.89.33,3.82.87,5.64,1.19,3.45,3.47,6.44,5.98,9.05,3.71,4,8.26,7.09,12.68,10.24,1.6,1.08,3.11,2.28,4.54,3.58,1.02.95,2.11,1.84,3,2.92,1.86,2.18,3.2,4.75,4.22,7.41.83,2.24,1.79,4.46,3.31,6.33,1.08,1.46,2.41,2.73,3.49,4.19,1.56,2.2,2.53,4.77,3.27,7.35,1.43,5.15,3.21,10.29,3.54,15.66Z"/><path class="cls-6" d="m558.02,162.41c.04.33-.24.58-.45.8-.31.31-.66.6-1,.89-1.19.98-2.42,1.93-3.66,2.85-4.76,3.55-9.74,6.84-14.86,9.86-2.89,1.62-6.07,2.71-9.31,3.39-3.21.62-6.47,1.19-9.51,2.41-2.07.95-3.97,2.26-5.88,3.51-4.35,2.88-7.85,7.13-12.84,8.97-1.92.7-4.01,1-6.05.9-.98-.04-4.69-.49-3.54-1.98.43-.36,1.01-.47,1.53-.65.68-.2,1.36-.41,2.01-.7,1.71-.76,3.24-1.9,4.63-3.14,1.57-1.36,3-2.87,4.46-4.34,1.21-1.19,2.5-2.32,3.7-3.52,4.59-4.39,9.75-8.49,15.92-10.31,1.75-.49,3.56-.73,5.34-1.12,5.52-1.21,11.05-2.48,16.6-3.59,1.74.1,8.92-4.09,10.48-4.82.62-.04,1.32-.09,1.92.12.19.08.46.21.49.45Z"/><path class="cls-6" d="m592.77,253.83c-4.39-.42-8.81.78-12.84,2.45-3.82,1.47-7.39,3.5-10.87,5.63-4.5,2.54-9.23,4.87-14.37,5.77-1.19.22-2.4.4-3.61.48-.73.04-2.25.27-1.66-.96,1.37-2.78,3.65-4.99,5.81-7.17,1.5-1.53,2.97-3.14,4.05-5,1.42-2.59,2.4-5.42,3.12-8.28.2-1.01,1.28-1.12,2.14-1.14,3.34-.11,6.61.79,9.87,1.39,2.81.51,5.61,1.13,8.36,1.9,1.29-.09,8.79,4.36,10,4.93Z"/><path class="cls-6" d="m543.99,348.95c.16,1.97-1.44,1.35-2.64.89-1.33-.51-2.65-1.07-3.93-1.69-1.98-.93-3.81-2.16-5.45-3.62-1.19-1.07-2.25-2.26-3.39-3.37-2.04-2.07-4.34-3.86-6.72-5.53-4.14-3.05-7.38-7.08-10.87-10.81-2.88-3.04-6.17-5.74-9.96-7.55-5.13-2.41-10.09-6.59-7.15-12.73,1.56-2.7,4.8-3.76,7.71-4.22.93-.17,1.91-.32,2.84-.45.14-.19,9.37,1.04,9.53.96,1.31.73,2.61,1.49,3.9,2.25,1.32-1.09,3.26-1.13,4.82-.59,1.39.53,2.52,1.57,3.61,2.56,1.08,1.08,1.81,2.46,2.6,3.76,1.4,2.28,2.6,4.69,3.66,7.15,1.4,3.44,1.62,7.22,1.93,10.89.08,2.3.52,4.72.18,6.99,1.16,2.12,2.6,4.08,4.12,5.97.77.94,1.69,1.76,2.44,2.72,1.38,1.91,2.64,4.06,2.79,6.46Z"/><path class="cls-6" d="m535.48,234.66c.1,1.2-1.5,1.12-2.33,1.25-1.16.11-2.33.19-3.49.25-3.24.22-6.53.13-9.65-.82-1.93-.56-3.91-1.04-5.76-1.87-3.51-1.69-6.66-4.08-9.37-6.87-3.36-3.65-6.04-5.86-11.28-5.38-2.81.3-5.7.56-8.38,1.52-1.51.59-2.9,1.46-4.28,2.3-1.43.89-2.88,1.82-4.15,2.94-1.86,1.65-3.25,3.75-4.47,5.89-1.18,1.91-2.63,5.63-5.08,5.95-.66.07-1.3-.24-1.89-.5-1.63-.76-2.99-1.95-4.41-3.04-1.46-1.21-3.05-2.34-4.88-2.92-2.88-.89-5.88-1.33-8.71-2.39-1.01-.27-2.08-.03-3.03.35-3.05,1.11-5.34,3.61-7.35,6.06-1.96,2.55-3.23,5.57-4.3,8.58-.85,2.41-1.53,4.9-2.75,7.15-.55,1.01-1.5,2.46-2.77,1.5-.73-.66-.82-1.75-.99-2.67-.28-2.21.15-4.43.69-6.57.66-2.62,1.54-5.2,2.41-7.76.82-2.39,1.7-4.77,2.52-7.17.7-2.04,1.42-4.21,2.99-5.76,1.95-1.96,3.5-2.05,6.09-2.25,1.83-.18,3.64-.56,5.43-.95,2.18-.48,4.41-.59,6.61-.9,4.4-.65,8.74-1.75,13.04-2.91,1.43-.51,7.49-6.94,9.08-7.06,2.44-1.14,4.9-2.28,7.19-3.69,2.14-1.19,4.5-3.43,7.09-2.37,1.2.51,2.37,1.08,3.59,1.55,1.61.64,3.27,1.15,4.87,1.8,1.66.67,3.32,1.36,4.99,1.99,2.04.75,4.24,1.91,4.8,4.19,1.74,5.87,2.05,6.61,7.87,8.76,2.43.89,4.81,1.96,6.87,3.55,1.56,1.15,3.15,2.29,4.92,3.09,2.1,1.05,7.58,3.05,8.26,5.17Z"/><path class="cls-6" d="m408.22,225.28c-2.65,4.43-5.04,9.05-6.58,13.99-1.8,5.22-2.97,10.66-3.12,16.19-.14,3.98.03,7.98.19,11.95.03.86.08,1.74.02,2.6-.06.51-.1,1.13-.53,1.46-1.37.54-3.03-3.48-3.58-4.48-1.22-2.54-2.01-5.27-3.09-7.87-1.06-2.75-3.88-2.89-6.34-2.09-2.62.79-5.11,2.11-7.14,3.97-2.35,2.13-4.24,4.71-5.99,7.33-1,1.42-2,2.85-3.09,4.21-.73.83-1.6,2.16-2.87,1.77-.71,1.28-1.8,3.25-3.51,3.02-.78-.08-1.6-.25-2.2-.79-.7-.67-1.01-1.62-1.27-2.53-.34-1.22-.53-2.48-.62-3.74-.26-3.62-.05-7.72,2.48-10.56-.15-2.17.1-3.55,2.26-4.46,1.52-.63,3-1.46,4.08-2.73.89-1.04,1.55-2.26,2.27-3.41.81-1.3,1.71-2.57,2.59-3.83,2.22-3.02,5.56-5.17,9.09-6.34,1.9-.68,3.91-.81,5.89-1.02,2.6-.49,3.2-1.81,4.43-3.9,1.31-2.12,2.7-4.21,4.3-6.12.83-.93,1.95-1.57,2.95-2.3l9.41-.33Z"/><path class="cls-1" d="m438.37,192.1c.08,1.02-1.26.94-1.96.93-.69,0-1.39,0-2.08.02-3.02.06-6.05.23-9.06.49-3.6.38-7.23.72-10.85.58-1.99-.08-4.02-.15-5.96-.67-1.41-.38-2.7-1.09-4.01-1.73-1.38-.69-2.78-1.33-4.16-2.01-3.31-1.74-6.88-3.03-10.01-5.1-1.67-1.09-3.2-2.51-4.02-4.36-.5-1.05-.93-2.26-.61-3.44.44-1.54,1.48-2.84,1.85-4.41.17-.62.21-1.29.02-1.91-.23-.59-.63-1.1-1.02-1.59-1.43-1.63-3.29-2.84-5.15-3.93-3.39-2.02-7.15-3.44-11.07-3.99-2.24-.35-4.55-.49-6.8-.75-.69-.07-1.51-.2-2.19-.36-.21-.09-.65-.12-.7-.39.16-.25.56-.26.82-.34.52-.1,1.07-.18,1.59-.25,1.4-.19,2.81-.41,4.21-.55,3.8-.3,7.64-.06,11.41.48,2.57.38,5.12.96,7.68,1.37,2.7.54,5.43.97,8.07,1.79,3.65,1.23,7.17,2.88,10.6,4.62,2.64,1.37,5.24,2.85,7.86,4.29.78-.16,7.62,7.69,8.23,8.22-.15,1.15-.15,2.41.45,3.43,1.2,1.56,3.15,2.26,4.9,3.02,2.35.98,4.81,1.7,7.14,2.75,1.77.8,4.31,1.71,4.84,3.79Z"/><path class="cls-1" d="m439.17,98.03c-8.3-1.53-18.08-3.12-26.06.36-1.53.7-2.97,1.65-4.32,2.65-.79.6-1.74,1.19-2.11,2.15-.78,3.42,4.6,7.47,6.9,9.52,2.35,1.99,4.44,4.29,6.57,6.52,3.67,3.87,7,8.07,9.81,12.6,1.06,1.63,2.1,3.27,3.14,4.91.87,1.35,1.75,2.71,2.4,4.19,1.02,2.85-4.65.69-5.77.28-1.48-.61-2.92-1.36-4.39-2.01-1.1-.5-2.36-1.17-3.15.16-.57.96-.73,2.14-.89,3.23-.18,1.43-.24,2.9-.17,4.34.03.6.06,1.23.11,1.83.02.48.11,1.08-.28,1.43-1.75,1.25-10.35-5.83-11.95-7.25-3.66-3.55-7.22-7.26-10.24-11.36-3.53-4.81-6.38-10.09-8.89-15.49-1.71-4.01-3.13-8.16-4.17-12.4-.3-1.41-.73-2.81-.8-4.26,0-1.16.46-2.29,1.06-3.27.84-1.34,2.21-2.24,3.5-3.11,1.65-1.21,3.51-2.05,5.48-2.6,3.67-1.25,7.48-2.05,11.34-2.39,2.66-.33,5.35-.32,8.02-.1,2.46.26,4.98.29,7.39.92,1.47.41,2.8,1.19,4.16,1.87,2.96,1.29,10.39,5.73,13.32,7.3Z"/><path class="cls-1" d="m485.99,73.6v.02s0,.02,0,.02c-1.98.24-4.02.3-6,.66-3.89.63-7.67,1.84-11.38,3.15-3.6,1.3-6.93,3.26-10.36,4.94-4.2,2.1-11.71,5.08-11.81,10.57-.05.86.06,1.73.21,2.58.06.39.12.8.17,1.19.02.26.05.65-.28.71-.77.13-1.47-.39-2.2-.55-1.47-.39-2.95-.79-4.42-1.19-3.62-1.21-9.16-1.3-11.5-4.58-1.9-2.67.04-4.26,2.02-6,2.78-2.23,5.8-4.23,8.9-5.98,1.53-.82,3.18-1.4,4.79-2.02,2.53-1.02,5.16-1.76,7.82-2.31,6.09-1.53,12.44-1.01,18.63-.51,1.14.54,11-1.25,12.33-1.37,1.02.17,2.12.28,3.08.68Z"/><path class="cls-1" d="m584.73,180.44l-.87,10.47c-4.32,3.77-8.93,7.24-14.17,9.64-.53.23-4.76,2.23-4.51.82.38-.7,1.02-1.24,1.56-1.82,1.33-1.38,2.81-2.66,3.96-4.2,1-1.41-.16-1.63-1.4-1.44-.7.06-1.4.15-2.09.23-3.81.47-7.51,1.48-11.16,2.64-5.22,1.68-10.56,3.16-15.58,5.39-3.56,1.61-6.88,3.82-10.6,5.04-1.67.52-3.43.82-5.13,1.18-1.8.36-3.66.7-5.5.45-1.63-.19-2.94-.92-1.04-2.31.81-.68,1.65-1.33,2.49-1.98,1.22-.94,2.51-1.8,3.73-2.73,1.28-1,2.53-2.07,3.83-3.04,3.57-2.67,7.12-5.38,10.85-7.82,1.9-1.31,3.75-2.75,5.73-3.93,4.02-2.25,8.38-3.91,12.76-5.31,2.96-.85,5.89-1.98,8.98-2.27,6.06-.2,12.18.07,18.17.99Z"/><path class="cls-1" d="m590.34,134.88c.1,1.71-.38,3.62-1.64,4.85-.68.59-1.59.79-2.42,1.05-1.05.32-2.09.7-3.05,1.23-2.27,1.27-4.33,2.9-6.4,4.46-3.2,2.39-6.42,4.8-9.99,6.63-1.43.73-2.88,1.52-4.45,1.9-1.67.37-4.03.31-5.33-.93-.94-1.25.28-3.31.84-4.53-1.29-1.08-1.19-2.51-.99-4.02.43-3.62,2.93-6.5,4.43-9.72,2.22-4.06,3.82-8.43,6.22-12.4.82-1.24,1.5-2.77,2.84-3.53.99-.4,2.12-.14,3.12.11.41.11.83.26,1.23.41.28.11.58.28.89.19.77.51,1.65.83,2.45,1.29,1.92,1.19,3.69,2.68,5.14,4.41l-.06-.1c2.85,2.34,6.59,4.78,7.19,8.7Z"/><path class="cls-1" d="m677.93,219.27c.14,3.27-.37,6.83-2.63,9.36-.53.53-1.14.97-1.72,1.43-.65.53-1.29,1.08-1.96,1.59-2.67,2.03-5.65,4.2-9.14,4.28-3.48.05-6.92-.61-10.35-1.1-4.97-.76-9.97-1.36-14.97-1.89-2.49-.26-4.98-.74-7.46-1.03-2.79-.32-5.62-.43-8.43-.54-5.88-.2-11.78-.57-17.67-.27-3.91.19-7.82.65-11.71,1.03-3.36.25-6.73.39-10.1.47-3.63.07-7.3,0-10.9-.54-3.13-.44-8.81-1.64-4.13-5.32,2.37-2.03,4.94-3.87,7.66-5.41,5.36-3.12,11.38-4.79,17.06-7.2,1.93-.84,4-1.5,5.81-2.59,1.1-.97-2.28-1.46-2.84-1.62-2.52-.64-5.14-.81-7.68-1.36-1.64-.35-4.08-1.5-2.78-3.52.89-1.59,2.28-2.83,3.57-4.09,3.99-3.89,9.82-4.82,15.19-4.99,3.92-.13,7.85.12,11.75.5,3.53.33,7.08.68,10.55,1.43,5.39,1.14,10.57,3.22,16.08,3.79,3.27.5,6.6.68,9.91.55,2.15-.11,6.24.14,7.48-1.9.64-1.55-.8-2.94-1.56-4.16-1.8-2.64-4.16-4.87-6.69-6.79-2.11-1.59-4.67-2.42-6.98-3.68-5.32-3.02-10.59-6.13-15.96-9.06,1.73.21,10.97,1.99,12.5,1.64,3.71-.06,7.46.45,10.9,1.87,4.19,1.72,7.84,4.46,11.54,7.02,3.29,2.24,6.85,4.23,9.36,7.4,2,2.26,3.26,5.07,3.89,8,.2,1.16.17,2.46-.43,3.5-.44.71-1.24,1.23-2.08,1.26-.94,0-1.87-.13-2.81-.11-2.36.02-4.72.22-7.07.37-2.72.21-5.46.37-8.14.88-2.04.39-4.01,1.12-6,1.72,6.16-.51,12.14,1.3,18.14,2.37,2.07.38,4.19.28,6.27.08.98-.03,1.98-.27,2.96-.15,1.17.31,1.17,2.3,1.31,3.29.1,1.15.21,2.31.26,3.47Z"/><path class="cls-1" d="m657.09,339.51c.14.85-.31,1.65-.68,2.39-.55,1.06-1.15,2.11-1.76,3.14-1.66,3.01-3.9,5.64-6.53,7.85-1.17.96-2.41,2.02-3.9,2.42-.44.11-.9.13-1.32.28-.79.23-1.17.96-1.13,1.75,0,.87.31,1.73.26,2.6-.08,1.06-.77,2.18-1.85,2.45-1.29.24-2.56-.25-3.75-.67-1.55-.55-3.08-1.19-4.64-1.71-4.8-1.63-9.48-2.04-14.48-1.17-4.99.75-9.97,1.66-14.95,2.47-4.11.64-8.31.65-12.44.24-5.9-.41-11.27-3.12-16.32-6.01-4.96-2.73-9.04-5.74-11.43-11.06-1.06-2.25-1.83-4.69-2.13-7.16-.26-2.28-.18-4.63-.27-6.92-.06-7.34-1.27-14.66-3.18-21.74,3.4,2.13,11.96,8.17,15.62,9.38,4.46,1.72,9.05,3.17,13.31,5.34,3.78,1.75,7.39,3.87,11.09,5.77,4.2,2.06,8.54,3.85,12.83,5.71,2.26.97,4.55,1.96,6.72,3.13,2.97,1.58,5.88,3.33,9,4.61,2.08.86,4.27,1.48,6.46,2,2.68.65,5.75.94,8.13-.74.82-.55,1.54-1.25,2.3-1.87.94-.75,1.94-1.45,2.94-2.11,2.22-1.51,4.77-2.77,7.53-2.55,1.65.11,4.07.27,4.57,2.19Z"/><path class="cls-1" d="m693.76,337.36c.15,3.68-.03,7.36-.07,11.05-.05,2.81.09,5.62.22,8.42.16,3.06.38,6.14.72,9.19.25,2.53.72,5.06.76,7.6-.06,4.72-1.15,8.67-6.56,9.13-3.38.22-6.92-.58-9.64-2.66-2.33-1.72-4.57-3.55-6.86-5.32-5.53-4.22-11.02-9.25-13.22-16.04-.92-3.07-.4-5.07.86-7.92,1.86-4.73,4.67-9.01,7.15-13.43,1.9-3.29,2.79-7.05,3.38-10.77,1.11-6.3.93-12.73.65-19.09l9.38,4.65c.05.06.14.17.19.23.37.45.75.92,1.11,1.37,1.39,1.77,2.86,3.49,4.15,5.33,3.96,5.33,7.48,11.48,7.77,18.26Z"/><path class="cls-1" d="m685.46,435.83c.13,3.79.15,7.67-.89,11.36-.38,1.31-.96,2.58-1.57,3.81-.54,1-1.07,2.09-1.94,2.85-.32.29-.81.44-1.23.32-.61-.29-.56-1.09-.68-1.67-.23-2.19-.71-4.35-1.23-6.49-.74-3.31-1.7-6.61-3.39-9.58-1.6-3.09-3.53-6.14-6.5-8.08-2.2-1.57-4.81-2.48-7.39-3.21-3.84-1.07-7.96,0-11.27,2.09-1.21.72-2.37,1.53-3.46,2.42-.96.67-1.94,1.79-3.17,1.8-.58-.02-1.18-.17-1.69-.46-.5-.33-.9-.82-1.29-1.27-.79-.9-1.54-1.85-2.31-2.77-2.43-2.92-4.91-5.82-7.37-8.72-1.97-2.28-4.26-4.29-6.56-6.22-2.55-2.29-5.45-4.13-8.28-6.04-1.42-.99-2.85-2.02-4.37-2.85-1.83-1.01-3.78-1.84-5.65-2.77-2.09-1.01-4.12-2.17-6.19-3.22-2.76-1.35-5.55-2.72-8.19-4.28-4.11-2.42-9.37-5.34-9.36-10.75-2.27-1.15-4.15-3.02-5.39-5.25-1.34-2.32-2.08-5.28.62-6.96,1.46-.87,3.18-.12,4.73.08,2.57.45,5.09,1.16,7.55,2.03,2.6.79,5.04,2.01,7.46,3.24,6.48,1.98,13.1,3.62,19.34,6.31,2.55,1.06,4.88,2.58,7.34,3.82,2.81,1.34,5.72,2.51,8.69,3.44,2.43.7,4.92,1.24,7.43,1.53,2.4.27,4.84.35,7.22.77,1.94.36,3.9.79,5.79,1.35,1.54.49,3.05,1.1,4.57,1.65,3.45,1.26,6.84,2.81,9.73,5.12,2.87,2.15,5.18,4.96,7.44,7.72,2.72,3.34,5.27,6.84,7.17,10.71.97,1.96,1.92,3.96,2.5,6.07,1.06,3.94,1.61,8.02,1.79,12.1Z"/><path class="cls-1" d="m641.88,465.84c.05,1.14-.12,2.31-.44,3.4-.67,1.9-2.91,2.51-4.68,2.96-3.55.9-7.3.77-10.83-.14-2.63-.6-5.29-1.26-7.82-2.19-4-1.51-7.87-3.43-11.72-5.27-5.42-2.72-9.29-6.04-11.39-11.89-1.6-4.32-1.91-9-2.46-13.54-.77-6.58-1.1-13.21-1.61-19.81.4-2.37-3.37-13.26-3.98-15.61,5,5.35,11.05,9.62,17.1,13.69,4.17,2.62,8.48,5.12,12.08,8.53,2.64,2.44,5.53,4.68,7.93,7.38,1.81,2.04,3.35,4.34,4.88,6.58,2.01,2.9,3.92,5.91,5.52,9.06,1.89,3.65,3.72,7.38,5.38,11.14.78,1.86,1.68,3.72,2.04,5.71Z"/><path class="cls-11" d="m429.83,302.47c.05,2.39-.93,4.69-1.62,6.95-.71,2.09-1.16,4.28-1.34,6.48-.29,3.04-.18,6.12-.14,9.16-.05,2.7.08,5.66-1.37,8.05-1.87,2.84-5.19,4.18-8.31,5.18-2.05.69-4.13,1.35-6.22,1.9-8.02,1.86-16.2,3.05-24.35,4.17-4.03.67-7.87,2.14-11.76,3.33-1.41.45-2.71,1.2-3.93,2.03-1.51,1.02-2.91,2.22-4.48,3.16-1.59.99-3.49,1.59-5.07.25-.95-.73-1.4-1.9-1.58-3.05-.3-1.15-.15-4.13-1.63-4.39-.61-.04-1.22.14-1.81.28-.99.24-1.95.58-2.87,1-2.19.82-4.26,1.91-6.43,2.8-2.66,1.08-5.1,2.65-7.71,3.82-2.66,1.11-5.5,1.75-8.34,2.24-5.72.97-10.05,2.31-15.89.66-1.4-.34-2.78-.79-4.08-1.4-1.05-.5-2.04-1.1-3.06-1.65-1.7-.92-3.31-2.04-5.12-2.74-1.82-.72-3.73-1.44-5.21-2.76-1.19-1.13-2.15-2.78-2.03-4.46.34-1.36,1.24-2.51,1.85-3.75,1.09-2.1,1.76-4.39,2.73-6.54,1.1-2.58,2.48-5.06,3.21-7.78.77-3.13,1.44-6.3,2.55-9.34,1.08-2.96,2.58-5.75,3.86-8.63,2.25-4.76,4.33-9.79,8.09-13.6,1.9-1.96,4-3.73,6.1-5.48,1.37-1.13,2.71-2.32,4.2-3.3,1.84-1.12,3.82-2,5.73-2.99,2.38-1.23,4.73-2.52,7.22-3.52,6.01-2.3,12.59-2.34,18.94-2.55.68,1.07,2.08,1.38,3.28,1.3.73-.11,1.29-.71,1.74-1.24,1.76.09,3.55.1,5.29.44,3.03.66,5.97,1.77,8.87,2.84-.24.45-2.28,6.78-2.68,7.04-.92,1.39-1.78,2.89-2.34,4.47-1.94,5.3,1.99,9.32,6.49,11.43,8.22,4.46,13.44,2.43,22,1.22,6.83-.65,12.94-4.58,19.86-4.69,2.66.02,6.92.34,7.37,3.63Z"/><path class="cls-11" d="m546.23,259.33c.07,1.3-.36,2.56-.84,3.74-.49,1.18-1.04,2.35-1.66,3.47-3.1,5.96-8.91,9.65-13.94,13.84-2.65,2.15-5.13,4.49-7.76,6.65-2.73,2.25-5.64,4.3-8.18,6.77-1.06,1.05-1.99,2.23-2.88,3.43-.85,1.12-1.74,2.31-3.04,2.94l-2.21-.23c-1.01-.79-1.83-1.8-2.86-2.57-1.61-1.18-3.37-2.19-5.19-3-1.57-.64-3.29-.62-4.95-.82-1.79-.21-3.57-.51-5.38-.45-4.06.2-8.06,1.13-12.12,1.28-3.39.17-6.8.31-10.19.09-2.39-.2-4.75-.62-7.12-1-5.94-1-10.63-2.17-15.59-5.79l-2.25.09-4.13-11.64c1.2-.76,6.83-4.42,8.04-4.74,4.08-1.52,8.45-2.05,12.74-2.7,8.53-1.22,17.09-2.33,25.54-4.03,7.88-1.65,15.69-3.78,23.23-6.61,9-3.35,18.11-7.73,27.95-7.1,3.44.21,7.12.82,9.78,3.19,1.52,1.33,2.9,3.1,3.03,5.18Z"/><path class="cls-11" d="m542.65,402.54l3.01,6.14c-.67,2.69-2.81,4.66-4.95,6.26-3.07,2.21-6.69,3.45-10.16,4.89-1.74.76-3.42,1.71-5.09,2.61-5.98,3.06-11.89,6.59-16.19,11.86-1.05,1.19-2.07,2.44-3.28,3.48-.47.78-.92,1.58-1.39,2.36-.43.78-.93,1.52-1.48,2.21-.54.75-1.22,1.36-2.08.62-1.41-1.11-2.93-2.08-4.48-2.98-1.18-.62-2.43-1.12-3.64-1.68-2.28-.91-4.52-1.92-6.87-2.63-1.88-.64-3.89-.57-5.82-.91-3.33-.58-6.71-.95-10.08-1.22-1.89-.28-3.82-.39-5.69-.75-1.86-.39-3.76-.65-5.56-1.25-1.05-.23-2.14-.27-3.18-.53-.35-.08-.72-.17-1.06-.28-.55,0-1.13-.04-1.68-.08-2.07-.19-4.19-.32-6.15-1.07-2.26-.79-4.1-2.34-5.94-3.82-2.14-1.76-4.34-3.46-6.52-5.18-.91-.79-1.75-1.68-2.39-2.71-.75-1.27-1.32-2.64-1.86-4.02-.64-1.63-1.2-3.31-1.4-5.06-.22-1.85-.1-3.73.14-5.57.28-1.95.61-4,1.69-5.69,1.52-2.17,3.7-3.03,6.26-3.35,3.02-.42,6.06-.76,9.09-1.14,2.42-.31,4.9-.54,7.24-1.25,1.75-.53,3.39-1.47,4.8-2.64,1.19-.93,2.27-2.03,3.55-2.85,3.82-2.49,11.14-3.26,15.64-2.76,3.48.36,6.88,1.75,9.37,4.25,2.11,2.02,4.12,4.24,6.48,5.98,3.05,2.24,6.3,4.42,9.91,5.63,2.62.85,5.45.99,8.18,1.27,3.18.31,6.41.59,9.61.5,4.09,0,8.22-.32,12.31-.14,3.25.13,6.52.71,9.68,1.49Z"/><path class="cls-11" d="m425.27,442.2c.43,5.86-6.02,8.1-10.67,9.29-1.8.5-3.58,1.1-5.38,1.59-2.46.71-4.91,1.52-7.32,2.38-1.22.48-2.38,1.14-3.64,1.53-.92.3-1.9.32-2.86.41-1.76.18-3.63.47-5.3,1.05-.75.36-1.44.83-2.23,1.1-.88.33-1.82.41-2.73.65-1.83.21-3.7.17-5.54.18-1.4-.03-2.81-.12-4.2.11-2.48.37-5.01.31-7.49.67-1.82.31-3.51,1.13-5.1,2.03-.79.4-1.6,1.02-2.52,1.02-.49-.11-.72-.65-.93-1.05-.83-1.78-1.37-3.69-2.06-5.53-.94-2.22-1.69-4.52-2.77-6.68-.6-1.2-1.37-2.31-2.22-3.34-.8-1.1-2.03-1.81-3.34-1.06-.66.3-1.29.68-1.99.88-2.15.55-4.4.44-6.6.62-2.26.16-4.54.53-6.79.12-1.06-.16-2.06-.6-3.07-.95-1.31-.46-2.61-1.03-3.98-1.31-1.06-.18-2.16-.14-3.21-.42-.91-.23-1.74-.74-2.47-1.33-1.97-1.6-2.24-2.73-1.79-5.22.5-2.83,1.63-5.49,2.29-8.28.51-2.01,1.17-3.98,1.76-5.97.4-1.35.62-2.77,1.11-4.09,1.85-5.22,3.37-10.57,5.41-15.72,0,.56.69.87.99.3.2-.32.22-.71.28-1.08.06-.37.17-.74.28-1.1.83-2.23,1.92-4.36,2.97-6.49,1.39-2.93,2.78-5.9,4.58-8.61.78-1.21,1.77-2.26,2.8-3.25,1.22-1.22,2.46-2.47,3.87-3.47,2.4-1.67,5.32-2.4,8.1-3.2.03.25,1.86,5.56,1.74,5.66.25,1.28.81,2.52,1.54,3.6,2.1,2.81,4.89,5.64,8.47,6.28,7.43.99,13.07-5.1,18.72-8.93,2.39-1.69,8.55-6.77,11.41-4.74,1.25,1.54-1.56,6.39-2.28,8.09-1.22,2.47-2.47,4.99-3.48,7.55-3.38,8.02-4.1,18.45,4.3,23.58,2.05,1.17,4.43,1.64,6.7,2.18,2.15.5,4.29,1.19,6.36,1.95,6.01,2.13,9.41,4.26,13.27,9.44,2.14,2.86,4.68,5.83,5,9.53Z"/><path class="cls-2" d="m506.9,152.77c.1.83-.92.87-1.51.93-.76.05-1.54.1-2.3.17-1.93.16-3.85.47-5.71.97-3.12.87-5.98,2.5-8.87,3.93-4.19,2.13-8.43,4.19-12.81,5.89-4.25,1.79-8.61,3.36-12.68,5.56-2.37,1.19-4.79,2.45-6.65,4.38-1.04,1.15-3.12,3.02-2.6,4.7.34.81,1.14,1.31,1.78,1.88,1.14.96,2.33,1.97,3.01,3.33.7,1.33.86,2.91.47,4.36-.21.84-.52,1.79-1.33,2.23-.82.37-1.75.38-2.63.43-1.24.06-2.49.12-3.73.17-4.34.16-8.67.55-13,.79.32-1.91-2.93-3.38-4.38-4-2.03-.92-4.14-1.64-6.23-2.4-2.15-.9-4.56-1.62-6.14-3.43-.68-1.03-.68-2.36-.53-3.55-.67-.56-7.46-8.4-8.23-8.22-2.61-1.43-5.21-2.91-7.85-4.29-3.43-1.74-6.95-3.39-10.6-4.62-2.63-.81-5.37-1.24-8.07-1.79-2.57-.41-5.11-1-7.68-1.37-3.77-.53-7.61-.77-11.41-.48-1.4.14-2.82.36-4.21.55-.52.07-1.07.14-1.59.25-.27.08-.65.1-.82.34,0,.2.3.25.44.32.58.18,1.28.28,1.88.37,2.25.29,4.56.42,6.8.74,3.91.5,7.7,1.8,11.1,3.77,2.05,1.17,4.1,2.45,5.67,4.23,1.22,1.38,1.45,2.46.78,4.2-.43,1.34-1.34,2.49-1.66,3.86-.25,1.13.17,2.27.65,3.28,2.09,4.35,7.05,6.02,11.11,8.02,2.26,1.13,4.55,2.21,6.83,3.31,1.85.95,3.73,1.92,5.82,2.2.2,2.41-.28,5.72-2.66,6.93-1.01.52-2.17.55-3.29.57-1.14,0-2.3-.03-3.41-.33-.87-.22-1.68-.65-2.49-1.04-1.34-.64-2.66-1.31-4.01-1.91-2.84-1.16-6.71-3.01-9.68-1.43-1.55.72-2.21,2.33-2.63,3.88-.4,1.42-.15,2.9.08,4.32.33,2.21.94,4.39,1.87,6.43,1.1,2.77,3.02,5.22,3.7,8.15.37,2.61-1.45,3.06-3.65,2.62-1.68-.29-3.34-.76-5.03-1.03-1.73-.29-3.5-.4-5.24-.59-2.38-.22-4.76-.55-7.08-1.16-2.06-.48-4.1-1.17-5.88-2.34-1.25-.8-2.35-1.79-3.5-2.73-1.85-1.45-3.62-3.02-5.59-4.3-1.76-1.11-3.42-2.42-5.36-3.2-1.63-.65-3.39-.88-5.08-1.34-1.62-.39-3.17-1.03-4.76-1.5-1.8-.54-3.64-.9-5.51-1.08-1.68-.2-3.35-.47-5.03-.64-1.09-.13-2.21-.24-3.24-.66-1.16-.53-2.23-1.43-2.78-2.6-.19-.58.04-1.19.36-1.67.35-.55.8-1.05,1.24-1.53.75-.84,1.49-1.68,2.24-2.5,1.48-1.63,2.96-3.27,4.36-4.97.99-1.21,2-2.44,2.7-3.85.92-1.73,1.28-3.67,1.74-5.55.78-3.13,1.54-6.36,3.19-9.16.57-1.04,1.31-1.97,2.08-2.87.8-.96,1.63-1.9,2.56-2.74,2.83-2.68,6.36-4.44,9.97-5.8,2.67-1.13,5.44-2.02,8.28-2.64,4.5-1.17,9.16-1.61,13.8-1.27,3.1.14,6.12.84,9.05,1.84,1.28.41,2.61.72,3.89,1.14.56.21,1.18.38,1.61.8h0s0,.01,0,.01h0s0,0,0,0v.02c2.44.92,9.6,3.19,11.63,4.62,3.22,1.81,6.43,3.8,10.06,4.69,2.15.56,4.33,1.07,6.48,1.61,2.17.57,4.38,1.02,6.62,1.25,3.03.47,6.09.6,9.14.86,3.19.23,6.38.64,9.58.71,1.49.03,3.01.06,4.48-.2,1.76-.46,3.46-1.24,4.95-2.28,2.09-1.6,3.83-3.61,5.7-5.45,1.39-1.34,2.92-2.58,4.61-3.52,1.25-.71,2.63-1.19,3.98-1.68-.76-2.34-2.58-4.1-4.23-5.84-2.27-2.41-4.72-4.72-7.62-6.35-2.12-1.11-4.5-1.63-6.84-2.02-3.18-.38-6.5-.73-9.24-2.52-1.85-1.41,1.84-2.41,2.86-2.6,1.12-.2,2.28-.1,3.41-.09,1.87.08,3.75.22,5.62.37,2.64.19,5.36.17,7.86,1.16,2.02.71,3.33,2.46,4.8,3.91,1.41,1.3,2.76,2.7,3.85,4.29,1.72,2.53,3.07,5.3,4.48,8.01,1.71-.55,3.46-.95,5.16-1.53,2.03-.72,4.06-1.46,6.01-2.38,4.08-2.08,8.17-4.5,11.49-7.69,1.6-1.6,2.95-3.45,4.56-5.05,1.71-1.77,3.14-1.24,4.61.48,1.43,1.57,2.08,3.65,3.02,5.51.96,2.15,2.58,4.06,3.05,6.4Z"/><path class="cls-2" d="m573.49,83.44c.18,3.38-1.28,6.58-2.39,9.7-.33.86-.68,1.78-1,2.64-.14.33-.26.7-.22,1.05-.06,5.31-.6,10.59-1.33,15.85-.33,2.38-.69,4.78-1.23,7.13-.7,2.95-1.63,5.85-2.57,8.73-1.06,2.99-2.66,5.77-4.1,8.58-.92,1.77-2.04,3.44-2.87,5.26-.37.84-.64,1.74-.8,2.65-.07.45-.13.91-.16,1.37-.17.28-.4.61-.57.89-1.41,2.09-3.01,4.07-4.68,5.96-1.26,1.41-3.91,3.32-5.84,2.38-.66-.34-1.01-1.02-1.29-1.67-.31-.7-.61-1.41-.94-2.09-1.6-3.4-4.54-5.05-8.27-4.75-1.45.06-2.76.77-3.93,1.58-1.46,1-2.86,2.13-4.26,3.22-2.73,2.23-5.57,4.48-7.54,7.44-1.14,1.62-1.97,3.45-2.92,5.17h-.02c.09-1.79.46-3.57.84-5.31.56-2.47,1.23-4.96,2.19-7.31,2.36-5.56,5.49-10.81,9.51-15.35,2.6-3.09,4.75-6.53,6.87-9.95,1.99-3.22,4.14-6.38,5.87-9.76,1.27-2.51,2.29-5.2,3.16-7.87.95-1.34,7.24-7.27,7.5-8.93.81-1.97,1.43-4.14,1.28-6.28-.12-1.32-.65-2.59-1.18-3.79-1.28-2.91-3.19-5.51-4.39-8.45-.71-1.91-1.58-4.89.61-6.13.64-.34,1.37-.56,2.1-.55.81.01,1.61.25,2.38.46,2.48.7,4.81,1.84,7.2,2.79,1.14.45,2.29.91,3.46,1.25,1.43.41,2.89.8,4.22,1.49.61-.24,1.22-.49,1.84-.69.44-.15.91-.29,1.38-.23,1.45.36,1.95,2.22,2.11,3.53Z"/><path class="cls-2" d="m611.3,181.88c.12,1.56-.59,2.26-1.78,3.11-1.37,1.08-3.09,1.48-4.76,1.85-2.4.53-4.78,1.21-7.2,1.67-1.85.4-3.75.35-5.63.44-2.76.2-5.54.7-8.06,1.88l.86-10.39c-1.32-.21-2.79-.4-4.12-.54,1.91-2.52,3.36-5.39,5.41-7.8,2.32-2.5,5.01-4.73,6.72-7.73,1.41-2.35,2.2-5.11,2.08-7.86-.15-2.44-.51-4.94-1.52-7.18-1.78-3.55-5.22-5.89-8.46-8l9.08-1.68c.11.02.33.04.44.06,2.26.28,4.39,1.17,6.21,2.52,1.08.75,2.09,1.61,3.11,2.44,1.39,1.05,2.57,2.38,3.11,4.06,2.14,5,1.95,10.51,2.28,15.84.22,3.79.4,7.61,1.01,11.37.27,2.01,1.07,3.93,1.22,5.96Z"/><path class="cls-2" d="m571.06,194.26c.34,1.39-4.84,5.41-5.77,6.92-.86,1.86,4.44-.62,4.98-.91-6.28,4.3-12.69,8.43-18.64,13.19-4.28,3.14-8.87,5.86-13.24,8.88-2.22,1.54-4.4,3.15-6.74,4.51-1.86,1.02-3.95,1.68-6.07,1.79-2.73-1.66-5.14-3.89-8.18-5-1.03-2.49-1.08-5.32-.52-7.93.63-2.39,1.63-4.73,2.98-6.81,1.89.14,3.78-.3,5.62-.66,2.01-.4,4.08-.81,5.98-1.6,4.4-1.89,8.46-4.58,13.03-6.1,4.15-1.41,8.33-2.79,12.53-4.05,3.26-1.05,6.6-1.88,10-2.32.71-.1,1.44-.17,2.15-.25.61-.02,1.51-.29,1.88.34Z"/><path class="cls-2" d="m517.7,88.04c.09,1.94-.31,3.86-1.06,5.65-1.71,3.96-2.52,8.37-2.04,12.67.31,3.11.94,6.2,1.09,9.33.11.93.24,6.97-1.49,4.34-.48-.74-.9-1.51-1.39-2.24-.66-.92-1.36-1.82-2.16-2.62-1.88-1.92-4.48-2.82-7.01-3.53-1.53-.45-3.09-.84-4.55-1.5-1.58-.71-3.01-1.71-4.39-2.76-3.17-2.52-6.28-5.24-10.01-6.91-1.83-.78-3.83-1.13-5.8-1.33-1.98-.17-4.03-.33-5.99.09-2.99.74-5.65,2.48-8.35,3.89-3.28,1.85-6.76,3.48-9.75,5.79-.71.48-4.06,3.78-3.78,2.28.94-2.13,2.27-4.1,3.58-6.02,1.58-2.31,3.4-4.46,5.62-6.18,3.16-2.59,6.81-4.53,9.9-7.21,2.51-1.94,4.46-4.83,7.57-5.86,1.8-.51,2.92.63,4.25,1.61,2.02,1.51,3.94,3.14,5.81,4.83,1.22,1.06,2.55,1.99,3.9,2.87,1.37.9,2.81,1.72,4.38,2.23,1.69.57,3.48.79,5.22,1.19,1.68.36,3.32.92,5.01,1.23,3.15.66,4.01-.89,4.65-3.69.93-4.22-.62-8.78-3.64-11.81-1.77-1.65-3.8-3.09-5.95-4.2-4.18-1.94-8.69-3.11-12.96-4.83.39.05,9.95-.43,10.01.03,2.39.77,4.61,1.98,6.89,3.04,1.63.74,3.37,1.23,4.99,1.98,1.31.68,2.61,1.43,3.8,2.31,1.77,1.44,3.67,2.83,3.68,5.34Z"/><path class="cls-19" d="m472.06,234.35c-.12,2.87-.44,6.03-2.48,8.23-2.54,2.91-5.93,4.83-9.37,6.48-2.45,1.22-4.85,2.54-7.32,3.72-2.89,1.39-5.68,3.06-8.22,5.03-2.16,1.73-4.03,3.82-6.28,5.44-2.39,1.76-3.77,1.9-6.57,1.07-2.38-.6-4.88-.73-7.3-.24-2.03.37-4.04.86-6.06,1.32-2.05.47-4.11.85-6.15,1.35-2.08.52-4.01,1.48-5.7,2.8-1.53,1.14-3.05,2.35-4.3,3.79-1.24,1.45-2.24,3.13-3.61,4.46-.2.15-.47.26-.72.2-.25-.07-.44-.28-.62-.45-.67-.67-1.09-1.53-1.5-2.38-.63-1.38-1.07-2.86-1.26-4.37-.21-1.66-.23-3.34-.52-4.99.83,1.8,1.61,3.71,2.93,5.21.95.99,1.56.48,1.69-.73.14-1.59-.03-3.2-.07-4.8-.16-4.4-.32-8.83.1-13.22.4-4.58,1.56-9.06,3.05-13.4,1.51-4.8,3.87-9.28,6.44-13.58l-3.54.12c4.27-3.19,9.91-2.52,14.92-2.35,2.65.1,5.16-.88,7.66-1.63,3.43-1.14,7.03-2.28,10.67-1.6,1.62.19,3.21.65,4.83.87,2.05.25,4.14.24,6.2.39-2,.22-3.94.77-5.92,1.1-1.64.32-3.33.31-4.97.61-3.53.86-5.19,4.26-6.19,7.45-1.95,5.84-4.38,11.57-5.54,17.63-.33,2.01-.42,4.16.34,6.08.23.62.89,1.08,1.56.99.65-.12,1.05-.76,1.4-1.27,2.16-3.69,2.85-8.03,4.73-11.85,1.18-2.6,2.85-4.97,4.9-6.97,1.7-1.77,3.77-3.27,6.18-3.86,1.23-.35,2.43.14,3.58.56,1.58.49,3.21.83,4.81,1.22,1.93.43,3.86,1.07,5.47,2.26,2.22,1.58,4.18,3.62,6.77,4.61,2.99,1.18,4.75-3.25,5.99-5.26Z"/><path class="cls-5" d="m606.24,253.22c-.07.64-2.86.43-3.43.47-2.89,0-5.78-.24-8.66-.54.83,1.06-.04,2.29-.79,3.1-.7.81-1.47,1.56-2.24,2.29-1.9,1.77-3.81,3.55-5.54,5.49-1.36,1.49-2.48,3.17-3.74,4.73-.92,1.09-1.88,2.32-3.27,2.8-1.92.64-3.97.75-5.93,1.25-1.69.43-3.31,1.12-4.9,1.83-1.78.84-3.65,1.76-5.04,3.19-1.82,1.9-.05,3.16,1.82,3.79,1.55.62,3.17,1.07,4.78,1.48,2.07.53,4.15,1.14,6.17,1.85,1.41.52,2.93,1,4.07,2.02.47.37.97,1.33.13,1.56-.6.13-1.24.08-1.86.14-1.36.08-2.73.21-4.08.37-2.94.43-5.92.7-8.82,1.37-4.31,1.25-8.38,3.37-11.96,6.07-3.04,2.46-5.62,5.46-7.84,8.68-2.72,3.68-7.06,12.48-12.58,10.73-1.05-2.44-2.24-4.83-3.63-7.1-.78-1.3-1.52-2.67-2.6-3.75-1.08-.99-2.21-2.03-3.6-2.56-1.56-.54-3.5-.5-4.82.59-1.01-.6-2.04-1.19-3.06-1.78-.46-.68-5.02-.85-5.74-.99.15-.53.39-1.03.65-1.52.43-.5.85-1.02,1.25-1.55,1.85-2.63,4.22-4.81,6.75-6.77,1.78-1.43,3.59-2.81,5.33-4.29,2.83-2.44,5.61-4.95,8.55-7.27,3.39-2.74,7-5.32,9.73-8.76.33-.51.82-.89,1.32-1.21,2.34-1.64,9.12-6.14,11.42-7.74-1.71,1.74-3.39,3.59-4.52,5.76-.87,1.55.88,1.22,1.84,1.16,5-.41,9.82-2.04,14.24-4.37,3.28-1.59,6.28-3.69,9.53-5.34,5.47-2.64,11.43-5.17,17.63-4.59-2.35-1.27-5.93-3.21-8.29-4.48-.38-.1-.82-.21-1.2-.32-2.4-.66-4.82-1.27-7.27-1.73-3.98-.67-7.96-1.93-12.03-1.66-1.2-1.61-2.7-2.97-4.12-4.37-1.75-1.57-3.56-3.35-5.95-3.8-1.61-.34-3.26-.41-4.89-.6-1.63-.17-3.24-.52-4.81-.95-2.21-.54-4.23-1.6-6.35-2.38-2.41-.85-4.89-1.55-7.15-2.76-1.39-.7-2.9-1.25-4.14-2.22,2.41-.33,4.67-1.32,6.68-2.67,1.78-1.18,3.53-2.41,5.28-3.64,4.08-.27,8.18-.58,12.22-1.23,4.01-.67,7.88-1.94,11.78-3.03,10.12-2.86,15.21-5.78,20.98-14.77l1.23.72c-.44.61-.93,1.26-1.09,2.01-.12,2.09,2.83,2.57,4.39,2.88,2.38.34,4.77.68,7.1,1.25.67.2,2.24.36,2.39,1.14-.25.56-1,.72-1.49,1.01-3.71,1.61-7.48,3.14-11.28,4.53-5.48,1.92-10.83,4.41-15.46,7.95-1.43,1.15-3.03,2.21-4.12,3.71-1.53,3.29,6.62,3.73,8.57,3.97-.15,2.77,1.86,5.09,3.81,6.82,2.03,1.7,4.46,2.87,6.91,3.83,2.89,1.25,5.89,2.29,8.82,3.43,3.08,1.21,5.86,3.05,8.81,4.53.98.51,2,.97,3,1.45.37.21.97.37,1.14.77Z"/><path class="cls-3" d="m554.03,478.25c.12,2.2-.03,4.41-.03,6.61.03,2.39.16,4.79.07,7.18-.04,2.09-.33,4.16-.57,6.23-.16,1.92-.28,3.86-.44,5.78-.19,3.52-.54,7.04-.96,10.54-.15,1.27-.33,2.55-.51,3.81-.16.97-.32,1.98-.75,2.87-.52,1.04-1.42,2.03-2.56,2.38-.89.21-1.83,0-2.74.04-2.22-.05-4.44.11-6.66.19-2.92.11-5.84.23-8.76.13-2.47-.08-4.93-.39-7.39-.54-7.22-.23-14.41-1.14-21.64-1.13-2.95-.03-5.92-.12-8.84-.5-1.96-.29-3.87-.9-5.84-1.06-3.91-.32-7.89.06-11.76-.8-2.05-.39-3.96-1.28-5.97-1.85-1.6-.43-3.26-.49-4.88-.78-2.32-.4-4.58-1.11-6.77-1.98-1.7-.57-3.39-1.2-5.06-1.87-1.98-.9-4.15-1.13-6.27-1.47-2.78-.52-5.75-.87-8.16-2.48-1.81-1.28-3.1-3.28-3.65-5.42-.34-1.39-.28-2.84-.28-4.26.02-2.96.28-5.93.73-8.86.24-2.07.72-4.11,1.74-5.94,1.68-3.24,3.36-6.5,5.19-9.67,2.41-3.94,5.16-7.69,7.19-11.85,2.65-5.63,5.97-10.9,9.4-16.09,1.32-2.13,2.52-4.35,3.35-6.72,1.09-2.76,1.85-5.99,4.43-7.77,4.59.62,9.23.86,13.8,1.64,1.12.2,2.26.34,3.39.44,1.09.27,2.18.64,3.22,1.09,2.27.94,4.32,2.33,6.16,3.95,1.87,1.63,3.82,3.54,6.38,3.93,1.22.14,2.45,0,3.65-.22.97-.2,2-.37,2.87-.87,1.02-.69,1.62-1.83,2.36-2.79,1.19-1.61,2.49-3.14,3.96-4.5,2.53-2.27,5.52-3.94,8.3-5.86,4.86-3.48,10.35-5.92,15.93-8.01l-.41,9.45c.23.61.52,1.26.81,1.85,1.28,2.3,2.23,4.75,3.33,7.13,1.22,2.49,2.7,4.86,4.04,7.28,1.26,2.21,2.33,4.52,3.34,6.85.74,1.57,1.55,3.12,2.05,4.79.91,2.85,1.74,5.74,2.73,8.57,1.18,3.41,2.39,6.88,2.48,10.53Z"/><path class="cls-3" d="m682.85,382.02c-.95.9-2.21,1.32-3.44,1.66-1.35.4-2.73.73-4.13.94-2.27.33-4.61.55-6.9.27-1.29-.2-2.53-.68-3.72-1.2-1.52-.69-2.92-1.61-4.36-2.44-2.36-1.36-4.74-2.69-7.17-3.93-.8-.4-1.6-.83-2.4-1.22-.72-.41-1.6-.68-2.35-.19-.63.33-1.12.85-1.63,1.34-.55.49-1.13.97-1.79,1.31-1.6.81-3.43.18-5.02-.35-1.44-.5-2.9-.99-4.34-1.51-2.52-.88-5.1-1.65-7.73-2.11-2.73-.47-5.51-.71-8.25-1.13-6.8-.82-13.64.07-20.44.3-3.47.15-6.84-.84-10.15-1.78-1.31-.39-2.62-.87-3.89-1.37-.48-.13-1.06-.54-1.57-.5-.63.02-1.26.08-1.87-.1-1.71-.23-3.74-1.12-5.25.05-.42-.06-.86-.11-1.28-.18.24.21.49.45.7.69-2.49,2.58.24,6.77,2.15,8.91-.29,2.88-.97,5.72-1.95,8.43-1.97,4.76-4.88,9.04-7.9,13.18-6.6,8.66-7.99,8.99-17.55,13.5-1.78.83-3.59,1.62-5.33,2.52-2.05.95-4.17,1.77-6.33,2.45-3.02.95-6.32,1.82-9.42.7,4.08-1.85,8.53-3.12,12.04-6.02,1.8-1.46,3.51-3.28,4.08-5.59l-3.01-6.14c-3.36-.83-6.84-1.42-10.31-1.51-5.13-.13-10.28.32-15.41.13.79-3.2,2.42-6.15,4.28-8.84,2.53-3.54,5.49-7.01,6.63-11.31.79-2.92-.41-5.85-1.21-8.64-.97-3.19-1.99-6.39-3.18-9.51-1.52-4.35-1.96-8.98-2.95-13.46-1.41-7.25-3.3-14.45-6.39-21.19,2.17,2.48,4.51,4.85,7.1,6.9,1.96,1.49,4.01,2.86,5.8,4.55,1.58,1.39,2.98,2.97,4.49,4.43,1.39,1.28,2.9,2.45,4.57,3.35,1.58.87,3.24,1.59,4.91,2.25.96.34,2.99,1.38,3.01-.41,0-2.18-1.05-4.17-2.21-5.96-.83-1.33-2.03-2.36-3.03-3.55-1.51-1.88-2.96-3.84-4.12-5.97.35-2.27-.1-4.7-.18-6.99-.32-3.68-.53-7.48-1.95-10.93,5.01,1.62,9.07-5.61,11.43-9.04,1.73-2.59,3.57-5.14,5.75-7.37,2.96-3.16,6.64-5.58,10.58-7.35,1.34-.56,2.69-1.15,4.08-1.57,1.6-.45,3.25-.69,4.9-.9,2.88-.41,5.77-.85,8.68-.99.53-.05,1.07-.02,1.59-.11,1.66-.53-.57-2.15-1.31-2.48-3.17-1.49-6.61-2.35-9.98-3.25,4.7-1.15,9.67-.86,14.35.22,2.43-1.57,5.45-1.5,8.21-1.95,1.86-.22,3.73-.51,5.61-.5,1.46.02,2.9.35,4.35.44,3.69.2,7.4-.38,11.08.13,2.47.26,4.92.72,7.38,1,1.69.14,3.39-.02,5.08-.04,1.72,0,3.45-.03,5.16.16,1.76.15,3.49.5,5.24.71,2.12.3,4.32.16,6.37.84,2.66.86,5.02,2.39,7.52,3.61,1.12.52,2.29.94,3.4,1.47,1.83.93,3.6,2,5.2,3.29,1.24.98,2.51,1.96,3.7,3.01,1.2,1.09,2.3,2.29,3.47,3.41,1.59,1.54,3.13,3.15,4.39,4.98.79,1.2,1.38,2.54,1.94,3.86.36.8.6,1.68.55,2.57.05,1.44.1,2.97.11,4.41.09,3.95-.17,7.91-.79,11.8-.49,3.23-1.2,6.48-2.56,9.46-2.62,5.14-6.04,9.89-8.11,15.31-.48,1.15-.96,2.32-1.17,3.55-.19,1.15-.04,2.34.22,3.47,2.15,7.92,8.92,13.33,15.16,18.12,1.31,1.03,2.63,2.07,3.96,3.09,1.45,1.15,3.01,2.21,4.79,2.78Zm-25.74-42.33c-.31-2.06-2.91-2.26-4.59-2.37-2.66-.21-5.12.93-7.27,2.38-1.86,1.15-3.52,2.57-5.2,3.95-2.4,1.88-5.63,1.63-8.42.94-2.19-.51-4.38-1.14-6.46-2-3.12-1.29-6.03-3.03-9-4.61-2.16-1.17-4.46-2.16-6.72-3.13-4.28-1.87-8.63-3.65-12.83-5.71-3.7-1.9-7.31-4.02-11.09-5.77-4.27-2.18-8.86-3.63-13.31-5.34-5.02-1.96-11.05-6.58-15.62-9.38,1.91,7.08,3.12,14.4,3.18,21.74.09,2.29,0,4.64.27,6.92.27,2.2.91,4.38,1.79,6.41,2.35,5.62,6.2,8.72,11.39,11.6,4.69,2.66,9.59,5.32,15.01,6.03,3.86.5,7.8.65,11.68.27,5.83-.71,11.59-1.94,17.4-2.78,5-.87,9.68-.45,14.48,1.17,1.62.54,3.21,1.22,4.83,1.78,1.13.41,2.34.84,3.56.6,1.08-.27,1.77-1.39,1.85-2.45.05-.87-.25-1.73-.26-2.6-.05-.79.35-1.52,1.13-1.75.47-.18.99-.18,1.47-.33,1.43-.43,2.61-1.45,3.75-2.38,2.42-2.05,4.58-4.44,6.15-7.21.7-1.17,1.41-2.37,2.04-3.59.38-.74.85-1.53.8-2.39Z"/><path class="cls-10" d="m514.82,233.72c-4.01,3.47-8.69,6.21-13.69,7.99-4.58,1.61-9.45,2.17-14.29,2.03-5.33-.13-11.63-.09-15.48-4.36.33-1.14.51-2.35.61-3.53.1-.54-.05-1.23.21-1.71.82-1.46,1.72-2.92,2.78-4.23,2.52-3.07,6.1-5.06,9.56-6.88,2.65-1.18,5.62-1.41,8.47-1.76,2.96-.38,6.13.14,8.49,2.06,1.95,1.56,3.52,3.53,5.4,5.17,2.36,2.1,5.04,3.93,7.94,5.2Z"/><path class="cls-10" d="m559.97,161.46c-.41.6-5.32,6.76-5.27,7.34-.9,1.94-1.96,3.83-3.07,5.66-2.35,3.96-4.99,7.86-6.35,12.3-2.29,1.3-4.36,2.96-6.54,4.43-5.02,3.36-9.83,7.02-14.54,10.79-1.79,1.32-3.63,2.6-5.35,4.01-.48.42-1.03.79-1.43,1.28-.79,1.36,1.57,1.54,2.43,1.62-1.35,2.08-2.35,4.42-2.98,6.81-.56,2.61-.51,5.44.52,7.93-2.1-.89-4.33-1.55-6.3-2.72-1.08-.74-1.85-1.88-2.33-3.08-.57-1.39-.9-2.87-1.42-4.29-.73-2.06-2.92-2.99-4.82-3.72-1.84-.68-3.64-1.47-5.47-2.17-1.73-.65-3.51-1.22-5.21-1.95-1.01-.4-1.98-.95-3.02-1.29-1.93-.54-3.74.77-5.32,1.72.36-1.24.65-2.5.86-3.78-2.08-1.55-4.08-3.29-5.62-5.4-1.22-1.59-1.89-3.68-3.55-4.89-.5-.4-1.19-.58-1.62-1.07-.49-1,1.48-1.18,2.11-1.05,1.51.29,2.84,1.21,4.35,1.52,2.98.62,6.05-.05,9.04-.28,2.49-1.92,5.07-3.83,7.98-5.05,2.19-.87,4.56-1.16,6.89-1.33-3.44,3.34-6.75,7.37-11.59,8.59-.68.2-2.13.57-1.53,1.52.95.94,2.59.98,3.85,1.09,2.86.11,5.73-.61,8.22-2.02,3.14-1.76,5.74-4.31,8.56-6.51,1.51-1.15,3.13-2.18,4.73-3.19,1.4-.86,2.85-1.71,4.44-2.19,3-.98,6.12-1.46,9.2-2.13,3.01-.72,5.94-1.83,8.63-3.37,5.05-3.05,10.01-6.29,14.73-9.84,1.15-.85,2.29-1.74,3.39-2.65.36-.31.75-.63,1.08-.97.19-.2.43-.45.35-.75l1.97-.92Z"/><path class="cls-12" d="m544.48,161.21c.08,1.93-.11,3.93-.78,5.75-5.07,1.01-10.12,2.19-15.17,3.29-1.88.42-3.83.65-5.67,1.22-1.4.5-2.83.98-4.17,1.64-1.5.75-2.92,1.7-4.31,2.64-3.82,2.59-7.06,5.92-10.42,9.05-2.33.18-4.7.46-6.89,1.33-2.91,1.22-5.49,3.14-7.98,5.05-3.04.23-6.22.94-9.24.23-1.97-.42-3.96-2.22-6-1.2-2.87-.82-5.82-1.42-8.6-2.54-2.82-1.04-5.4-2.64-7.63-4.65-.72-.58-1.35-1.28-2.08-1.85-.77-.69-1.93-1.37-1.87-2.54.19-1.38,1.29-2.47,2.16-3.48,1.96-2.21,4.58-3.65,7.19-4.94,6.33-3.36,13.23-5.46,19.67-8.58,2.9-1.37,5.76-2.84,8.62-4.28,2.22-1.06,4.45-2.19,6.87-2.71,1.76-.43,3.57-.67,5.37-.81.61-.04,1.23-.09,1.84-.13.56-.06,1.52-.07,1.52-.83-.22-1.6-1.19-3-1.94-4.4-.78-1.33-1.42-2.74-2.06-4.14-.59-1.25-1.16-2.54-2.13-3.55-.49-.53-1.02-1.08-1.7-1.35-1.06-.49-2.12.19-2.85.94-.85.82-1.61,1.76-2.39,2.65-2.99,3.76-7.04,6.44-11.18,8.78-2.63,1.55-5.5,2.62-8.37,3.64-1.73.6-3.53,1.01-5.28,1.57-2.23-4.35-4.4-8.9-8.17-12.15-1.49-1.42-2.76-3.21-4.75-3.98-2.17-.91-4.54-1.06-6.86-1.17-2.36-.15-4.73-.38-7.09-.46.5-.29,1.03-.61,1.36-1.1.42-.72.54-1.59.58-2.41-.09-2.78-1.31-5.38-1.64-8.12-.19-1.83-.03-3.69.17-5.52.23-1.74.5-3.52,1.13-5.17.93-2.15,2.63-3.83,4.23-5.49,1.97-2.03,4.07-3.95,6.24-5.77-.93,1.33-1.76,2.74-2.56,4.15-2.24,3.85,1.84.11,2.86-.73,2.25-1.83,4.87-3.18,7.4-4.58,2.15-1.16,4.33-2.39,6.5-3.52,1.53-.77,3.11-1.57,4.81-1.88,1.86-.32,3.79-.19,5.66-.02,2.53.24,5.09.78,7.3,2.08,4.59,2.36,7.98,6.45,12.57,8.76,3.17,1.52,6.83,1.78,9.86,3.62,1.46.82,2.59,2.08,3.6,3.39.89,1.07,1.45,2.37,2.3,3.46,1.4,1.44,1.26-3.82,1.2-4.44-.15-3.59-.94-7.11-1.2-10.68,2.34.49,4.46,1.59,6.46,2.86,2.24,1.37,4.54,2.71,6.47,4.49,2.08,1.84,3.46,4.28,4.8,6.66,1.33,2.34,2.81,4.64,3.79,7.17-1.72,2.74-3.41,5.54-5.39,8.11-1.85,2.44-3.98,4.69-5.67,7.24-2.55,3.92-4.79,8.1-6.29,12.53-.98,3.3-1.88,6.7-2.12,10.14h.02c.95-1.72,1.78-3.55,2.92-5.17,1.89-2.84,4.58-5.02,7.19-7.16,2.01-1.55,3.96-3.27,6.21-4.47,1.25-.64,2.7-.72,4.07-.6,1.08,2.36,3,4.19,4.51,6.26,1.53,2.32,2.8,4.99,3,7.8Z"/><path class="cls-12" d="m464.01,158.56l.04.13c-5.32,1.68-7.76,4.29-11.5,8.16-.97.93-1.93,1.9-3.04,2.67-1.4.93-2.97,1.63-4.58,2.08-2.1.38-4.26.23-6.39.17-4.8-.39-9.59-.79-14.39-1.18-2.4-2.13-4.51-4.7-5.52-7.78-.6-1.68-.99-3.5-.67-5.28.32-1.62,1.02-3.35,2.52-4.2,1.46-.99,3.25-1.21,4.93-1.59,2.43-.53,9-2.24,9.86-4.69.53-1.56.5-3.32,1.47-4.72,2.63,1.49,5.67,1.78,8.61,2.14,2.07.33,4.14.81,6.07,1.64,3.26,1.57,5.92,4.13,8.39,6.73,1.62,1.71,3.39,3.43,4.19,5.71Z"/><path class="cls-12" d="m425.71,219.8c-.85.31-5.97,3.73-6.86,3.22-4.44-.18-9.31-.61-13.28,1.78-4.71.16-9.42-.26-14.03-1.29-2.35-.46-4.76-.7-7.05-1.43,3.85.47,3.38-2.7,2.13-5.18-1.87-3.69-4-7.36-4.6-11.52-.18-1.15-.42-2.32-.39-3.49.04-1.05.37-2.07.77-3.04.45-1.22,1.49-2.11,2.7-2.56,3.17-1.15,7.61,1.1,10.53,2.39,1.14.46,2.07,1.29,3.05,2.01,1.72,1.27,3.4,2.63,4.97,4.09.84.75,1.67,1.54,2.57,2.22.84.63,1.78,1.14,2.69,1.67,2.65,1.64,5.47,2.98,8.12,4.6,3.08,1.92,5.94,4.18,8.7,6.52Z"/><path class="cls-13" d="m484.39,202.36c-.15.9-.34,1.8-.56,2.69.03.27-.65,1.18-.8,1.4-2.53,1.63-5.26,2.93-7.99,4.19-1.18.09-5.73,4.45-6.65,5.18-.48.18-1.05.4-1.53.58-2.86,1.05-5.77,1.99-8.56,3.2-2.4.55-4.83.99-7.28,1.24-.66.07-1.34.13-2,.22-.75-.02-1.53-.09-2.28-.11-1.47-.07-2.95-.11-4.41-.33-1.34-.21-2.66-.57-4.01-.75-1.07-.15-2.15-.28-3.22-.27-2.53.14-4.98.88-7.37,1.67-.91-.31-1.8-.71-2.67-1.11l.66-.36c-2.76-2.35-5.62-4.61-8.7-6.52-3.14-1.86-6.41-3.51-9.52-5.42-1.5-.86-2.75-2.08-4.03-3.23-1.42-1.33-2.94-2.56-4.5-3.71-.1-.24-.21-.5-.27-.75.68.33,1.38.66,2.13.83,1.39.31,2.84.31,4.26.25,1.39-.05,2.86-.54,3.69-1.72,1.16-1.64,1.41-3.78,1.25-5.74,3.35.45,6.77.44,10.14.23,2.82-.2,5.63-.58,8.45-.72,2.13-.13,4.26-.23,6.39-.26.56,0,1.12,0,1.68,0,.56-.02,1.38.04,1.65-.55,4.56-.26,9.11-.66,13.67-.82,1.33-.07,2.67-.1,4-.2,1.57-.1,2.43-.5,2.9-2.09,4.05.13,8.01,1.08,11.78,2.53,2.15.75,4.37,1.38,6.43,2.37,1.72,3.26,4.32,5.94,7.3,8.08Z"/><path class="cls-13" d="m395.42,274.13l.03.08c-2.25,2.13-4.91,3.81-7.59,5.35-1.54.86-3.13,1.67-4.84,2.14-1.61.42-3.29.6-4.96.6l1.05-2.91c-2.91-1.08-5.84-2.18-8.87-2.84-1.74-.34-3.52-.36-5.29-.44.43-.55.82-1.14,1.13-1.77,1.19.38,2.03-.8,2.72-1.57.96-1.18,1.85-2.42,2.73-3.67,2.66-3.88,5.44-7.96,9.62-10.33,2.67-1.37,7.01-3.49,9.56-.97,1.17,1.53,1.56,3.49,2.27,5.24.37,1.2,1.1,2.33,1.22,3.59.32,2.52.25,5.13,1.23,7.52Z"/><path class="cls-13" d="m656.48,246.24c-.12.53-1.19,9.69-1.59,9.86-.41.89-.87,1.78-1.46,2.57-1.89,2.58-2.37,2.89-5.38,3.84-2.54.86-5.18,1.43-7.79,2.03-2.48.57-4.98,1.14-7.51,1.42-3.37.52-6.78.65-10.17.95-2.82.26-5.62.76-8.37,1.45-3.27.83-6.59,1.51-9.88,2.26-2.89.7-5.78,1.5-8.75,1.79-3.48.33-7,.3-10.49.37-3.62.1-7.28.27-10.86-.32,1.63-.31,3.34-.46,4.87-1.14.9-.48,1.59-1.27,2.27-2.02,1.11-1.3,2.07-2.71,3.14-4.04,1.1-1.36,2.33-2.63,3.57-3.86,1.47-1.45,3.03-2.8,4.47-4.28.91-1.05,2.66-2.49,1.59-3.97,1.4.14,2.82.3,4.22.38,2.23.62,4.48,1.3,6.79,1.55,5.74.55,11.49-.21,17.23-.43,4.92-.28,9.85-.58,14.73-1.23,3.2-.55,6.36-1.37,9.49-2.19,3.51-1.15,6.65-3.2,9.86-4.98Z"/><path class="cls-8" d="m675.52,228.39c-.6,1.15-1.12,2.36-1.84,3.44-1.4,2.1-3.11,3.98-4.99,5.65-2.84,2.44-6.07,4.39-9.09,6.6-2.66,1.86-5.4,3.66-8.35,5.01-2.41,1-4.96,1.61-7.42,2.45-1.69.53-3.34,1.28-5.09,1.59-3.61.71-7.31.86-10.97,1.19-2.73.2-5.48.33-8.21.48-1.55.03-3.13.32-4.68.19-3.67-.42-7.35-.83-11.02-1.3,5.05-.03.78-1.35-1.03-2.32-3.65-1.79-7.05-4.1-10.91-5.43-2.49-.91-5-1.85-7.44-2.89-2.75-1.08-5.48-2.41-7.62-4.48-1.65-1.63-3.25-3.74-3.1-6.17,5.78.49,11.61.14,17.39-.2,3.6-.29,7.19-.78,10.8-.98,5.42-.4,10.88-.17,16.3.05,3.57.14,7.17.23,10.73.57,2.28.22,4.55.68,6.82.95,5.12.59,10.26,1.12,15.36,1.91,2.87.41,5.73.91,8.61,1.14,1.26.1,2.54.17,3.79,0,1.31-.19,2.56-.7,3.73-1.31,2.05-1.07,3.88-2.52,5.67-3.98.84-.74,1.81-1.33,2.55-2.18Z"/><path class="cls-8" d="m658.67,199.37c.18,2.86-4.92,2.78-6.88,2.86-2.82.09-5.67.11-8.48-.25-2.43-.3-4.88-.6-7.26-1.17-3.16-.77-6.27-1.81-9.45-2.55-4.75-1.17-9.64-1.57-14.5-1.99-6.93-.47-14.87-.94-21.22,2.28,3.62-2.99,7.13-6.18,11.26-8.47,2.19-1.2,4.23-2.66,6.11-4.3.68-.36,1.32-.81,1.91-1.29.62-.47,1.09-1.14,1.12-1.94,1.13-1.33,2.2-2.97,3.89-3.61.98-.3,1.99-.45,3-.6,1.25-.19,2.52-.37,3.79-.47,2.19-.16,4.39-.27,6.59-.31.39-.1.8.26,1.13.42.44.25,1.04.58,1.49.82,1.98,1.09,3.97,2.22,5.91,3.38,2.28,1.27,4.51,2.65,6.82,3.86,1.95,1.02,4.07,1.76,5.89,3.02,2.89,2.08,5.51,4.6,7.48,7.58.55.85,1.28,1.7,1.4,2.74Z"/><path class="cls-8" d="m676.41,212.38v.15c-.68-.14-1.4.02-2.09.06-1.84.14-3.7.36-5.54.19-3.67-.39-7.24-1.43-10.88-2.05-2.93-.52-5.93-.72-8.9-.53,2.44-.75,4.87-1.63,7.42-1.96,4.45-.57,8.95-.83,13.44-1.02.76,0,1.53.03,2.29.08.55.03,1.15.11,1.66-.14,2.21-.92,2.03-3.85,1.42-5.76-.54-1.9-1.29-3.76-2.47-5.36,2.47,2.51,3.19,5.08,3.28,8.52.12,2.61.25,5.21.37,7.82Z"/></g><g id="_レイヤー_3"><g><path d="m505.62,304.24c-1.77-1.12-4.5-4.02-6.67-5.51-1.83-1.15-3.04-3.37-5.31-3.66-6.73-.14-13.33,1.46-20,2.04-3.94.23-7.89.27-11.83.34-3.73-.15-7.45-.96-10.94-2.27-2.58-.64-5.23-1.18-7.6-2.42-3.65-2.27-6.72-5.67-8.98-9.3-2.19-5.38-1.97-11.75-.29-17.25,1.96-5.36,6.66-8.93,11.21-12.04,2.31-1.73,4.64-3.43,7.3-4.57,6.12-2.15,12.18-4.77,15.7-10.54.52-.65.23-1.52.21-2.29-3.45-4.99,6.11-7.86,5.81.1.74,4.13-2.47,7.19-4.93,10.06-2.66,2.77-6.24,4.42-9.61,6.16-2.87,1.1-5.84,1.97-8.38,3.78-4.11,3.24-9.24,5.78-11.61,10.69-1.39,3.62-1.33,7.49-.84,11.19.75,3.74,4.06,6.44,6.89,8.75,1.68,1.02,3.68,1.33,5.55,1.84,2.89.85,5.72,1.83,8.73,2.19,9.03.61,18.02-.75,26.95-1.93,11.49-1.6,11.52,1.77,19.71,7.95,2.16-2.98,3.9-6.27,6.41-8.97,3.78-3.97,8.42-6.64,13.04-9.45,4.97-3.99,10.02-7.94,15.11-11.77,5.79-3.82,11.72-7.4,16.1-12.79.97-1.19,1.98-2.38,2.69-3.76.14-2.39.14-4.81.02-7.2-2.3-7.7-19.89-5.78-26.77-8.55-5.91-1.21-11.51-3.22-16.69-6.35-4.36-1.96-7.43-5.79-9.33-10.09-1.04-2.49-3.36-6.52.39-7.78,2.21-.6,3.56,1.33,3.97,3.24,1.05,2.68,2.37,5.38,4.41,7.44,3.51,2.42,7.42,4.4,11.36,6.03,4.19,1.15,8.41,2.23,12.67,3.1,5.67.96,11.54.96,16.99,2.98,4.6,1.49,8.86,5.58,8.8,10.67-.06,3.03.48,6.31-.7,9.17-4.48,7.68-11.79,13.13-19.21,17.63-4.69,3.44-9.27,7.01-13.82,10.62-5.44,4.62-12.6,7.1-16.76,13.17-2.45,2.88-5.14,10.82-9.77,9.37Z"/><path d="m534.45,223.72c-1.25-.96-1.53-2.78-.57-4.05.77-1.03,2.17-1.41,3.34-.97,2.22-.06,3.72-.28,5.76-.52,5.37-.49,10.67-1.5,15.87-2.93,5.63-.79,10.81-3.09,15.36-6.47,7.25-4.46,12.61-11.22,19.09-16.64,4.47-4.14,10.14-6.41,15.36-9.4-2.94-3.83-2.11-8.94-2.07-13.45-.2-6.92.05-14.07-1.62-20.81-2.6-4.29-8.03-7.74-13.14-7.03-3.12.82-6.2,1.85-9.16,3.13-4.08,2.14-7.7,5.06-11.35,7.85-8.01,8.41-16.07,17.08-26.31,22.85-7.44,3.89-15.28,7.83-23.92,7.01-3.75-.01-3.91-5.62-.08-5.79,2.02.11,4.06-.02,6.08-.14,11.72-2.7,21.89-9.92,30.54-18.04,3.29-2.97,5.93-6.55,9.15-9.58,4.53-3.76,9.29-7.5,14.68-9.95,6.71-2.59,12.06-4.84,19.06-1.56,4.44,2.13,8.98,5.75,10.3,10.68,1.45,6.99,1.41,14.27,1.54,21.38.12,3.35-.95,7.41,1.16,10.27.98.64,2.29.67,2.99,1.71.82.99.78,2.51.02,3.51-.76,1.01-2.31,1.47-3.26,2.07-5.78,3.27-12.08,5.78-16.99,10.35-4.45,3.96-8.56,8.28-13.05,12.2-4.16,3.19-8.51,6.3-13.22,8.61-3.1,1.35-6.38,2.3-9.72,2.84-5.38,1.46-10.85,2.55-16.41,3.04-3.05.11-6.66,1.44-9.44-.17Z"/><path d="m361.65,358.45c-1.65-.34-2.43-1.99-2.63-3.51-.71-4.53-3.47-8.27-5.53-12.26-2.34-5.18-3.91-10.91-4.07-16.61-.59-8.59-.44-17.55,3.13-25.54,1.39-3.77,2.87-7.64,5.7-10.58,5.76-5.69,13.89-7.84,21.19-10.84,4.53-1.76,9.05-3.58,13.39-5.78,2.77-1.57,5.27-3.59,8.03-5.18,6.42-3.84,13.44-6.48,20.71-8.19,16.32-3.05,11.23,9.53,6.16,5.42-3.3-.26-6.5.46-9.59,1.56-5.05,1.32-9.76,3.56-14.26,6.16-5.84,3.9-11.83,7.55-18.51,9.89-3.91,1.5-7.58,2.91-11.38,4.54-4.7,1.84-9.92,3.8-12.9,8.11-3.41,6.15-5.78,13.05-6.11,20.12,0,6.02-.29,12.23,1.51,18.05,1.05,6.14,5.45,10.85,7.34,16.67,2.86-2.9,6.48-4.5,10.4-5.37,3.43-1.29,6.96-2.31,10.56-3,7.76-1.66,15.52-3.19,23.32-4.61,4.89-.8,9.83-1.56,14.53-3.15,10.2-3.89,20.24-8.45,28.72-15.44,4.35-3.25,8.94-6.51,12.08-11.01,1.35-2,2.46-4.13,3.17-6.44.52-1.71,1.64-3.35,1.42-5.2-.07-1.58,1.32-2.91,2.86-2.94,2.55-.03,3.3,2.72,2.91,4.81-2.51,10.44-7.56,17-16.1,23.29-5.99,4.42-11.82,9.23-18.74,12.14-6.73,3.09-13.44,6.59-20.78,7.94-15.96,3.44-32.59,4.9-47.72,11.09-1.45,1.05-2.85,2.19-4.06,3.5-1.22,1.42-2.81,2.89-4.76,2.38Z"/><path d="m500.64,449.63c-1.3-.32-1.96-1.46-2.66-2.49-.95-1.4-2.07-2.68-3.33-3.81-8.28-5.64-18.83-6.43-28.47-8.04-4.34-.64-8.84-.52-12.95-2.25-7.04-2.16-13.74-5.3-19.87-9.39-7.94-5.03-10.97-14.97-11.02-23.95-.29-6-.84-12.11.73-17.99,2.12-8.58,6.85-16.91,14.18-22.04,3.69-2.18,7.39-4.31,10.6-7.21,3.29-2.95,6.96-5.39,10.86-7.46,3.48-1.99,7.2-3.91,9.23-7.54,3.85-6.72,3.13-15.71-1.21-21.99-.48-.91-1.44-1.43-1.68-2.48-.73-1.49-.14-3.44,1.45-4.08,1.52-.65,3.26.18,3.88,1.68,6.14,7.91,7.73,19.18,3.36,28.29-3.16,7.14-10.66,10.06-16.89,13.89-2.74,1.89-5.21,4.12-7.8,6.2-3.09,2.7-7.01,4.17-10.2,6.71-5.52,4.92-9.07,11.77-10.52,18.97-1.07,5.78-.27,11.67-.08,17.49.31,5.67,2.3,11.46,6.5,15.42,4.87,3.49,10.21,6.37,15.82,8.48,2.82.94,5.61,2.06,8.53,2.68,2.82.35,5.65.49,8.46.92,4.43.72,8.89,1.28,13.28,2.26,6.9,1.72,14.6,3.47,19.52,8.98,2.99-6.23,9.25-9.79,14.79-13.48,4.64-2.43,9.26-4.96,14.18-6.79,4.63-1.98,9.45-3.51,13.8-6.08,5.42-2.92,11.51-4.54,16.59-8.09,11.03-7.85,15.33-17.3,13.96-30.73-1.59-2.78,2.33-5.74,4.58-3.39.97.92,1.26,2.19,1.22,3.48.69,7.15-.26,14.41-3.27,20.98-4.75,8.5-12.55,15.18-21.52,18.91-5.2,1.97-10.03,4.71-15.07,7.04-10.65,4.08-21.42,8.43-30.25,15.83-1.82,1.66-3.48,3.59-4.23,5.98-.51,2.35-1.4,5.84-4.53,5.11Z"/><path d="m644.67,382.63c-5.13-2.02-10.43-3.88-15.71-4.69-8.76-.86-17.75-1.51-26.51-1.83-7.79-.29-15.45-1.57-23.15-2.67-7.31-.75-13.97-3.87-20.19-7.62-5.83-4.34-12.5-7.88-17.12-13.63-3.94-4.86-6.93-10.82-8.05-16.99-1.02-4.89-1.26-9.9-2.17-14.81-.73-2.97-2.17-5.7-3.29-8.53-1.88-2.53-4.14-5.35-6.91-6.9-1.68-1.15-4.4-.84-5.38-2.6-.83-1.39-.27-3.27,1.13-4.06,2.46-1.5,9.09,2.42,10.86,4.39,1.83,2.08,4.02,3.91,5.36,6.36,1.57,3.68,3.41,7.31,4.09,11.29.98,5.8,1.21,11.76,2.86,17.43,1.8,4.33,3.81,8.65,7.09,12.08,3.67,3.74,8.18,6.58,12.5,9.5,5.44,4,11.74,7.09,18.45,8.15,6.39.69,12.66,2.19,19.1,2.49,5.33.41,10.69.46,15.98.95,5.97.47,12.01.6,17.92,1.6,4.71.72,9.07,2.54,13.53,3.99.12-8.31,3.83-14.9,8.75-21.3,4.79-8.24,11.2-15.62,14.29-24.75,1.35-4.37.96-8.95.72-13.45-.36-4.6-2.36-8.8-4.75-12.67-2.49-5.31-6.7-9.88-11.73-12.81-6.85-4.26-14.78-6.52-22.7-7.45-5.42-.15-10.83.09-16.26,0-12.4.15-24.82,1.37-37.21.33-8.36.23-16.95-1.35-24.84-3.81-3.42-.88-6.87-1.94-9.5-4.42-1.3-1.03-2-1.68-2.26-3.21-.26-1.55.93-3.05,2.46-3.27,1.29-.18,2.48.53,3.01,1.64,1.29,1.1,2.67,2.14,4.3,2.68,6.62,1.99,12.95,3.7,19.64,4.46,4.27.08,8.53.18,12.79.44,12.28.57,24.53-.93,36.82-.59,4.16-.08,8.33-.21,12.49.04,5.36.62,10.62,2.12,15.69,3.95,8.68,3.27,16.91,8.99,21.36,17.3,5.28,8.51,7.04,14.6,6.73,24.68-.07,9.35-5.41,17.57-10.43,25.09-2.21,3.03-4.02,6.31-6.08,9.45-2.29,3.41-5.03,6.59-6.25,10.59-1.18,3.65-1.13,7.52-1.75,11.28-.36,2.97-3.44,3.85-5.66,1.91Z"/><path d="m421.75,258.63c-1.35-1.96-.97-4.54-1.17-6.8-.35-5.94.7-12.15,3.75-17.33,1.49-2.59,4.04-4.23,6.33-6.05,1.68-1.33,3.4-2.98,5.64-3.2,1.58-.21,2.87.78,4.18,1.5,1.75.82,4.21,1.42,5.88,1.68,2.78.73,5.53.15,8.32.53,2.7.4,5.02,1.36,7.3,2.65,3.56,1.07,2.19,6.4-1.49,5.6-2.43-.91-4.6-2.5-7.26-2.59-5.73.13-11.63-.56-16.64-3.45-2.25,1.74-4.61,3.4-6.66,5.37-3.79,5.38-3.96,12.32-3.37,18.65,2.55,3.3-2.42,6.68-4.82,3.43Z"/><path d="m423.31,264.07c-1.18-2.72-1.23-5.87-1.62-8.79-.41-3.78,5.14-4.56,5.74-.81.17,2.96.67,5.52,1.51,8.14.1,2.99-4.2,4.01-5.62,1.47Z"/><path d="m623.93,257.5c-5.65.41-11.29.36-16.92-.26-6.15-.83-12.07-2.98-18.26-3.68-5.53-1.09-11.25-1.36-16.71-2.79-3.11-.94-6.02-2.27-8.89-3.65-3.06-1.31-1.97-5.9,1.4-5.57,2.01.35,3.83,1.55,5.64,2.46,5.29,2.19,11.03,2.49,16.61,3.28,6.5,1.09,12.95,2.38,19.34,4.01,9.43,1.01,19.21,1.22,28.4-1.37,5.82-1.01,11.55-2.52,16.84-5.21,4.07-1.83,8.27-3.4,11.9-6.07,2.42-1.67,5.04-3.25,6.82-5.64,1.18-4.84.75-9.68,7.02-10.67-3.89-4.8-2.19-11.53-2.8-17.25-.27-1.89-1.7-3.35-2.52-5.02-1.38-2.57-2.96-5.07-4.83-7.31-3.59-4.05-8.45-6.71-13.22-8.99-4.72-2.22-9.56-4.48-14.83-4.88-6.15.05-12.39.03-18.47.95-2.31.49-4.62,1.04-6.87,1.76-1.49.77-3.43.69-4.35-.92-1.68-3.41,2.17-4.7,4.81-5.24,4-1.1,8.08-1.99,12.25-1.97,15.28-1.29,20.98.17,34.47,7.38,9.19,4.7,13.92,11.77,18.51,20.68,1.67,4.47.59,9.43,1.19,14.1.13,3.65,4.71,5.93,3.86,9.82-.84,3.77-5.07,1.72-7.38,3.09-.84,3.52-.84,7.44-3.91,9.92-3.96,3.66-8.66,6.61-13.49,9.02-7.24,3.23-14.95,6.88-22.8,7.9-4.22,1-8.43,2.22-12.81,2.13Z"/><path d="m560.13,282.02c-2.69-2.99,1.63-5.81,3.98-7.21,2.31-1.33,4.91-1.95,7.48-2.55,5.59-1.36,11.56-2.42,17.22-2.7,13.48-.97,26.64-3.83,39.95-6,5.78-1.31,11.68-1.98,17.42-3.51,1.55-.31,3.24-.8,4.67-1.32,1-.39,2.25-.54,2.8-1.57-.07-1.91-.19-3.32-1.1-4.91-.84-1.19-2.15-2.13-2.36-3.67-.5-3.6,4.79-4.91,5.77-1.28,2.44,2.42,3.38,5.86,3.45,9.21.51,8.1-10.97,8.64-16.69,10.25-14.14,2.76-28.36,5.37-42.63,7.44-9.15,1.19-18.64,1.3-27.44,3.77-2.74.59-5.52,1.35-7.65,3.27-1.19,1.57-3.32,2.29-4.86.78Z"/><path d="m322.16,359.41c-4.15.1-8.4-.1-12.33-1.33-3.27-1.53-6.84-3.93-9.72-5.93-1.73-1.5-3.75-2.65-5.7-3.83-1.8-.86-3.76-2.2-3.47-4.47.08-1.16.89-1.91,1.58-2.74,2.04-2.47,4.21-4.97,5.32-8.03,1.13-4.8,1.97-9.69,3.62-14.37,2.12-6.16,5.15-11.94,7.85-17.86,5.28-10.5,15.47-17.53,25.93-22.26,6.64-2.53,13.74-3.23,20.69-4.47,6.39-1.4,26.56-.44,30.27,4.98,1.69,3.11-2.52,5.97-4.78,3.24-9.28-3.65-19.6-3.7-29.28-1.71-14,1.32-27.59,8.13-35.88,19.67-3.83,6.97-7.18,14.23-9.79,21.72-1.26,3.9-1.97,7.94-2.85,11.91-1.01,3.68-3.28,6.85-5.72,9.72,4.28,2.66,8.32,5.86,12.67,8.36,1.52,1.01,3.37,1.02,4.94,1.4,7.56.86,15.26-.48,22.29-3.33,5.49-1.62,11.02-3.82,15.28-7.72,1.09-1.47,3.04-2.56,4.69-1.25,1.21.91,1.59,2.85.58,4.05-4.79,5.26-11.21,8.18-17.92,10.12-5.8,2.28-12.03,3.98-18.29,4.13Z"/><path d="m443.23,223.35c-7.46-.27-15.25-.47-22.22-3.47-6.51-3.55-12.92-7.29-19.05-11.4-3.85-2.35-7.03-5.61-10.74-8.14-4.72-3.31-10.31-5.1-14.96-8.49-3.25-2.93-7.37-5.6-8.81-9.93-2.43-6.39,3.62-11.62,8.91-13.98,2.68-1.11,5.67-1.01,8.51-.82,5.37.2,10.73.99,15.57,3.43,4.84,1.74,9.27,4.26,13.72,6.79,3.28,1.93.55,6.82-2.82,5.06-5.51-3.26-11.26-5.99-17.28-8.18-4.34-1.12-8.92-1.51-13.4-1.36-3.07.37-6.25,2.45-7.73,5.17-.95,2.49,1.53,4.43,3.15,5.93,4.46,5.07,11.11,6.88,16.61,10.48,4.23,2.42,7.62,6,11.64,8.72,6.35,4.21,12.86,8.06,19.51,11.67,9.13,3.07,19.37,3.37,28.79,1.83,10.23-2.11,19.36-7.36,28.13-12.84,2.82-1.68,4.78-5.3,7.9-6.23,1.97-.33,4.35.65,4.36,2.91.03,1.7-1.44,2.99-3.1,2.93-5.52,5.81-12.73,9.45-19.79,13.05-8.23,4.48-17.55,6.71-26.89,6.88Z"/><path d="m486.82,203.5c-.94-.58-1.88-1.26-2.8-1.85-7.13-3.66-14.76-6.53-22.71-7.71-11.01.12-21.42,1.64-32.13,3.57-2.27.46-4.57.73-6.88.79-3.56.42-7.02,1.45-10.62,1.53-3.27.35-6.56,0-9.32-1.92-1.42-.15-2.58-1.42-2.6-2.86-.02-1.62,1.28-2.86,2.86-2.93,2.08-.15,3.54,1.82,5.52,1.99,4.36.25,8.61-.79,12.87-1.49,2.35-.21,4.7-.25,7.01-.77,10.92-1.99,22.01-3.51,33.04-3.7,6.84.68,13.47,2.93,19.8,5.58,3.06,1.4,6.09,2.8,8.78,4.71,3.25,1.94.55,6.85-2.82,5.06Z"/><path d="m488.92,187.76c3.26-1.33,6.37-2.8,9.58-4.23,2.53-1.22,5.28-2.05,7.43-3.88,5.27-4.89,6.4-13.06,4.68-19.73-.82-1.94-1.54-4.02-2.83-5.7-3.54-3.23-7.88-5.75-10.27-10.07-4.21,3.61-7.18,8.56-11.96,11.48-3.86,2.33-8.31,3.27-12.57,4.55-3.02,1.04-6.1,1.79-9.18,2.56-5.8,2.03-11.4,5.58-14.88,10.68-.58,5.06,4.93,1.78,5.84,5.74,7.31,2.7,14.8,5.1,22.46,6.48,4,.7,7.75,2.83,11.9,2.1,0,0-.2.01-.2.01Zm-3.7,5.87c-3.18-.36-6.13-1.87-9.31-2.35-5.03-.85-10.02-2.18-14.84-3.9-3.44-1.1-7-1.98-10.22-3.66-1.48-.74-3.32-1.29-4.3-2.67-3.43-2.16-4.46-7.38-2.5-10.84,3.85-5.58,9.63-9.71,15.9-12.2,3.03-1.3,6.33-1.66,9.43-2.78,5.1-1.74,10.84-2.43,15.12-5.96,3.36-3.54,6.65-7.13,10.16-10.53,4.87-5.71,7.76,4.14,11.25,6.45,2.05,1.83,4.46,3.28,6.3,5.33,3.67,4.78,5.08,10.79,4.93,16.74-.37,6.85-3.34,14.03-9.09,18.05-2.81,1.63-5.88,2.83-8.82,4.24-2.94,1.22-5.23,2.27-7.87,3.51-1.96.65-4.11.59-6.15.55Z"/><path d="m395.12,226.43c-6.63-.16-13.27-1.14-19.79-2.29-3.49-.9-6.81-2.43-10.26-3.48-4.46-1.38-9.15-2.71-12.83-5.7-4.8-3.79-9.76-7.39-15.73-9.05-5.58-.9-11.18-1.75-16.67-3.2-5.21-.7-4.64-6.78-1-9.26,3.29-2.25,5.06-5.77,6.98-9.16,1.66-3.7,2.45-7.72,4.22-11.38,1.48-4.09,4.71-6.97,7.58-10.08,3.14-3.13,7.3-5.05,11.22-7.02,8.83-3.37,18.66-3.66,27.98-2.76,5.57.95,11.04,2.51,16.42,4.2,5.89,2.88,11.71,5.92,17.6,8.81,2.81,1.56,5.51,3.31,8.54,4.44,1.45.09,2.63,1.41,2.65,2.85-.85,6.78-10.34-.38-13.43-1.92-6.11-2.96-12.09-6.28-18.27-9.07-7.65-2.14-15.39-4.66-23.44-3.83-12.02-.28-22.7,4.06-30.04,13.74-2.27,3.85-3.46,8.17-4.88,12.37-2.13,4.77-4.69,9.74-8.99,12.87,5.49,1.7,11.41,1.58,16.82,3.46,7.22,1.89,12.5,7.35,18.67,11.15,3.56,1.74,7.4,2.7,11.13,4,2.87.97,5.66,2.23,8.67,2.74,5.57.72,11.16,1.7,16.79,1.8,3.77.02,3.89,5.64.07,5.79Z"/><path d="m413.1,226.38c-5.2-.06-10.29-.02-15.45-.21-4.49.88-5.88-5.24-1.22-5.8,9.2,0,18.66,1.16,27.63-1.27,1.92-.58,4.04-2.03,5.62.04.93,1.2.77,3.16-.52,4.06-4.83,2.59-10.65,2.95-16.06,3.19Z"/><path d="m395.65,275.49c-3.15-.39-5.6-6.15-6.95-8.76-2.29-5.34-1.94-11.32-1.99-17.01,1.1-8.87,2.88-18.22,8.16-25.62.79-1.16,1.64-2.52,2.98-3.08,2.12-.85,5.07-.15,5.13,2.53.02,1.55-1.19,2.77-2.68,2.92-4.27,5.34-5.74,12.13-7.12,18.65-.68,3.39-.87,6.82-.6,10.26.09,2.9.09,5.83,1.24,8.54.82,2.2,2.1,4.19,3.45,6.09,1.05.53,1.72,1.73,1.59,2.93-.18,1.61-1.67,2.69-3.21,2.54Z"/><path d="m359.24,277c-2.04-1.08-1.96-3.81-2.02-5.8-.07-2.29-.12-4.58-.29-6.86-.43-3.83-2.18-9.27,1.91-11.71,1.74-1.1,3.94-.94,5.84-1.64,2.77-1.1,3.9-4.16,5.48-6.45,1.62-2.28,3.55-4.42,5.88-5.98,3.3-2.38,7.41-3.22,11.42-3.28,2.8.09,7.79-1.55,8.11,2.62.03,1.62-1.28,2.86-2.86,2.93-3.99.33-8.25-.18-11.94,1.65-8.49,4.58-7,14.04-18.72,15.03-.2,1.7.23,3.37.49,5.04.43,3.31.34,6.68.51,10.02,1.4,2.79-.76,5.83-3.83,4.44Z"/><path d="m358.83,467.85c-2.53-1.05-2.11-4.29-2.76-6.44-.72-4.33-3.54-7.76-5.82-11.37-3.06-4.94-6.32-9.83-8.41-15.29-2.36-5.62-2.57-11.73-2.63-17.73.23-5.98.42-12.08,1.78-17.91,3.16-12.45,11.72-22.48,19.96-31.99,3.03-2.96,6.41-5.74,10.43-7.2,5.74-2.04,11.54-3.88,17.54-4.92,11.39-2.57,22.46-6.38,33.76-9.33,6.69-2.48,13.56-4.73,19.8-8.24,2.66-1.99,5.5-3.73,8.02-5.91,2.89-2.36,6.42-3.69,9.43-5.86,3.27-1.87,12.33-8.06,13.41-1.56.03,2.03-1.88,3.12-3.72,2.97-3.03,1.34-5.92,2.96-8.66,4.83-6.17,3.04-11.11,7.91-17,11.38-7.59,3.6-15.48,6.78-23.53,9.06-8.14,2.12-16.15,4.64-24.25,6.91-11.17,2.9-24.31,3.7-32.21,13.12-6.83,8.28-14.07,16.38-16.98,26.87-1.57,4.98-1.52,10.34-1.95,15.5-.05,5.45-.17,11.09,1.6,16.32,2.22,6.33,6.04,11.9,9.57,17.54,2.47,3.62,4.84,7.43,5.53,11.82,7.31-3.6,15.83-3.49,23.8-4.13,8.26-.88,16.42-2.42,24.58-3.94,6.65-1.75,13.85-2.41,19.69-6.33,2.93-2.04,5.42-4.63,7.97-7.12,2.5-2.76,5.86-5.27,7.13-8.85.52-3.75,6.13-3.12,5.75.67-.44,3.45-3.02,6.16-5.28,8.62-2.82,3.06-5.79,5.98-8.87,8.77-5.1,4.76-11.86,7.12-18.62,8.35-8.03,2.13-16.26,3.26-24.43,4.69-9.39,1.72-19.42.5-28.41,4.06-2.05.98-3.68,3.66-6.24,2.62Z"/><path d="m339.61,451.21c-8.03.64-16.04-1.76-22.97-5.71-1.92-1.18-1.87-3.51-1.02-5.35.84-2.97,1.83-5.9,2.86-8.82,2.28-7.99,4.09-16.11,6.57-24.05.91-2.99,2.31-5.75,4.05-8.35,3.46-6.4,7-12.02,11.85-17.53,2.63-3.03,17.3-12.68,18.37-5.1.02,1.62-1.28,2.86-2.86,2.93-6.6,1.22-11.86,5.86-15.33,11.31-1.91,2.55-3.84,5.07-5.13,8-1.24,2.48-2.97,4.68-4.19,7.18-1.47,3.18-2.11,6.65-3.14,9.97-2.37,8.65-4.51,17.32-7.43,25.8,3.52,1.34,6.93,2.95,10.52,3.62,3.51.51,7.1.42,10.63.1,1.73-.4,3.45-1.04,5.12-1.53,1.24-.98,3.11-.71,4.06.52,1.96,2.79-1.13,5.11-3.76,5.39-2.6,1.06-5.39,1.64-8.2,1.59Z"/><path d="m441.86,176.27c-4.64-.14-9.29-2.11-13.67-3.3-3.04-1.07-6.3-1.68-9.02-3.51-7.58-6.21-15.39-12.23-22.56-18.93-3.96-4.59-6.29-10.43-8.94-15.77-1.74-3.24-2.76-6.79-4.41-10.07-2-4.32-2.92-9.04-4.74-13.44-1.28-3.85-2.37-7.76-3.53-11.64-.19-.64-.5-1.21-.81-1.79-.52-1.34-.06-2.89,1.21-3.62,4.82-2.01,5.32,5.18,6.46,8.22,1.62,5.84,3.9,11.44,5.59,17.25,4.07,9.09,7.44,18.84,13.34,26.83,4.45,4.24,8.8,7.78,13.59,11.5,3.63,2.57,6.53,6.61,10.89,7.95,3.32,1.06,6.64,2.16,10,3.07,3.18,1.05,6.51,1.83,9.85,1.39,1.58-.07,2.91,1.32,2.94,2.86-.07,3.44-4.09,3.05-6.55,2.98,0,0,.37.02.37.02Z"/><path d="m444.4,169.51c-3.44-7.15-6.66-14.46-10.2-21.54-.77-1.61-1.4-3.29-2.17-4.9-.57-.92-.89-2.03-.47-3.08.44-1.12,1.5-1.79,2.68-1.85,2.81-.02,3.25,3.38,4.3,5.35,3.71,7.87,7.53,15.92,11.21,23.77,1.4,3.5-3.72,5.72-5.34,2.24Z"/><path d="m470.88,158.66c-3.14-4.19-6.37-8.38-10.69-11.32-6.38-3.33-13.93-6.45-21.22-4.93-4.55,3.8-8.25-4.59-1.23-5.67,8.73-1.91,17.77,1.57,25.4,5.62,2.73,1.69,5.37,4.24,7.36,6.65,1.72,2.43,7.32,6.6,4.48,9.64-1.06,1.08-3.04,1.19-4.1.02Z"/><path d="m509.33,154.52c-1.23-.98-1.54-2.76-.57-4.05.34-.37.68-.68.85-1.17,1.48-3.52,2.74-6.74,3.95-10.31,1.95-5.91.98-12.25.64-18.21.04.1.02.1.08.22-7.59-26.37-23.88-16.02-35.85-34.19-3.06,3.17-6.47,5.93-9.88,8.7-3.56,3.76-7.71,6.8-11.47,10.33-3.84,3.37-7.85,6.84-10.11,11.52-2.2,5.51-3.77,12.42-1.11,17.98,4.57.78,2.9,6.82-1.53,5.72-7.87-2.93-5.84-17.47-3.56-23.74,2.62-7.93,9.69-13.23,15.55-18.62,4.75-3.64,8.72-8.15,13.52-11.72,1.69-1.57,3.4-3.13,5-4.79,1.05-1.33,1.83-3.27,3.7-3.53,1.6-.22,2.89.82,3.52,2.21,3.98,11.38,17.15,12.73,25.91,18.85,5.84,5.09,9.9,12.24,11.86,19.69.63,6.66,1.4,13.55-.37,20.11-1,3.47-2.57,7.44-3.95,10.64-.9,2.62-2.9,6.62-6.16,4.34Z"/><path d="m531.85,164.35c-1.13-.59-1.89-1.46-2.11-2.74-.54-2.64,3.17-4.44,4.89-2.44,4.13.07,7.61-1.92,10.69-4.48,2.7-2.26,5.35-4.56,7.27-7.56,4.12-7.47,8.74-14.77,11.65-22.84,1.59-6.43,3.52-12.87,3.9-19.52-.04-7.05-.02-14.15,1.57-21.05-7.31.36-12.44-7.41-19.66-6.93-6.3.43-12.99,1.36-18.27,5.05-4.92,5.1-10.27,10.01-13.73,16.27-.68,1.91-1.54,3.7-2.51,5.45-.43.8-.7,1.66-.48,2.56-.02-.14-.03-.18-.08-.36.02.07.03.14.04.21,0,0,0,0,0,0,.55,1.88-.73,3.96-2.75,3.97-2.56.04-3.14-2.63-3.08-4.7-.01-2.25,1.13-4.3,2.2-6.21,2.31-6.29,6.71-11.6,11.42-16.28,3.33-3.62,6.68-7.4,11.63-8.75,4.43-1.9,9.19-2.5,13.95-2.88,4.52-.71,9.03.73,12.68,3.23,3.13,1.5,6.78,4.81,10.36,2.98,1.86-1.45,4.81-.89,5.21,1.68,0,2.79-1.39,5.41-1.78,8.18-.89,5.52-1.08,11.09-.92,16.67-.31,8.24-2.51,16.37-4.93,24.2-2.12,5.1-4.6,10.05-7.41,14.8-2.73,4.99-5.34,10.19-9.79,13.91-4.06,3.36-8.21,7.18-13.67,7.84-2.07.25-4.37.78-6.31-.27Z"/><path d="m588.84,137.06c-1.17-4.75-6.82-12.12-11.42-13.72-3.04-1.68-6.09-.79-9.32-.54-3.79-.02-3.87-5.63-.07-5.79,1.95-.07,3.84-.6,5.8-.54,3.08.18,6.13,1.48,8.83,2.91,5.16,4.23,10.04,9.55,11.77,16.14.89,3.69-4.51,5.19-5.58,1.54Z"/><path d="m448.81,107.46c-1.89-3.51-4.54-5.81-7.82-7.96-2.88-2.34-6.45-4.67-9.87-5.87-2.78-1.1-5.83-1.36-8.72-2.06-3.72-.62-6.74-1.44-10.34-2.04-1.88.05-3.76.29-5.65.39-4.15.33-8.17,1.73-11.91,3.5-2.49,1.36-4.93,2.86-7.72,3.53-3.47,1.11-7.17,1.26-10.58,1.78-2.73.1-3.98-3.68-1.78-5.26,1.61-1.08,3.71-.73,5.56-.99,2.76-.4,5.59-.98,8.13-2.16,7.6-4.63,16.51-6.91,25.39-6.46,6.63,1.63,13.76,2.25,20.08,4.54,4.14,1.49,7.73,3.95,11.15,6.66,2.81,1.97,5.65,4.11,7.53,7.03,1.1,1.53,2.27,3.73.64,5.35-1.08,1.1-3.01,1.17-4.1.02Z"/><path d="m517.11,91.62c-1.13-.92-1.15-2.05-1.72-3.22-.6-1.07-1.11-2.09-1.9-3.02-4.42-3.49-8.85-7.76-14.52-8.95-5.42-.52-10.88-.34-16.26-1.22-6.82-.13-13.66.07-20.48-.18-4.35-.42-8.49.86-12.6,2.08-2.52.77-5.19,1.04-7.62,2.05-2.92,1.65-5.97,3.33-8.77,5.09-2.16,1.52-4.35,3.12-5.99,5.23-.25,1.3-1.48,2.31-2.81,2.33-1.62.02-2.86-1.28-2.93-2.86.63-5.82,11.12-10.99,15.77-13.77,2.53-1.62,5.36-2.45,8.28-3.01,3.79-.83,7.42-2.32,11.27-2.79,8.52-.33,17.08.11,25.62.02,17.22,2.07,19.09-1.68,33.64,10.58,2.34,1.54,7.12,8.55,5.08,11.05-.91,1.21-2.85,1.59-4.05.58Z"/><path d="m671.68,387.03c-5.73-.13-11.81-.6-16.4-4.4-1.89-1.34-3.79-2.69-5.31-4.46-.87-.85-1.74-1.77-1.87-3.04-.4-3.41,4.33-4.59,5.58-1.42,2.32,2.53,5.13,4.57,8.15,6.18,3.72,1.26,7.82,1.35,11.73,1.35,3.85-.14,7.71-.39,11.53-.96,2.08-.57,4.58-.39,6.08-2.16,1.1-7.82.32-15.76.7-23.64.27-5.13-.78-10.13-1.57-15.16-.29-3.18-.94-6.31-1.95-9.34-1.97-5.64-5.16-10.77-9.32-15.06-1.79-2.16-3.89-4.21-6.8-4.57-.3-.03-.84-.17-1.15-.21-3.63-.27-3.55-5.65.13-5.79,6.21.36,9.93,3.86,13.67,8.42,7.23,7.89,10.72,18.32,11.6,28.83,1.32,5.4,1.25,11,1.1,16.53-.06,5.33.09,10.68-.19,16-.15,2.17-.24,4.36-.92,6.44-.93,1.78-2.71,3.25-4.55,4.02-6.51,2.01-13.46,2.32-20.24,2.44Z"/><path d="m661.52,492.13c-9.29-5.05-18.98-4.44-29.13-3.43-9.9.74-19.79.82-29.57-1.05-4.38-.55-8.71-1.54-12.84-3.14-3.8-2-7.54-4.18-11.31-6.26-7.58-4.32-13.58-10.77-19.86-16.71-4.07-4.26-8.16-8.49-11.55-13.27-2.66-3.79-3.5-8.43-5.45-12.57-1.79-3.33-6.88-18.6.71-16.79,2.69,1.02,1.58,4.26,1.98,6.45.73,5.09,3.57,9.38,5,14.24,1.04,3.52,3.36,6.98,5.78,9.55,3.68,4.23,7.43,8.4,11.59,12.17,4.19,3.76,8.07,7.93,12.93,10.85,3.98,2.52,8.23,4.56,12.28,6.96,5.2,2.12,10.79,2.66,16.29,3.49,8.71,1.47,17.54.63,26.3.14,8.65-.94,17.77-1.04,25.85,2.58,1.3-13.79,10.08-18.13,15.55-29.37,5.09-11.37,6.07-25.06,1.52-36.77-2.27-3.98-3.59-8.5-6.94-11.79-4.63-5.37-10.34-9.6-15.6-14.28-4.52-3.54-9.7-6.1-14.82-8.64-3.42-1.75-6.83-3.46-10.62-4.2-2.45-.93-4.33-1.7-6.78-2.36-2.62-.54-6.06.92-6.47-2.98.58-5.95,10.93-1.68,14.24-.49,4.05,1.17,7.24,2.19,10.97,4.28,5.22,2.41,10.34,5.1,15.1,8.35,2.95,2.1,5.43,4.77,8.34,6.93,6.59,5.57,13.27,11.68,16.33,19.95,6.9,12.55,5.99,28.39,1.25,41.56-2.79,7.42-8.11,13.4-12.75,19.7-1.8,2.7-2.66,5.9-3.28,9.04-.55,3.09-.46,8.85-5.05,7.89Z"/><path d="m414.58,818.88c-3.76.66-8.58-20.75-9.88-24.37-3.58-13.87-7.86-27.53-11.46-41.38-6.65-21.85-12.76-43.86-19.27-65.74-6.01-23.62-10.18-47.69-16.89-71.15-5.76-19.61-13.51-38.15-18.93-57.81-3.29-11.81-6.06-23.74-8.82-35.68-1.93-7.61-4.29-15.11-5.94-22.8-3.14-12.85-7.24-25.44-10.78-38.18-1.23-4.07-3.45-7.8-4.27-11.99-.43-5.48-1.29-11.21.11-16.6.23-5.53,10.14-20.76,14.94-21.1,1.58-.07,2.91,1.32,2.93,2.86.06,2.33-2.47,2.73-3.57,4.38-3.32,3.73-6.21,7.89-8.13,12.51-1.62,5.62-1.15,11.51-.53,17.26,1.1,4.06,3.19,7.81,4.32,11.88,3.62,13.29,8.04,26.33,11.08,39.76,5.93,21.44,10.32,43.28,16.64,64.61,5.14,15.57,11.45,32.76,16.22,48.28,3.25,12.14,6.42,24.29,9.09,36.57,2.78,12.24,5,24.62,8.41,36.71,2.32,7.9,4.8,15.74,6.91,23.7,8.05,27.84,16.4,55.57,23.85,83.58,1.35,4.72,2.74,9.57,4.29,14.18.68,1.94,1.4,3.86,2.27,5.72.43.51.67,1.16.69,1.83.02,1.7-1.56,3.22-3.28,2.97Z"/><path d="m700.52,805.06c-2.42-1.43-1.14-3.85-.59-5.94,1.45-4.18,2.47-8.78,3.18-12.93,2.17-14.52,6.05-28.66,9.71-42.85,3.85-16.48,7.65-33,10.58-49.67,1.26-8.98,2.97-17.89,4.24-26.87,1.35-11.08,2.79-22.15,5.05-33.09,3.95-20.6,8.86-40.99,13.05-61.54,4.29-23.39,7.09-47.05,12.5-70.19,2.35-12.86,5.07-25.57,8.79-38.1,1.65-5.47,2.7-11.1,4.56-16.51.83-2.38,1.62-5.72,4.6-5.9,3.02.15,3.84,3.46,1.72,5.38-1.89,4.65-2.85,9.59-4.15,14.42-5.62,18.11-8.81,37.25-12.88,55.66-2.77,14.75-4.69,29.56-7.46,44.3-5.27,33.18-15.15,65.71-19.13,98.99-4.48,36.25-12.37,71.97-21.68,107.26-2.33,9.51-3.34,18.52-5.51,27.9-.56,2.24-1.4,4.39-1.98,6.63-.19.66-.35,1.32-.68,1.93-.74,1.39-2.59,1.87-3.94,1.12Z"/><path d="m564.25,867.43c-5.7.16-11.46.41-17.13-.23-9.65-1.61-19.24-3.4-28.93-4.73-5.62-.23-10.92-2.11-16.36-3.31-5.63-2.43-11.47-4.33-17.5-5.51-4.68-.79-9.47-1.53-13.74-3.74-5.41-2.75-10.15-5.57-15.46-7.85-3.94-2.31-8.33-3.54-12.52-5.32-3.02-1.19-5.41-3.39-7.97-5.3-6.31-3.32-12.65-6.56-17.98-11.39-4.08-.66-2.82-7.61,1.56-6.02,3.23,2.08,5.92,4.97,9.25,6.96,3.73,2.33,7.97,3.8,11.52,6.43,1.62,1.23,3.13,2.65,4.96,3.56,4.5,2.08,9.37,3.26,13.64,5.84,6.56,2.67,12.4,6.87,19.05,9.3,8.86,2.2,18.13,3.24,26.41,7.36,3.6.85,7.16,1.75,10.74,2.68,5.95.62,11.86,1.59,17.79,2.39,6.23,1.37,12.56,2.34,18.88,3.19,8.51.18,17.03-.1,25.52-.69,8.45-.97,17.27-1.38,25.71-1.91,6.11-.87,12.14-2.34,17.93-4.47,9.11-2.73,17.89-6.14,26.32-10.48,7.38-4.6,15.05-8.68,22.53-13.13,5.21-3.17,9.36-7.74,14.35-11.19,4.26-2.41,8.02-5.52,11.47-8.99,2.16-2.94,4.79-5.58,6.46-8.84.8-2.21,1.79-5.5,4.84-4.39,6.09,2.62-5.55,15.25-7.98,18.11-3.65,3.45-7.47,6.66-11.88,9.12-4.17,2.97-7.66,6.78-11.97,9.55-6.02,4.17-12.61,7.41-18.94,11.08-3.55,2.51-7.39,4.48-11.34,6.3-6.92,3.35-14.37,6.03-21.69,8.23-4.08,1.59-8.29,2.69-12.57,3.63-5.67,1.54-11.58,1.44-17.4,1.83-9.18.72-18.35,1.67-27.56,1.95Z"/><path d="m776.26,447.63c-4.01-.17-2.72-4.97-3.11-7.67-.31-7.3-.7-14.9-3.73-21.65-1.52-3.58-4.19-6.32-6.94-8.98-2.89-2.98-5.04-5.63-8.11-8.17-7.31-6.61-14.29-12.8-22.9-17.52-4.08-2.49-8.34-5.16-12.97-6.28-3.31-1.03-6.24-2.45-9.56-3.27-2.58-.95-4.33-1.94-6.91-2.4-2.42-1.1-6.12-.56-6.61-3.7-.29-3.3,4.41-6.18,6.23-2.51,2.86.88,5.83,1.61,8.52,2.87,2.28.91,5.04,1.36,7.17,2.49,3.36,1.35,7,1.99,10.18,3.8,8.47,4.81,17.05,9.74,24.18,16.44,7.13,6.19,14.07,12.66,20.15,19.88,4.84,6.76,6.19,15.23,6.82,23.34.15,3.47.41,6.94.45,10.4,0,1.58-1.27,2.91-2.86,2.94Z"/><path d="m571.46,527.6c-4.82.23-9.65.12-14.46-.15-3.37-.44-6.69-.83-10.09-.54-13.49.23-27.01,1.23-40.42-.87-13.41-1.26-26.83-2.47-40.14-4.64-5.53-.86-10.73-2.95-16.18-4.14-6.97-1.79-13.58-2.57-20.47-4.37-5.38-1.69-10.79-3.87-16.17-5.32-3.52-1.3-7.2-2.12-10.72-3.43-5.47-1.77-10.36-4.3-15.69-6.27-7.73-1.88-15.03-4.66-22.36-7.54-3.12-1.86-5.8-4.36-8.95-6.18-4.46-2.74-9.78-3.58-14.5-5.63-3.05-1.99-6.02-4.26-8.22-7.18-1.79-1.63-3.54-3.31-5.23-5.02-2.28-2.46.64-6.41,3.69-4.44,2.02,1.83,3.9,3.85,5.93,5.7,1.89,2.45,4.37,4.44,6.99,6.07,4.41,1.27,8.8,2.78,12.98,4.76,3.45,1.88,6.47,4.37,9.68,6.61,6.11,2.41,11.98,4.76,18.29,6.41,6.04,1.3,11.38,4.54,17.19,6.5,9.06,3.18,18.35,5.62,27.35,9.01,6.67,1.9,13.54,2.82,20.28,4.36,5.87,1.31,11.48,3.52,17.42,4.48,9.33,1.32,18.92,2.68,28.27,3.57,6.46.12,12.81,1.24,19.22,1.87,11.03.97,22.11-.11,33.16-.1,3.2-.34,6.32.3,9.48.61,3.31.16,6.63.3,9.95.24,8.15-.06,16.31-1.04,24.39-1.89,10.75-1.09,21.44-2.8,32.08-4.67,6.9-.85,13.47-3.33,20.26-4.73,8.9-1.41,17.68-3.52,26.2-6.49,8.06-2.46,16.23-4.42,23.8-8.24,8.15-2.68,16.67-4.42,24.48-8.08,8.09-5.03,17.23-8.24,25.06-13.72,3.59-2.39,6.71-5.39,9.49-8.68,2.27-2.1,4.52-4.22,6.18-6.87.76-1.01,1.01-2.26,1.6-3.37.7-1.42,2.61-1.86,3.94-1.12,1.5.83,1.84,2.69,1.03,4.13-.62,1.91-1.64,3.53-2.84,5.11-2.7,3.7-6.33,6.56-9.33,10.01-7.52,7.26-17.12,11.76-26.47,16.17-10.74,7.52-24.17,8.51-35.81,13.95-5.07,2.39-10.57,3.47-15.89,5.13-10.23,3.44-20.62,6.34-31.32,7.93-11.13,3.17-22.48,5.52-33.97,6.91-13.18,2.07-25.98,3.52-39.17,4.18Z"/><path d="m722.16,483.53c-2.39-7.17-7.05-13.67-12.55-18.84-5.36-3.8-10.76-7.66-16.43-10.99-2.51-1.49-5.4-2.97-8.38-2.29-4.31-.34-3.63-6.18.66-5.97,6.32-.27,11.75,3.81,16.77,7.15,6.35,4.31,13.06,8.26,17.57,14.65,3.23,4.75,6.8,9.8,8.08,15.47.43,3.76-5.11,4.58-5.73.81Z"/><path d="m369.3,486.13c-10.91-1.66,11.29-26.39,15.51-28.46,3.91-1.64,6.24,3.99,2.21,5.4-5.77,5.76-11.88,11.81-14.89,19.54.33,1.77-1.02,3.51-2.83,3.52Z"/><path d="m432.97,513.58c-4.18-1.56-3.27-10.38-3.7-14.12-1.11-10.27,2.17-15.18,7.41-23.49,6.79-9.24,12.35-19.28,17.58-29.48,1.57-3.44,4.28-6.42,5.15-10.14-1.97-3.93,4.47-6.32,5.59-1.99,1.06,4.79-2.46,8.89-4.57,12.87-1.45,2.6-2.74,5.28-4.14,7.9-2.79,5.33-5.89,10.49-8.99,15.64-3.79,5.71-7.92,11.18-11,17.34-1.78,3.6-1.38,7.68-1.21,11.57.19,2.59.04,5.23.58,7.78,4.06,1.7.94,7.04-2.68,6.1Z"/><path d="m550.06,525.19c-2.42-.66-2.51-3.16-1.63-5.12.73-3.28,1.23-6.33,1.91-9.59,2.32-11.02,2.36-22.86.26-33.77-1.95-10.02-5.33-19.83-10.55-28.62-1.87-3.34-3.99-6.49-5.07-10.2-1.31-3.62-3.37-7.01-4.13-10.81-.07-2.06-.55-4.33.3-6.27.99-1.91,3.9-2.04,5.06-.23-.08-.08-.15-.17-.23-.25-.02-.02-.04-.03-.06-.05.96.92,1.21,2.38.55,3.54-.21,3.4,1.56,6.36,2.85,9.38,1.9,5.96,5.35,11.09,8.3,16.55,4.98,10.33,8.46,21.4,9.72,32.81,1.31,11.28.27,22.83-2.29,33.82-.88,3.05-.58,9.61-5,8.8Z"/></g></g></svg>