<!--?xml version="1.0" encoding="utf-8"?-->
<!-- Generator: Adobe Illustrator 24.1.1, SVG Export Plug-In . SVG Version: 6.00 Build 0)  -->
<svg version="1.1" id="_x31_0" xmlns="http://www.w3.org/2000/svg" xmlns:xlink="http://www.w3.org/1999/xlink" x="0px" y="0px" viewBox="0 0 512 512" style="width: 32px; height: 32px; opacity: 1;" xml:space="preserve">
<style type="text/css">
	.st0{fill:#374149;}
</style>
<g>
	<path class="st0" d="M500.762,23.086l-1.16-3.835l-0.57-1.879l-4.398-4.082l-0.047-0.042L492.117,11l-1.25-1.137L486,8.457
		l0.054,0.02C466.906,2.77,447.046,0,427.27,0c-52.774-0.008-105.668,20.258-145.926,60.504
		c-9.586,9.594-18.043,19.93-25.356,30.801c-7.343-10.871-15.801-21.199-25.394-30.797C190.336,20.258,137.445-0.008,84.676,0
		C64.89-0.004,45.094,2.77,25.886,8.473L21.98,9.629l-1.902,0.562l-4.098,4.426l-0.098,0.106l-2.191,2.485l-1.058,1.203l-1.39,4.718
		c-5.676,19.11-8.446,38.813-8.465,58.496H2.77l-0.008,0.551c-0.008,52.687,20.25,105.535,60.442,145.714
		c37.871,37.805,86.93,57.965,136.554,60.215v182.102c0,23.031,18.68,41.793,41.711,41.793h22.062
		c23.031,0,41.711-18.762,41.711-41.793V288.27c51.965-0.606,103.851-20.813,143.484-60.371
		c40.34-40.336,60.519-93.375,60.512-146.215c0-19.722-2.848-39.441-8.465-58.546L500.762,23.086z M209.117,252.152
		c-43.55,0-87.035-16.64-120.32-49.851c-33.282-33.282-49.852-76.77-49.852-120.398c0-13.746,1.661-27.422,4.848-40.805
		c13.461-3.258,27.133-4.922,40.883-4.922c43.625,0,87.035,16.641,120.324,49.851c15.34,15.41,27.133,32.848,35.378,51.586
		c-8.175,22.214-12.23,45.656-12.23,69.027c0,14.687,1.594,29.449,4.852,43.847C225.11,251.574,217.082,252.152,209.117,252.152z
		 M273.031,470.207c0,5.316-4.262,9.582-9.5,9.582h-22.062c-5.23,0-9.504-4.266-9.504-9.582V315.332l39.82-29.418
		c0.418,0.058,0.832,0.117,1.246,0.175V470.207z M423.141,202.301c-33.278,33.211-76.762,49.851-120.321,49.851
		c-7.957,0-15.992-0.578-23.875-1.664c-4.777-0.652-9.554-1.519-14.254-2.605c-0.867-0.145-1.809-0.36-2.676-0.578
		c-3.328-13.313-4.996-26.988-4.996-40.664c0.07-15.629,2.168-31.258,6.512-46.379c2.031-7.668,4.778-15.195,8.027-22.574
		c8.184-18.738,19.977-36.25,35.386-51.66c33.282-33.21,76.762-49.851,120.325-49.851c13.75,0,27.492,1.664,40.882,4.922
		c3.25,13.313,4.918,26.914,4.918,40.586C473,125.386,456.5,168.946,423.141,202.301z" style="fill: rgb(75, 75, 75);"></path>
</g>
</svg>
