<!--?xml version="1.0" encoding="utf-8"?-->
<!-- Generator: Adobe Illustrator 18.1.1, SVG Export Plug-In . SVG Version: 6.00 Build 0)  -->

<svg version="1.1" id="_x31_0" xmlns="http://www.w3.org/2000/svg" xmlns:xlink="http://www.w3.org/1999/xlink" x="0px" y="0px" viewBox="0 0 512 512" style="width: 64px; height: 64px; opacity: 1;" xml:space="preserve">
<style type="text/css">
	.st0{fill:#374149;}
</style>
<g>
	<path class="st0" d="M328.892,233.641c-10.168,0-19.355,2.011-27.297,5.976c-15.015,7.493-24.59,21.469-30.562,34.032
		c-1.473,3.011-2.797,5.965-3.906,8.738v-59.828l1.031-12.867l0.398-4.297c4.161,1.938,22.684,10.008,43.055,10.008h0.004
		c10.168,0,19.351-2.012,27.297-5.977c30.672-15.309,38.934-57.824,39.274-59.625l1.374-7.359l-6.706-3.325
		c-0.86-0.43-21.313-10.437-43.962-10.437c-10.168,0-19.355,2.011-27.297,5.972c-10.102,5.043-17.726,13.047-23.48,21.563
		c-0.223,0.32-0.442,0.644-0.664,0.972c-0.531,0.813-1.043,1.622-1.543,2.442c-1.504,2.398-2.965,4.89-4.348,7.562l3.36-41.898
		c15.453-4.117,44.152-14.766,57.25-39.117c17.988-33.446-1.703-77.508-2.547-79.367L326.518,0l-7.395,1.129
		c-2.011,0.305-49.531,7.902-67.534,41.375c-14.969,27.836-3.852,63,0.789,75.094l-1.93,24.07l-1.863,21.461
		c-5.43-14.07-15.73-32.812-33.996-41.93c-7.942-3.965-17.13-5.973-27.301-5.973c-22.649,0-43.098,10.008-43.958,10.434
		l-6.703,3.328l1.371,7.356c0.34,1.801,8.598,44.316,39.274,59.629c7.942,3.965,17.129,5.977,27.301,5.977
		c16.457,0,31.711-5.274,39.168-8.325c0.992-0.382,1.871-0.734,2.625-1.039l-2.293,28.586l-0.004,22.16l-0.152,20.203
		c-5.547-13.918-15.77-31.859-33.516-40.718c-7.942-3.962-17.129-5.977-27.297-5.977c-22.648,0-43.102,10.011-43.961,10.438
		l-6.703,3.324l1.371,7.359c0.34,1.805,8.598,44.317,39.274,59.629c7.945,3.965,17.129,5.973,27.301,5.973
		c19.449,0,37.125-7.316,42.308-9.668c0.622-0.258,1.078-0.449,1.363-0.562l-0.007,53.742h-66.707l-4.664-0.008v0.008h-0.16
		L183.807,512H338.08l10.554-154.199l0.734-10.562h-0.012l0.012-0.164h-82.242v-7.898l0.594-29.215
		c1.269,0.622,21.488,10.398,43.89,10.402h0.004c10.168,0,19.351-2.012,27.297-5.977c30.672-15.312,38.934-57.824,39.274-59.625
		l1.374-7.359l-6.706-3.324C371.994,243.652,351.541,233.641,328.892,233.641z M328.892,253.434c10.696,0,21.11,2.961,27.794,5.359
		c-3.387,10.871-11.352,30.27-26.614,37.887c-5.172,2.582-11.382,3.89-18.457,3.89h-0.004c-10.695,0-21.106-2.965-27.793-5.363
		c3.386-10.867,11.351-30.266,26.613-37.883C315.608,254.742,321.819,253.434,328.892,253.434z M314.4,22.402
		c4.039,12.054,10.023,36.386,0.34,54.398c-9.668,17.973-33.137,26.266-45.383,29.477c-4.038-12.055-10.027-36.387-0.335-54.398
		C278.686,33.902,302.162,25.614,314.4,22.402z M328.892,148.469c10.696,0,21.11,2.965,27.794,5.367
		c-3.387,10.867-11.352,30.266-26.614,37.882c-5.172,2.582-11.382,3.891-18.457,3.891h-0.004c-10.695,0-21.106-2.961-27.793-5.363
		c3.386-10.867,11.351-30.266,26.613-37.883C315.608,149.782,321.819,148.469,328.892,148.469z M232.389,176.782
		c-6.688,2.406-17.11,5.374-27.817,5.374c-7.074,0-13.289-1.308-18.461-3.894c-15.394-7.679-23.305-27.039-26.645-37.886
		c6.653-2.402,17.035-5.359,27.821-5.359c7.074,0,13.289,1.308,18.461,3.894C221.139,146.59,229.041,165.934,232.389,176.782z
		 M183.104,236.633c7.074,0,13.286,1.313,18.461,3.894c15.387,7.68,23.293,27.023,26.637,37.871
		c-6.687,2.406-17.11,5.375-27.816,5.375c-7.074,0-13.29-1.309-18.462-3.894c-15.394-7.684-23.301-27.043-26.644-37.887
		C161.932,239.59,172.315,236.633,183.104,236.633z"></path>
</g>
</svg>
